<svg width="93" height="101" viewBox="0 0 93 101" fill="none" xmlns="http://www.w3.org/2000/svg">
<path d="M87.5248 100.456C83.9008 100.456 81.5488 98.0079 81.5488 94.0959C81.5488 90.1839 84.0448 87.7839 87.4288 87.7839C90.8608 87.7839 93.0208 90.1119 92.8528 94.6719H83.6608C83.9008 97.4799 85.5808 98.7759 87.5248 98.7759C89.2288 98.7759 90.4528 97.7679 90.7888 96.4239H92.8048C92.3488 98.7999 90.2848 100.456 87.5248 100.456ZM83.6848 93.1359H90.7408C90.6208 90.7599 89.2768 89.4639 87.4288 89.4639C85.3168 89.4639 83.9488 90.8799 83.6848 93.1359Z" fill="#221D20"/>
<path d="M77.2617 95.1519V92.6079H79.5417V95.1519H77.2617Z" fill="#221D20"/>
<path d="M68.4284 100.456C65.5964 100.456 63.1484 98.104 63.1484 94.144C63.1484 90.16 65.5964 87.784 68.4284 87.784C70.3004 87.784 71.7404 88.672 72.4364 90.208H72.5324C72.4844 89.464 72.4364 88.816 72.4364 87.904V82.96H74.5484V100.24H72.5324V98.032H72.4364C71.7404 99.592 70.2764 100.456 68.4284 100.456ZM65.2844 94.12C65.2844 97.168 66.7724 98.776 68.9804 98.776C71.0204 98.776 72.5324 97.192 72.5324 94.12C72.5324 91.12 71.0684 89.464 68.9564 89.464C66.7724 89.464 65.2844 91.096 65.2844 94.12Z" fill="#221D20"/>
<path d="M56.1211 100.24V88.0001H58.1611V90.5921H58.2331C58.9291 88.6961 60.0571 87.9041 61.6651 87.9041H62.6971V89.8481H61.5931C59.2891 89.8481 58.2331 90.8801 58.2331 93.6401V100.24H56.1211Z" fill="#221D20"/>
<path d="M47.3847 100.456C44.8647 100.456 43.4727 98.776 43.4727 96.184V88H45.5847V95.824C45.5847 97.768 46.4487 98.704 48.1767 98.704C50.0727 98.704 51.3687 97.36 51.3687 95.152V88H53.4567V100.24H51.4407V98.32H51.3687C50.5527 99.664 49.2567 100.456 47.3847 100.456Z" fill="#221D20"/>
<path d="M35.7109 100.456C32.1589 100.456 29.8789 97.8639 29.8789 94.1199C29.8789 90.3759 32.1589 87.7839 35.7109 87.7839C39.2869 87.7839 41.5429 90.3759 41.5429 94.1199C41.5429 97.8639 39.2869 100.456 35.7109 100.456ZM32.0149 94.1199C32.0149 97.0479 33.5749 98.7759 35.7109 98.7759C37.8709 98.7759 39.4069 97.0479 39.4069 94.1199C39.4069 91.1919 37.8709 89.4639 35.7109 89.4639C33.5749 89.4639 32.0149 91.1919 32.0149 94.1199Z" fill="#221D20"/>
<path d="M24.0757 100.456C20.7877 100.456 19.0838 98.9199 18.8438 96.4239H20.7638C21.0038 97.9839 22.1317 98.8719 24.0757 98.8719C25.9477 98.8719 26.8597 97.9839 26.8597 96.9519C26.8597 93.8559 19.2277 95.9439 19.2277 91.1679C19.2277 89.0079 20.9557 87.7839 23.5957 87.7839C26.2837 87.7839 28.0117 88.9359 28.2757 91.2399H26.3557C26.0677 89.9199 25.1557 89.3679 23.5957 89.3679C22.0357 89.3679 21.0757 89.9439 21.0757 90.9999C21.0757 94.0239 28.7077 91.9599 28.7077 96.7599C28.7077 98.9919 26.9557 100.456 24.0757 100.456Z" fill="#221D20"/>
<path d="M14.9615 100.24V88H17.0735V100.24H14.9615ZM14.9375 85.384V82.96H17.1215V85.384H14.9375Z" fill="#221D20"/>
<path d="M0.847656 100.24V82.96H7.20766C10.9757 82.96 13.0397 84.856 13.0397 88.264C13.0397 91.624 10.8797 93.496 7.15966 93.496H3.12766V100.24H0.847656ZM3.12766 91.744H6.91966C9.27166 91.744 10.7597 90.664 10.7597 88.288C10.7597 85.864 9.36766 84.808 6.94366 84.808H3.12766V91.744Z" fill="#221D20"/>
<g clip-path="url(#clip0_571_187)">
<path d="M26.0643 38.1375C26.0643 38.1375 16.1064 39.0122 12.9202 37.7429C9.73403 36.4737 1.49585 28.0351 1.49585 28.0351C-0.0124387 27.0747 -0.341235 25.2448 0.334624 24.2662C1.06789 23.2046 3.15549 22.8957 4.58027 24.2662C9.70794 28.6399 12.5262 30.5867 13.0298 30.1117C13.7057 29.4731 10.2142 24.4635 2.55009 15.0828C1.42278 13.7304 1.82726 11.7992 3.0198 11.0802C4.20973 10.3612 6.11727 10.8959 6.80357 12.513C12.7898 20.1235 16.1142 23.7134 16.7745 23.2799C17.4712 22.823 15.1983 17.8757 9.95062 8.44044C8.44233 6.27305 8.93031 3.89282 9.97149 3.29582C10.9762 2.71958 13.1551 3.4282 14.3581 5.59299C19.3318 14.6934 22.2674 19.0541 23.1651 18.6726C24.0236 18.3066 23.0164 13.6032 20.1433 4.55991C19.3161 2.58461 20.4251 0.622281 21.7455 0.295226C23.019 -0.0214452 24.8508 1.09988 25.1614 3.12451L33.0264 23.6381L35.8003 14.0523C35.8734 11.7395 37.687 10.3197 38.9186 10.5066C40.1268 10.6883 41.4055 12.5078 40.881 14.6908C40.881 14.6908 41.4264 30.9838 39.8241 31.7885C38.2219 32.5931 23.5957 26.2883 23.5957 26.2883C21.4063 25.6653 19.2195 26.7088 18.5072 28.4582C17.9905 29.7301 18.301 31.259 19.2535 32.4218L26.059 38.1375H26.0643Z" fill="#221D20"/>
<path d="M50.9926 49.0751C51.2196 42.3808 45.9562 38.5574 45.5622 38.2823L24.7254 28.25C22.8883 27.1027 20.6911 27.7075 19.9578 28.9742C19.1645 30.3447 19.9187 32.7742 22.1576 33.6023C26.9121 35.6528 29.185 37.2128 28.971 38.2849C28.6396 39.9487 22.3012 40.4289 9.95823 39.7254C6.90773 39.5983 4.81231 40.8987 4.76012 41.9473C4.70793 42.9545 6.49804 44.3354 9.18582 44.7117C18.2643 44.7636 22.8413 45.2127 22.917 46.0615C22.9953 46.9492 18.1521 48.273 8.38732 50.0329C5.12545 50.8764 3.17093 52.5714 3.36925 53.5733C3.55975 54.5363 5.82218 55.2969 8.76569 55.097C18.9297 53.2229 24.1382 52.7298 24.3888 53.6201C24.6262 54.4663 20.3988 56.5584 11.7014 59.8964C9.71555 61.0437 8.65088 62.6945 9.00316 63.5719C9.38675 64.5297 11.6622 65.0877 14.3605 64.0027C24.3105 60.6258 29.4512 59.3228 29.7878 60.0937C30.0487 60.6933 27.4001 62.5518 21.8393 65.664C20.1353 67.0111 19.0967 68.5971 19.4907 69.4303C19.9369 70.3777 22.3716 70.6425 25.3595 69.4303L45.2647 59.2137C45.7527 58.8919 50.7734 55.463 50.9926 49.0776V49.0751Z" fill="#221D20"/>
</g>
<defs>
<clipPath id="clip0_571_187">
<rect width="51" height="70" fill="white" transform="translate(0 0.240234)"/>
</clipPath>
</defs>
</svg>
