<svg width="614" height="107" viewBox="0 0 614 107" fill="none" xmlns="http://www.w3.org/2000/svg">
<g clip-path="url(#clip0_452_3)">
<path d="M432.314 83.5549C432.314 76.1996 428.483 71.5166 419.068 71.5166C410.329 71.5166 404.613 75.8639 404.277 82.8852H411.672C412.008 79.5416 413.688 77.2017 418.731 77.2017C422.764 77.2017 424.782 78.8735 424.782 81.2134C424.782 84.6238 421.083 85.6927 416.714 86.6964C410.461 88.101 402.931 89.3719 402.931 97.2616C402.931 103.615 407.637 106.958 414.696 106.958C419.402 106.958 423.435 104.953 425.519 101.275H425.788L426.797 106.29H433.856L434.191 105.955L432.309 98.5994V83.5515L432.314 83.5549ZM425.121 93.2517C425.121 98.6011 421.221 101.611 416.046 101.611C413.02 101.611 410.666 100.072 410.666 96.9293C410.666 93.3853 414.231 92.2479 417.995 91.2458C420.416 90.6446 422.769 89.9081 424.854 88.906H425.123V93.2517H425.121Z" fill="#221D20"/>
<path d="M376.242 82.5527C374.763 86.8984 374.156 88.9059 372.476 94.591H372.207C370.661 88.9076 370.123 86.9001 368.644 82.5527L360.24 58.1438H348.811V106.294H356.541V84.2245C356.541 77.5373 356.273 71.8522 355.935 68.1729H356.271C357.28 71.5165 359.431 78.2037 360.575 81.549L368.978 106.294H375.701L384.105 81.549C385.248 78.2054 387.399 71.5182 388.408 68.1729H388.744C388.408 71.8522 388.14 77.5357 388.14 84.2245V106.294H396.208V58.1438H384.442L376.24 82.5527H376.242Z" fill="#221D20"/>
<path d="M280.839 70.8485C280.839 73.524 280.974 75.1958 281.175 77.2016H280.839C278.823 73.524 275.126 71.5165 270.419 71.5165C262.689 71.5165 255.627 77.8697 255.627 89.2399C255.627 100.61 262.687 106.962 270.419 106.962C275.126 106.962 278.823 104.956 280.839 101.278H281.175V106.294H288.57V58.1438H280.839V70.8501V70.8485ZM272.434 100.944C267.056 100.944 263.493 97.1981 263.493 89.2416C263.493 81.2851 267.056 77.539 272.434 77.539C277.476 77.539 281.174 81.5506 281.174 89.2416C281.174 96.9325 277.476 100.944 272.434 100.944Z" fill="#221D20"/>
<path d="M311.766 71.5183C302.353 71.5183 294.957 78.2055 294.957 89.2417C294.957 100.278 301.68 106.963 312.102 106.963C319.834 106.963 326.02 102.616 327.566 95.5949H320.171C319.162 98.7381 316.137 100.946 312.104 100.946C307.867 100.946 303.564 98.2036 302.758 91.2492H327.566C328.238 78.2088 321.852 71.52 311.766 71.52V71.5183ZM302.891 85.8964C303.765 80.8126 306.858 77.5374 311.766 77.5374C315.799 77.5374 319.496 80.2113 319.834 85.8964H302.891Z" fill="#221D20"/>
<path d="M513.196 71.5183C503.783 71.5183 496.387 78.2055 496.387 89.2417C496.387 100.278 503.11 106.963 513.532 106.963C521.262 106.963 527.45 102.616 528.996 95.5949H521.601C520.592 98.7381 517.567 100.946 513.533 100.946C509.297 100.946 504.995 98.2036 504.188 91.2492H528.996C529.668 78.2088 523.282 71.52 513.196 71.52V71.5183ZM504.321 85.8964C505.195 80.8126 508.286 77.5374 513.196 77.5374C517.229 77.5374 520.926 80.2113 521.264 85.8964H504.322H504.321Z" fill="#221D20"/>
<path d="M543.315 58.1438H535.314V65.8331H543.315V58.1438Z" fill="#221D20"/>
<path d="M574.779 58.1438H567.048V106.294H574.779V58.1438Z" fill="#221D20"/>
<path d="M543.179 72.1863H535.449V106.294H543.179V72.1863Z" fill="#221D20"/>
<path d="M448.315 79.209H447.98V72.1878H440.585V106.295H448.315V87.9037C448.315 81.2165 451.005 78.8767 457.055 78.8767H460.416V71.8555H457.391C453.022 71.8555 450.332 74.1953 448.314 79.2107L448.315 79.209Z" fill="#221D20"/>
<path d="M597.975 71.5183C588.562 71.5183 581.166 78.2055 581.166 89.2417C581.166 100.278 587.889 106.963 598.311 106.963C606.043 106.963 612.229 102.616 613.775 95.5949H606.38C605.371 98.7381 602.347 100.946 598.313 100.946C594.078 100.946 589.775 98.2036 588.967 91.2492H613.775C614.448 78.2088 608.061 71.52 597.975 71.52V71.5183ZM589.101 85.8964C589.976 80.8126 593.067 77.5374 597.977 77.5374C602.01 77.5374 605.709 80.2113 606.045 85.8964H589.101Z" fill="#221D20"/>
<path d="M558.979 58.1438H551.249V106.294H558.979V58.1438Z" fill="#221D20"/>
<path d="M471.174 80.8811C471.174 78.5395 473.528 77.2034 477.226 77.2034C480.923 77.2034 483.275 78.5395 483.949 81.5491H491.007C490.336 74.8619 485.023 71.5183 477.224 71.5183C469.425 71.5183 464.45 75.1976 464.45 81.5491C464.45 95.2592 485.292 89.5741 485.292 96.931C485.292 99.2725 482.938 101.278 478.569 101.278C473.862 101.278 471.173 99.2725 470.501 95.5932H463.442C464.114 102.614 468.82 106.962 478.57 106.962C486.974 106.962 492.016 102.614 492.016 96.2613C492.016 82.5512 471.174 88.2363 471.174 80.8794V80.8811Z" fill="#221D20"/>
<path d="M553.198 5.35449L545.468 6.89268V14.7172H538.407V21.0704H545.468V41.4677C545.468 46.1474 548.156 48.8229 552.862 48.8229H561.939V42.4698H556.561C553.871 42.4698 553.2 41.8017 553.2 39.1262V21.0704H561.939V14.7172H553.2V5.35449H553.198Z" fill="#221D20"/>
<path d="M593.875 38.7903C593.875 25.0802 573.033 30.7653 573.033 23.4084C573.033 21.0686 575.385 19.7308 579.082 19.7308C582.78 19.7308 585.134 21.0686 585.805 24.0782H592.864C592.192 17.391 586.88 14.0474 579.081 14.0474C571.281 14.0474 566.306 17.725 566.306 24.0782C566.306 37.7882 587.148 32.1031 587.148 39.46C587.148 41.7999 584.794 43.8057 580.425 43.8057C575.719 43.8057 573.031 41.7999 572.358 38.1223H565.299C565.97 45.1435 570.677 49.4908 580.427 49.4908C588.831 49.4908 593.875 45.1452 593.875 38.7903Z" fill="#221D20"/>
<path d="M478.839 36.1165H497.462L501.899 48.8229H510.842L493.093 0.671387H483.277L465.796 48.8212H474.267L478.839 36.1149V36.1165ZM485.764 16.7213C486.704 14.0474 487.31 12.3756 487.982 9.36608H488.319C489.125 12.3756 489.662 14.0474 490.604 16.7213L495.109 29.4277H481.191L485.764 16.7213Z" fill="#221D20"/>
<path d="M416.785 48.8229L421.489 41.8017C423.103 39.3934 424.985 36.3187 424.985 36.3187H425.321C425.321 36.3187 427.07 39.4619 428.481 41.8017L432.648 48.8229H441.927L429.016 30.7655L440.246 14.7156H432.312L428.884 19.9314C427.336 22.3397 425.522 25.4144 425.522 25.4144H425.185C425.185 25.4144 423.303 22.2729 421.825 19.9314L418.464 14.7156H409.655L421.085 30.7655L408.31 48.8229H416.783H416.785Z" fill="#221D20"/>
<path d="M535.719 14.3813H532.693C528.324 14.3813 525.635 16.7212 523.616 21.7366H523.281V14.7154H515.884V48.8211H523.616V30.4296C523.616 23.7424 526.305 21.4026 532.356 21.4026H535.717V14.3813H535.719Z" fill="#221D20"/>
<path d="M358.963 43.8057H359.231L360.24 48.8211H367.299L367.635 48.487L365.751 41.1318V26.0839C365.751 18.7287 361.919 14.0457 352.507 14.0457C343.767 14.0457 338.052 18.3913 337.714 25.4142H345.11C345.446 22.0706 347.127 19.7308 352.169 19.7308C356.202 19.7308 358.219 21.4026 358.219 23.7424C358.219 27.1545 354.521 28.2234 350.153 29.2255C343.9 30.63 336.369 31.901 336.369 39.7924C336.369 46.1439 341.074 49.4891 348.136 49.4891C352.841 49.4891 356.876 47.4833 358.959 43.8057H358.963ZM349.483 44.1397C346.459 44.1397 344.105 42.6015 344.105 39.46C344.105 35.9143 347.668 34.7786 351.434 33.7749C353.855 33.1736 356.207 32.4371 358.291 31.435H358.56V35.7807C358.56 41.1318 354.659 44.1397 349.483 44.1397Z" fill="#221D20"/>
<path d="M285.546 23.7442V23.4102C290.049 21.872 292.403 18.4616 292.403 13.3794C292.403 5.41956 286.688 0.671387 277.14 0.671387H257.979V48.8212H278.15C288.435 48.8212 294.621 43.6722 294.621 35.1111C294.621 29.1588 291.595 25.3475 285.546 23.7425V23.7442ZM266.384 7.02623H276.469C281.713 7.02623 284.537 9.56649 284.537 14.3815C284.537 19.1965 281.914 21.2691 276.133 21.2691H266.384V7.02623ZM277.476 42.468H266.383V27.4218H277.14C283.326 27.4218 286.081 29.6949 286.081 34.7771C286.081 39.8593 283.259 42.4664 277.476 42.4664V42.468Z" fill="#221D20"/>
<path d="M316.472 14.0474C307.06 14.0474 299.663 20.7346 299.663 31.7691C299.663 42.8036 306.386 49.4908 316.808 49.4908C324.539 49.4908 330.726 45.1452 332.272 38.1223H324.878C323.869 41.2638 320.843 43.4717 316.81 43.4717C312.574 43.4717 308.27 40.7293 307.464 33.7749H332.274C332.946 20.7346 326.56 14.0474 316.474 14.0474H316.472ZM307.597 28.4255C308.472 23.3433 311.564 20.0665 316.472 20.0665C320.505 20.0665 324.203 22.7421 324.54 28.4255H307.599H307.597Z" fill="#221D20"/>
<path d="M462.099 27.8894H443.273V34.2426H462.099V27.8894Z" fill="#221D20"/>
<path d="M395.202 34.1091C395.202 39.7942 392.176 43.1378 387.47 43.1378C383.301 43.1378 381.42 40.7963 381.42 36.4506V14.7156H373.688V37.7884C373.688 44.8096 377.723 49.491 384.446 49.491C389.488 49.491 392.918 47.4852 395.271 43.8075H395.539V48.8229H402.934V14.7156H395.203V34.1091H395.202Z" fill="#221D20"/>
<path d="M116.594 74.6597C116.152 74.2188 115.709 73.6309 115.413 73.1916C115.266 72.7507 115.266 72.4568 115.118 72.0159C115.118 71.4296 115.118 70.6948 114.822 70.1069C114.527 68.9328 114.085 67.7587 113.642 66.5829C113.346 65.9967 112.757 65.4088 112.757 64.674C112.757 64.674 112.609 64.5287 112.462 64.5287C110.69 63.2059 110.542 61.4456 109.656 59.8306C109.36 59.5367 109.213 59.0974 108.919 58.8035C108.328 58.5095 107.884 57.9216 107.737 57.3354C107.737 56.7475 107.147 56.3066 106.261 56.1597C104.489 55.7204 103.309 54.8386 102.718 53.8115C101.981 52.7827 101.242 52.1964 99.914 51.9025C99.4707 51.9025 99.0274 51.6086 98.7319 51.4616C98.1426 51.3146 97.5515 51.0207 96.9605 50.8737C94.452 50.4345 91.9435 49.9935 89.1395 50.1405C88.5484 50.1405 87.8113 49.8466 87.2203 49.8466C86.186 49.9935 85.3011 49.6996 84.2685 49.5526C83.382 49.4057 82.3493 49.2587 81.4628 48.9647C81.1673 48.9647 80.7257 48.8178 80.2824 48.8178C78.8065 48.8178 77.4767 48.6725 76.0025 48.2316H76.7413C77.1846 48.0846 77.6262 48.0846 77.9217 48.0846C78.3649 48.2316 78.8082 48.0846 79.2498 48.0846H79.8408C80.4319 47.9376 80.5796 48.3785 81.169 48.2316H82.4988C82.6449 48.0846 83.3836 48.0846 83.5314 47.9376C83.6792 47.7906 83.6792 47.6437 83.8269 47.6437C84.1224 47.4967 84.2702 47.4967 84.1224 47.0558V46.9105C84.2702 46.6165 84.564 46.1756 84.7118 45.8817C85.0073 45.4408 85.0073 44.8546 85.1551 44.4136C85.1551 44.1197 85.0073 43.9727 85.1551 43.6788C85.3028 43.5318 85.4506 41.9168 85.8938 41.4776C86.3354 41.0367 86.4832 38.1006 86.9265 37.6597C86.9265 37.5127 87.0742 37.5127 87.0742 37.3657V37.0718C86.9265 36.9248 86.9265 36.6309 87.0742 36.4839V36.1916C86.7787 35.8977 86.9265 35.3098 86.7787 34.8689C86.7787 34.5766 86.631 34.2826 86.4832 34.1357V33.8417C86.631 33.4008 85.5983 30.9057 85.3028 30.7587C85.1551 30.7587 85.0073 30.7587 84.8595 30.6117C84.8595 30.4647 84.7118 30.3178 84.7118 30.1708C84.564 29.8769 84.4163 29.5829 84.2702 29.4359C83.9747 29.2906 83.9747 29.1437 83.9747 28.8497C83.8269 28.7028 83.6792 28.5558 83.5314 28.4088C83.3836 28.2618 83.2359 28.2618 82.9404 28.1149C82.7926 28.1149 82.7926 27.9679 82.6449 27.8209V27.674C82.2033 27.5287 81.9078 27.2347 81.6122 27.0877C81.4645 26.9408 81.3167 26.9408 81.169 26.7938C81.0212 26.7938 78.2172 23.7107 77.9217 23.7107C77.7739 23.5638 77.6262 23.4168 77.6262 23.2698C77.6262 23.1229 77.4784 22.8289 77.3306 22.6819C77.1846 22.535 77.1846 22.388 76.889 22.2427C76.889 22.2427 76.7413 22.0957 76.5935 22.0957C76.4458 21.9488 76.298 21.9488 76.0025 21.9488C75.4132 22.0957 74.5266 20.626 73.7878 20.626C73.6417 20.626 73.494 20.4807 73.1985 20.4807C73.0507 20.3337 72.7552 20.0398 72.6074 19.8928C72.3119 19.7459 72.1642 19.7459 72.0164 19.4519C71.8703 19.4519 71.7226 19.4519 71.7226 19.3049H71.2793C70.9838 19.3049 70.6883 19.158 70.5405 19.011C70.245 18.864 69.9512 18.864 69.6557 18.7187C69.3601 18.7187 69.2124 18.5718 69.0646 18.4248C68.6214 17.9839 68.032 17.8369 67.441 17.396C67.1455 17.396 66.9977 17.249 66.7022 16.9567C66.5561 16.9567 66.4084 16.8098 66.2606 16.8098C65.8173 16.8098 65.5218 16.5158 65.2263 16.3689C64.9308 16.2219 64.6369 16.2219 64.4892 16.0749C64.1937 15.9279 64.0459 15.781 63.7504 15.634C63.6026 15.487 63.4549 15.3401 63.1594 15.3401C62.8655 15.1948 62.7178 14.9008 62.4223 14.7538C62.1268 14.4599 59.9121 11.9631 59.4705 11.6708C59.4705 11.6708 59.3227 11.6708 59.3227 11.5238C59.175 11.2299 59.0272 11.0829 58.7317 11.0829C58.4362 10.9359 58.1407 10.789 57.9929 10.642C57.6991 10.348 57.2558 10.2011 56.8125 10.2011C55.9277 10.0541 55.0411 9.61486 54.1563 9.32091C54.0085 9.32091 54.0085 9.17394 53.8607 9.17394C53.5652 9.02697 53.122 8.88 52.8264 8.73303C52.3849 8.58606 52.2371 8.29212 51.9416 8.14681C51.4983 7.99984 51.2028 7.85287 50.9073 7.7059C50.7595 7.55893 50.0224 6.38483 49.7269 6.09089C49.2836 5.79694 48.3988 3.74102 47.8077 3.59404C47.66 3.59404 47.5122 3.44707 47.5122 3.44707C47.2178 3.05626 46.8736 2.71389 46.4796 2.41994C46.3318 2.41994 46.0363 2.27297 45.8886 2.126C45.4453 1.97903 45.1515 1.83206 44.856 1.68509C44.7082 1.53812 44.5604 1.53812 44.4127 1.39115C44.4127 1.24417 44.2649 1.24417 44.1172 1.24417C43.3801 1.09887 42.789 0.951902 42.0502 0.951902H41.4609C40.8699 0.80493 40.4266 0.657959 39.8372 0.657959H36.1467C35.5556 0.80493 34.8169 0.80493 34.0798 0.80493H33.6365C33.1932 0.80493 32.7516 0.657959 32.3083 0.657959C31.7173 0.657959 31.128 0.657959 30.5369 0.80493C30.0937 0.80493 29.5026 0.951902 29.061 1.09887C28.6178 1.24417 28.3223 1.09887 28.0267 1.09887H26.9941C26.5508 1.09887 26.2553 1.09887 25.9598 1.24417C25.666 1.39115 25.5182 1.39115 25.2227 1.24417H24.9272C24.3362 1.09887 23.8946 1.24417 23.4513 1.68509C23.3035 1.68509 23.008 1.83206 22.8603 1.97903C22.7125 2.126 22.417 2.27297 22.1232 2.41994C21.8277 2.56692 21.3844 2.71389 20.9411 2.86086C20.4995 2.86086 20.0562 3.00616 19.613 3.3001C19.3175 3.44707 18.8742 3.74102 18.5804 3.88799C18.2848 4.18193 17.8416 4.47587 17.3983 4.47587C17.2505 4.62284 16.9567 4.76814 16.8089 4.91512C16.3657 5.35603 15.9224 5.503 15.3314 5.64997C15.1853 5.64997 13.7077 6.97104 13.7077 7.26499C13.56 7.41196 12.8229 8.73303 12.8229 8.88C12.8229 9.02697 12.3796 11.2299 12.3796 11.3768C12.2318 11.5238 12.0841 11.8161 12.0841 12.11V12.6979C12.0841 12.9919 11.9363 13.1388 11.9363 13.2858C11.9363 13.4328 11.7886 13.5781 11.6425 13.725C11.4947 14.019 11.347 14.166 11.347 14.3129C11.347 14.6069 11.0515 14.9008 10.9037 14.9008C10.3127 15.0478 9.72332 15.3401 9.28005 15.781H9.13229C8.68902 15.9279 8.24575 16.2219 8.09967 16.6628C8.09967 16.8098 7.95191 16.8098 7.80415 16.9567C7.65639 16.9567 7.6564 17.249 7.50864 17.396C7.36088 17.6899 7.21312 17.9839 7.06537 18.2778C6.91761 18.5718 6.62209 18.7187 6.47434 18.864C6.1805 19.011 6.03274 19.158 5.88499 19.4519C5.88499 19.5989 5.73723 19.7459 5.73723 19.8928C5.58947 20.1868 2.48993 24.4439 2.34217 24.7362V24.8832C2.34217 25.3241 2.19442 25.618 2.04666 25.9103C2.04666 26.0573 2.04666 26.2042 1.8989 26.3512C1.75114 26.4982 1.45563 26.7921 1.45563 27.0861C1.30787 27.38 1.01404 27.527 0.718522 27.6723C0.570765 27.6723 0.127494 30.0222 -0.0202637 30.3161C-0.0202637 30.757 0.127494 31.051 0.275251 31.4902C0.423008 31.6372 0.423008 31.7841 0.423008 32.0781C0.275251 32.2251 0.275251 32.519 0.275251 32.8129C0.127494 33.1052 0.127494 33.3992 0.423008 33.6931C0.570765 34.134 0.718522 34.5749 0.718522 35.0142C0.718522 35.3081 0.718522 35.4551 0.570765 35.6021C0.423008 36.043 0.423008 36.3369 0.275251 36.7762C0.127494 37.0701 0.275251 37.2171 0.275251 37.511C0.423008 37.805 0.423008 37.9519 0.127494 38.2442V38.6851C0.423008 39.42 0.570765 40.1532 0.86628 40.888C1.01404 41.035 1.01404 41.3289 1.01404 41.4759C0.86628 41.9151 0.86628 42.3561 0.86628 42.797C0.86628 43.0909 0.718522 43.3848 0.718522 43.6771C0.718522 43.8241 0.718522 44.118 0.570765 44.412C0.718522 44.5589 0.86628 44.7059 0.86628 44.8529C1.01404 44.9999 1.16012 45.1468 1.30787 45.1468C1.40638 45.2437 1.50488 45.2921 1.60339 45.2921C1.75114 45.5861 2.04666 45.7331 2.34217 46.027C2.48993 46.174 2.78544 46.3209 2.93152 46.4679C3.22704 46.6149 3.22704 46.7618 3.52255 46.9088C3.52255 47.3481 3.96582 47.642 4.11358 47.789C4.55517 47.9359 4.99844 48.0829 5.44172 48.2299C5.88499 48.3769 6.32826 48.5238 6.91761 48.5238C7.06537 48.5238 7.21312 48.5238 7.36088 48.6708C8.09967 48.9631 8.98453 49.1101 9.72332 49.404C10.1649 49.551 10.6082 49.8449 10.9037 50.1388C11.347 50.2858 11.6425 50.4328 12.0841 50.5781C12.5273 50.5781 12.9706 50.5781 13.4139 50.7251H15.6269C16.2179 50.872 16.8089 50.872 17.3983 50.872C17.9876 50.872 18.5804 51.019 19.3175 51.019C19.4652 51.019 19.7607 51.019 20.0562 51.166H20.7934C21.2366 51.019 21.6799 51.019 22.1232 50.872C22.7125 50.7251 23.4513 50.5781 24.1884 50.5781C24.3362 50.5781 24.4839 50.5781 24.6317 50.4328C24.7794 50.4328 24.9272 50.4328 25.075 50.2858C25.666 49.9919 26.2553 49.8449 26.8464 49.8449C27.4374 49.6979 28.0267 49.6979 28.47 49.551C28.7655 49.404 29.061 49.404 29.3566 49.404C29.7981 49.404 30.3892 49.404 30.8325 49.551C31.5696 49.551 32.3083 49.6979 33.0454 49.6979C33.1932 49.6979 33.4887 49.6979 33.6365 49.8449C34.0798 49.8449 34.523 49.9919 35.1124 49.8449H36.1467C36.2944 49.8449 36.5883 49.8449 36.8838 49.6979C37.0315 49.551 37.1793 49.551 37.327 49.551C38.2136 49.551 38.9507 49.404 39.6895 49.257C40.4266 49.11 41.1654 48.9631 41.9025 48.9631C42.0502 48.9631 42.198 48.8161 42.3458 48.8161C42.789 48.6708 43.2323 48.6708 43.8217 48.6708H46.1841C46.4796 48.6708 46.6274 48.8161 46.9229 48.8161C47.0706 48.8161 47.3645 48.9631 47.5122 48.9631C47.8077 48.9631 47.9555 48.6708 48.251 48.6708C48.5465 48.5238 48.842 48.5238 49.1359 48.3769H49.2836C49.5791 48.3769 49.8747 48.3769 50.1702 48.2299C50.4657 48.0829 50.7595 48.0829 51.055 48.0829H51.6461C52.5309 48.0829 53.5652 48.0829 54.4501 48.2299H55.0411C55.7799 48.0829 56.3693 48.0829 56.9603 48.2299H57.2558C57.6991 48.0829 58.1407 48.2299 58.5839 48.2299C59.3227 48.3769 60.0598 48.5238 60.7986 48.6708H63.0133C63.3071 48.6708 63.4549 48.8161 63.6026 48.8161H64.1937C64.9308 48.6708 65.6696 48.6708 66.4084 48.8161H66.9977C67.5887 48.6708 68.3275 48.5238 68.9169 48.5238H69.8034C68.1798 49.11 66.5561 51.6069 64.6386 51.7539C64.1954 51.9008 63.6043 51.9008 63.1611 52.0478C61.5374 52.487 60.0615 52.928 58.4395 53.2219C56.9636 53.5158 55.0445 55.7187 53.2748 55.5718C52.9792 55.5718 52.536 55.7187 52.0944 55.864C50.1752 56.305 34.973 61.5892 32.9078 61.8832C30.5453 62.3241 28.7756 64.0861 26.4132 64.6723C26.1177 64.8193 25.8238 64.8193 25.6761 64.8193C23.3136 64.8193 21.1006 67.4631 19.0337 68.0493C18.0011 68.3416 17.4101 69.0764 16.9685 69.8113C16.0819 71.1324 13.2779 69.6643 12.0975 70.6914C11.6559 70.9854 11.5082 71.2793 11.2126 71.4263C10.3261 72.1595 9.14572 72.8943 8.1131 73.3353C7.37431 73.4806 6.93104 74.0684 6.48777 74.6563C5.89842 75.3895 5.60291 74.9503 4.86412 75.5365C4.42253 75.8304 3.8315 77.2985 2.79888 78.4742C2.20785 79.2074 1.76458 79.7953 2.35561 80.6755C2.94495 81.4103 1.91233 82.5844 1.76458 83.6116C1.46906 84.7857 1.17355 86.1067 1.61682 86.9886C2.35561 88.4566 2.20785 88.6036 2.94496 90.2186C3.24047 91.1004 3.38823 91.9806 3.68374 92.8624C3.68374 93.4486 3.8315 93.8895 4.27477 94.3304C4.71636 94.7697 5.15963 95.5045 5.45515 96.0924C5.75066 96.6786 6.19393 97.1196 6.78328 97.4135C8.1131 98.1484 9.29348 98.8815 10.9155 99.0285C11.3587 99.1755 11.8003 99.4694 12.0958 99.6164C12.5391 100.056 13.1301 100.203 13.8672 100.497C14.4583 100.644 15.1971 100.79 15.7864 101.231C16.8207 102.112 18.4444 102.552 19.6231 103.287C19.9186 103.434 20.0663 103.58 20.3618 103.58C22.1332 104.167 28.4784 106.37 30.9886 106.37H95.1874C96.5172 106.37 97.9931 104.755 98.4347 104.608C99.3196 103.874 103.895 102.406 104.337 101.525C105.075 99.9103 105.96 99.7634 106.995 98.4423C107.879 97.4152 109.799 96.2411 109.946 95.5062C110.242 94.3321 111.422 92.2762 112.309 91.543C114.67 89.4871 116.736 88.313 117.03 85.9648C117.178 85.3786 117.178 84.7907 117.178 84.3498C117.03 83.3226 117.178 82.4408 117.474 81.4137C117.769 80.9728 117.769 80.5318 117.769 80.0926C117.621 78.7715 117.326 77.4488 117.178 76.1294C117.178 75.5415 116.883 75.1022 116.587 74.6613L116.594 74.6597Z" fill="#221D20"/>
<path d="M176.071 1.69852C175.923 1.84549 175.776 1.99246 175.628 2.13943C175.185 2.43337 174.743 2.87429 174.3 3.4605C174.152 3.75444 173.709 4.04839 173.413 4.19536C172.972 4.34233 172.528 4.63627 172.381 5.07551C172.381 5.51643 171.937 5.6634 171.642 5.81037C171.346 5.95734 171.052 6.10431 170.905 6.39826C170.314 7.27841 169.575 7.71933 168.838 8.45251C168.838 8.59948 168.69 8.59948 168.69 8.59948C167.803 8.74646 167.51 9.48131 167.066 10.0675C166.771 10.3615 166.623 10.8024 166.327 11.0963C166.18 11.5372 165.738 11.8295 165.443 11.9765C164.999 12.1235 164.704 12.4174 164.556 12.8583C164.408 13.2992 164.114 13.8854 164.114 14.4733C163.967 14.7673 163.819 15.0612 163.671 15.3535C163.523 15.6474 163.376 15.7944 163.228 15.9414C162.785 16.0883 162.489 16.5293 162.195 16.9702C162.048 17.4094 161.752 17.7034 161.309 17.9973C160.718 18.5852 160.276 19.1714 160.128 19.9062C159.981 20.4941 159.685 20.7864 159.39 21.2273C159.094 21.3743 158.946 21.6682 158.946 21.9622C158.8 22.2561 158.653 22.4014 158.357 22.6954C157.914 22.9893 157.618 23.4302 157.47 24.0181C157.323 24.7513 156.881 25.3392 156.438 25.9254C155.995 26.3663 155.699 26.8072 155.551 27.3951C155.551 27.5421 155.404 27.6874 155.404 27.6874C154.962 28.4222 154.519 29.1571 154.075 29.8903C153.78 30.3312 153.632 30.7721 153.338 31.066C152.895 31.7992 152.6 32.3871 152.008 32.9733C151.861 33.2673 151.715 33.5612 151.715 33.8552C151.567 34.59 151.271 35.1762 150.533 35.4702C150.089 35.7641 149.943 36.0581 149.943 36.4973C149.795 37.0852 149.5 37.3791 149.204 37.82C148.761 38.114 148.613 38.4063 148.613 38.8472C148.466 39.2881 148.466 39.582 148.318 39.876C148.172 40.1682 148.172 40.3152 148.172 40.6092C148.172 41.0501 148.024 41.491 147.581 41.638C147.285 41.7833 147.138 42.0772 147.138 42.3711C146.842 42.959 146.4 43.3999 146.105 43.9862C145.514 45.015 144.629 45.8951 144.333 47.0692C143.89 47.6571 143.89 48.392 143.742 48.9782C143.595 49.4191 143.595 49.86 143.742 50.3009C144.038 50.8871 144.038 51.328 143.742 51.769C143.595 52.0629 143.595 52.2099 143.447 52.5021C143.447 52.7961 143.299 53.09 143.004 53.237C142.858 53.384 142.71 53.6779 142.71 53.9719C142.71 54.852 142.267 55.5869 141.676 56.3201C141.232 56.9079 140.791 57.6411 140.643 58.376C140.643 58.9639 140.347 59.4031 140.052 59.6971C139.609 60.2849 139.315 61.0198 139.167 61.606C138.872 62.0469 138.724 62.4878 138.428 62.7818C137.985 63.0741 137.543 63.515 137.396 64.1028C137.248 64.3968 137.1 64.6891 136.805 64.983C136.214 65.4239 135.918 66.0118 135.476 66.598C135.378 66.598 135.279 66.647 135.181 66.745C134.885 67.4798 134.147 67.9208 133.705 68.507C133.557 68.6539 133.41 68.8009 133.262 68.9479C132.819 69.2418 132.671 69.5358 132.671 69.975C132.523 70.269 132.523 70.5629 132.375 70.8568C132.229 71.4447 132.081 71.884 131.638 72.0309C131.49 72.1779 131.49 72.3249 131.343 72.4719C131.047 72.9128 130.604 73.2067 130.014 73.3537C129.719 73.499 129.276 73.7929 128.98 73.9399C128.98 73.9399 128.832 73.9399 128.832 74.0869C128.686 74.0869 128.539 74.2338 128.539 74.2338C128.539 74.8217 127.8 74.9687 127.8 75.7019C127.652 75.9958 127.504 76.2898 127.061 76.5837H126.915C126.176 76.8777 126.176 77.4639 126.176 78.1987V78.9319C126.176 79.6668 126.028 80.1077 125.733 80.6939C125.585 81.2818 125.437 81.8697 125.29 82.3089C125.144 82.8968 124.848 83.3377 124.7 83.9256C124.405 84.3648 124.257 84.8058 124.405 85.3936C124.405 85.9799 124.405 86.5677 123.961 87.0087C123.814 87.0087 123.814 87.1556 123.814 87.3026C123.961 87.7418 123.814 88.1827 123.814 88.6237V89.0646C124.109 89.6508 124.553 90.3857 124.848 90.9735C124.996 91.4128 124.996 91.8537 125.29 92.1476C125.144 93.1748 125.144 94.2036 125.29 95.2307V95.5246C125.144 96.1125 125.29 96.5518 125.29 97.1396C125.437 97.5806 125.29 98.0215 125.29 98.4607C125.144 99.9304 125.144 101.252 125.437 102.571C125.585 103.159 125.881 103.453 125.881 104.039V106.389H168.091V38.2509H198.198V106.367H227.716V0.671387H177.092C176.796 0.965329 176.503 1.2576 176.059 1.69852H176.071Z" fill="#221D20"/>
</g>
<defs>
<clipPath id="clip0_452_3">
<rect width="613.824" height="106.29" fill="white" transform="translate(0 0.671387)"/>
</clipPath>
</defs>
</svg>
