<svg width="477" height="477" viewBox="0 0 477 477" fill="none" xmlns="http://www.w3.org/2000/svg">
<g clip-path="url(#clip0_574_3986)">
<path d="M455.4 0C453.5 0.2 451.8 0.2 450.1 0H442.3C439.2 1.1 436 2.8 433.2 1.7C430.1 0.6 427.1 0 423.6 0.1C422.2 0.1 420.8 0.1 419.4 0.1H378.7C377 0.4 375.3 0.7 373.7 1.1C370.3 1.9 367.7 -0.1 364.3 0.6C358.6 1.7 353.9 -0.1 348.3 1.1C346.1 1.6 332.5 2.5 323.3 4C320 4.5 306.2 8.9 303.1 9.7C293.7 12.3 286.7 11.5 277 13.4C269.7 14.9 257.5 17.4 250.5 19.7C243.1 22.2 235.9 25.1 227.8 26.6C224.2 27.3 195.2 40.6 192.8 41.9C191 42.9 189.4 44.1 187.8 45.3C185.5 47 183.1 48.7 180.9 50.4C178.9 52 177.1 53.8 175.4 55.6C173.8 57.2 161.3 63 159.5 64.6C153.3 70.1 146.8 75.5 141.7 81.6C140.1 83.5 137.6 84.8 134.9 86C131.2 87.6 121.4 103.6 120.1 104.9C118 107 110.1 114.9 107.7 117.2C95.2 128.7 93.4 142.8 92.5 147.2C91.8 150.7 83.1 193.5 83.9 196.9C84.2 198.3 84.4 199.3 83.3 200.5C82.5 201.4 81.8 202.5 81.7 203.5C81.2 208.2 81.4 208.6 81.6 226.1C81.6 229.4 83.5 235.4 84.7 240.4C84.4 240.4 84.1 240.4 83.7 240.4C82 240.4 80.1 240.4 78.5 240C71.6 238.2 64 238.3 57.2 236.2C55.7 235.8 53.5 235.7 52.1 236.2C45.7 238.2 39.2 238 32.6 237.2C30.2 236.9 27.9 236.1 25.5 236C23.2 236 20.8 236.8 18.5 237.1C17.5 237.2 16.4 237.2 15.4 237.3C10.5 237.4 5.6 237.7 0.8 237.5C0.5 237.5 0.3 237.5 0 237.5V476.3H171.7C173.3 476.3 175.3 476.1 175.7 476C185.1 473.4 190 474.8 199.7 472.8C207 471.3 219.2 468.8 226.2 466.5C233.6 464 240.8 461.1 248.9 459.6C252.5 458.9 281.5 445.6 283.9 444.4C285.7 443.4 287.3 442.2 288.9 441C291.2 439.3 293.6 437.6 295.8 435.8C297.8 434.2 299.6 432.4 301.3 430.6C302.9 429 315.4 423.2 317.2 421.6C323.4 416.1 329.9 410.7 335 404.6C336.6 402.7 339.1 401.4 341.8 400.2C345.5 398.6 355.3 382.6 356.6 381.3C358.7 379.2 361.3 377.5 364.2 375.9C368.5 373.7 368.1 363.3 370 359.7C370.7 358.4 372.3 357.4 373.5 356.2C374.6 355.2 375.7 354.2 376.7 353.2C377.3 352.6 378.1 351.9 378.1 351.3C378.3 346.8 383.2 343.5 384.2 339.1C384.9 335.6 384.6 332.3 383.9 329C383.6 327.7 383.4 326.6 384.5 325.4C385.3 324.5 386 323.4 386.1 322.4C386.6 317.7 387.9 313 386.3 308.3C385.6 306.4 385.2 304.4 386 302.4C387.1 299.9 386.5 297.4 385.3 294.9C384.5 293.4 383.9 291.8 383.5 290.2C383.3 289.4 383.2 288.3 383.7 287.6C387.2 282.9 386.2 277.9 384.5 273.3C382.8 268.6 383.6 264.3 385.5 260C386.4 257.9 387.5 255.9 388.4 253.8C389.5 251.2 390.1 248.6 390.6 246C391.4 246 392.2 246 393 246.1C394.7 246.1 396.6 246.1 398.2 246.5C405.1 248.3 412.7 248.2 419.5 250.3C421 250.7 423.2 250.7 424.6 250.3C431 248.3 437.5 248.5 444.1 249.3C446.5 249.6 448.8 250.5 451.2 250.5C453.5 250.5 455.9 249.7 458.2 249.4C459.2 249.2 460.3 249.3 461.3 249.2C466.2 249.1 471.1 248.8 475.9 249C476.2 249 476.4 249 476.7 249V1.3C475.2 1.3 473.5 1.5 472.2 1.1C470.3 0.5 468.4 0.2 466.5 0H456.7C456.3 0 455.9 0 455.5 0" fill="#211D20"/>
</g>
<defs>
<clipPath id="clip0_574_3986">
<rect width="476.6" height="476.2" fill="white"/>
</clipPath>
</defs>
</svg>
