<svg width="477" height="476" viewBox="0 0 477 476" fill="none" xmlns="http://www.w3.org/2000/svg">
<g clip-path="url(#clip0_574_3998)">
<path d="M474.4 470.2C475.1 464.6 475.3 450.1 473.8 447.8C470.8 443.1 472.7 440.2 473.1 435.4C473.2 433.6 473.1 426.5 473.1 424.6C473.1 421.9 470.5 412.8 473.1 410.2C475.3 407.9 473.2 401.1 471.5 398.7C469.5 396 472.3 390.8 471.7 388.1C471.5 387 471.5 385.8 470.8 384.7C467.3 379.5 471.3 373.5 474.2 368.3C474.8 367.1 474.6 366 472.8 365.1C470 363.6 469.4 361.9 469.6 360C469.9 356.8 469.3 353.7 469.1 350.5C469.1 349.8 472.4 334.1 472 333.5C471.2 332 469.6 330.4 469.6 328.9C469.6 327.4 471.5 325.9 472.1 324.3C473.9 320 474.4 315.8 470 311.6C469 310.7 469.1 309.2 470 308.3C474.4 303.9 467.6 292.8 471.5 288.3C472.4 287.3 472.2 286.1 472.3 284.9C472.9 280.4 471.6 262.8 472.3 258.3C472.4 257.4 473.4 256.6 473.9 255.7C474.3 255.1 475 254.3 474.6 253.8C471.9 250.1 473.7 246.1 470.8 242.4C470.2 241.6 470.1 240.6 470.5 239.7C471.8 236.8 471.8 233.9 472.4 231C473 228.3 471.6 219.3 472.7 217.6C474.8 214.3 473.6 210.8 473.9 207.4C474.1 205.1 473.6 202.9 473.7 200.6C473.7 198.6 474.3 196.5 474.6 194.6C473.4 194 472.3 193.5 471.4 193C469.7 192 468.9 190.9 470.3 189.8C472.1 188.3 472.6 186.9 471.8 185.2C470.9 183.4 471 181.6 470.7 179.8C469.9 175.3 471.9 162.1 471.2 157.5C470.8 155 472.6 141.8 472.5 139.3C472.5 136.8 472.5 134.3 472.5 131.8C472.5 129.3 472.9 126.9 474.2 124.4C476.2 120.6 476.8 116.8 473.7 113C472.8 112 472.8 110.8 472.7 109.7C472.5 107.4 475.4 98.8 474.6 96.6C473.2 92.5 470.7 91.4 473.1 87.4C474.7 84.7 474.8 82 473.1 79.3C472.2 78 472.7 76.6 472.1 75.3C470.9 72.6 470.6 70.1 473.8 67.5C475.4 66.2 475.3 64.4 475.9 62.9C475.9 62.7 475.9 62.5 475.9 62.3C475.9 62 475.8 61.7 475.4 61.6C475 61.2 474.5 60.8 473.8 60.5C473.8 60.5 473.8 60.5 473.7 60.5C472 58.6 471 41.2 473.3 38.5C473.7 38.1 473.4 37.5 473.3 37C473.1 35.3 473.1 33.7 474.3 32.1C474.9 31.3 474.5 30.5 473.6 29.7C473.1 29.2 472.6 28.8 472.1 28.3C470.7 27 470.8 7.4 472.3 6.2C472.8 5.8 473.4 5.3 474 4.9C475.4 3.8 475.1 2.7 473.7 1.6C473.6 1.5 473.4 1.4 473.3 1.2L238.2 105.9L0.999984 0C-1.60002 1.2 1.39998 3.4 2.09998 5.1C1.39998 10.7 1.19998 25.2 2.69998 27.5C5.69998 32.1 3.79998 35.1 3.39998 39.9C3.29998 41.7 3.39998 48.8 3.39998 50.7C3.39998 53.4 5.99998 62.5 3.39998 65.1C1.19998 67.4 3.29998 74.2 4.99998 76.5C6.99998 79.2 4.19998 84.4 4.79998 87.1C4.99998 88.2 4.99998 89.4 5.69998 90.5C9.19998 95.7 5.19998 101.7 2.29998 106.9C1.69998 108.1 1.89998 109.2 3.69998 110.1C6.49998 111.6 7.09998 113.3 6.89998 115.2C6.59998 118.4 7.19998 121.5 7.39998 124.7C7.39998 125.4 4.09998 141.1 4.49998 141.7C5.29998 143.2 6.89998 144.8 6.89998 146.3C6.89998 147.8 4.99998 149.3 4.39998 150.9C2.59998 155.2 2.09998 159.4 6.49998 163.6C7.49998 164.5 7.39998 166 6.49998 166.9C2.09998 171.3 8.89998 182.4 4.99998 186.9C4.09998 187.9 4.29998 189.1 4.19998 190.3C3.59998 194.8 4.89998 212.4 4.19998 216.9C4.09998 217.8 3.09998 218.6 2.59998 219.5C2.29998 220.1 1.49998 220.9 1.89998 221.4C4.59998 225.1 2.79998 229.1 5.69998 232.8C6.29998 233.6 6.39998 234.6 5.99998 235.5C4.69998 238.4 4.69998 241.3 4.09998 244.2C3.49998 246.9 4.89998 255.9 3.79998 257.6C1.69998 260.9 2.89998 264.4 2.59998 267.8C2.39998 270.1 2.89998 272.3 2.79998 274.6C2.79998 276.6 2.19998 278.7 1.89998 280.6C3.09998 281.2 4.19998 281.7 5.09998 282.3C6.79998 283.3 7.59998 284.4 6.19998 285.5C4.39998 287 3.89998 288.4 4.69998 290.1C5.59998 291.9 5.49998 293.7 5.79998 295.5C6.59998 300 4.59998 313.2 5.29998 317.8C5.69998 320.3 3.99998 333.5 3.99998 336C3.99998 338.5 3.99998 341 3.99998 343.5C3.99998 346 3.59998 348.4 2.29998 350.9C0.399984 354.7 -0.300016 358.5 2.79998 362.3C3.69998 363.3 3.69998 364.5 3.79998 365.6C3.99998 367.9 1.09998 376.5 1.89998 378.7C3.29998 382.8 5.79998 383.9 3.39998 387.9C1.79998 390.6 1.69998 393.3 3.39998 396C4.29998 397.3 3.79998 398.7 4.39998 400C5.59998 402.7 5.89998 405.2 2.69998 407.8C1.09998 409.2 1.19998 410.9 0.599984 412.5C0.599984 412.7 0.599984 412.9 0.599984 413.1C0.599984 413.4 0.699984 413.7 1.09998 413.8C1.49998 414.2 1.99998 414.6 2.69998 414.9C2.69998 414.9 2.69998 414.9 2.79998 414.9C4.49998 416.8 5.49998 434.2 3.19998 436.9C2.79998 437.3 3.09998 437.9 3.19998 438.4C3.39998 440.1 3.39998 441.7 2.19998 443.3C1.59998 444.1 1.99998 444.9 2.89998 445.7C3.39998 446.1 3.89998 446.6 4.39998 447.1C5.79998 448.4 5.69998 468 4.19998 469.2C3.69998 469.6 3.09998 470.1 2.49998 470.5C1.09998 471.6 1.39998 472.7 2.79998 473.8C2.89998 473.9 3.09998 474 3.19998 474.1L238.3 369.4L475.6 475.1C478.1 473.9 475.2 471.7 474.5 470" fill="#211D20"/>
</g>
<defs>
<clipPath id="clip0_574_3998">
<rect width="476.5" height="475.3" fill="white"/>
</clipPath>
</defs>
</svg>
