<svg width="477" height="477" viewBox="0 0 477 477" fill="none" xmlns="http://www.w3.org/2000/svg">
<g clip-path="url(#clip0_574_3982)">
<path d="M452.4 475.6C454.2 471.1 456.3 467.1 459 463.8C460.6 461.7 462.1 459.4 463.1 456.4C463.8 454.2 464.6 452 465.3 449.9C466 448 466.9 446.4 468.2 445.3C468.8 444.8 469.5 444.1 469.7 443.2C470.3 441.3 470.7 439.3 471.2 437.3C471.5 436.3 471.8 435.4 472.1 434.4C472.9 431.9 473.9 429.7 474.6 427.1C475.4 423.8 475.8 420.3 476.4 416.9C476.9 413.9 476.6 411.2 475.9 408.4C475.3 406.1 474.4 404.1 473.3 402.2C470.6 397.4 469 391.9 468.8 385.5C468.8 383.6 468.5 381.9 467.7 380.3C465.8 376.3 463.9 372.4 462 368.4C460.8 365.8 459.5 363.1 458.4 360.5C457.4 358.2 456.4 356 455 354.1C453.3 351.9 451.5 349.7 450.3 346.9C448.6 343.2 446.3 340.9 444 338.5C442 336.5 440.3 334.1 439.1 331C437.5 327 435.6 323.5 433.4 320.3C432.7 319.4 432 318.6 431.3 317.6C430.5 316.3 429.6 315 428.9 313.5C427.8 310.9 426.5 308.6 424.6 307.2C423.7 306.5 422.9 305.5 422.5 304C422 302 421.3 300.6 419.9 299.8C419.6 299.6 419.4 298.9 419.1 298.4C418.9 298 418.6 297.5 418.4 297C417.2 294.1 416.3 291.1 414.6 288.8C414.1 288.1 413.8 287 413.7 286C413.3 283.2 412.3 281 411 278.9C410.3 277.8 409.8 276.4 409.5 275C408.6 269.4 406.9 264.8 403.9 261.3C403.1 260.3 402.8 259.2 403.1 257.7C403.2 257 403.3 256.3 403.3 256.4C402.6 253.7 402.1 251.7 401.5 249.8C401.1 248.6 400.8 247.2 400.2 246.2C399.3 244.6 398.9 242.8 398.6 240.9C398.4 239.3 398.1 237.6 397.9 235.9C397.6 235.9 397.3 235.9 397 235.7C396 235.3 395.7 234.4 396.2 233.1C396.4 232.5 396.8 232 397.1 231.4C394.9 228.6 394.4 227.5 394.1 224.6C393.9 222.9 394.3 222.2 395.5 221.7C395.9 221.6 396.3 221.6 396.6 221.5C395.5 219.5 394.4 217.6 393.3 215.6C393.1 215.1 392.8 214.6 392.7 214C391.7 207.7 389.5 202.2 387.7 196.4C387.1 194.6 386.4 192.8 386.1 191C385.4 186.3 383.5 182.4 382.5 177.9C382.4 177.2 382.1 176.4 381.7 176C380.2 174.6 379.7 172.4 378.9 170.2C377.7 166.5 376.4 163 373.9 160.7C372.7 159.6 371.6 157.6 370.9 155.7C369.9 152.8 368.5 151 366.6 149.5C364.8 148 363.2 146.1 362.7 142.8C362.5 141.5 361.8 140.9 361 140.4C358 138.4 355.5 135.4 354.1 130.7C352.4 129.9 351.2 128.3 351.1 125.6C351 122.6 350 120.8 348.3 119.6C348 119.3 347.7 118.9 347.4 118.6C347.6 115.5 349.4 116.1 350.6 115.4C349.8 113 349.3 112.2 345.7 108.6C344.9 109.2 344.1 109.7 343.5 110.2C341.8 108.5 342.5 104.9 340.6 103.8C340.6 103.8 340.6 103.2 340.6 102.9C340.5 102.2 340.5 101.3 340.2 100.9C339.1 99.2998 338 97.7998 336.9 96.2998C336.5 95.7998 336.1 95.1998 336.1 94.4998C335.9 92.5998 335 91.5998 334.1 90.5998C333.4 89.7998 332.5 89.0998 331.8 88.2998C330.8 87.1998 329.7 86.1998 329 84.7998C327.4 81.8998 325.7 78.8998 324.5 75.5998C323 71.4998 320.9 68.1998 319.2 64.3998C318 61.6998 316.8 59.0998 315.8 56.2998C314 51.0998 311.6 46.4998 308 43.7998C306.3 42.4998 304.5 41.3998 302.8 39.9998C299.4 37.2998 295.7 35.3998 292.8 31.3998C292.5 30.9998 292.1 30.7998 291.8 30.3998C289.5 27.7998 286.8 26.4998 284.5 23.9998C282.8 22.0998 281 20.1998 278.8 19.6998C278.1 19.4998 277.4 19.2998 276.8 19.0998C276.5 17.4998 276.3 16.1998 276 14.8998C275.6 13.4998 274.9 13.2998 273.8 13.9998C273.6 14.0998 273.4 14.1998 273.3 14.2998C273.1 14.0998 273 13.9998 272.8 13.7998C271 10.9998 269 8.69982 266.4 8.09982C265.6 7.89982 264.8 7.29982 264.2 6.49982C262 3.49982 259.4 2.09982 256.6 0.899816C254 -0.200184 253.2 -0.100184 253.1 4.19982C253.1 6.19982 252.7 7.89982 252.1 9.39982C252.1 9.39982 252.2 9.49982 252.3 9.59982C252.3 9.59982 252.1 9.69982 252.1 9.79982C251.5 11.2998 250.6 12.5998 249.5 13.7998C247.3 16.0998 244.7 17.7998 243.3 21.5998C243.3 21.6998 243.1 21.7998 243 21.8998C242 22.5998 241.4 24.0998 240.6 25.2998C239.4 27.0998 238.1 28.8998 236.6 30.0998C235.7 30.7998 234.9 31.5998 234.1 32.4998C231.7 35.3998 229.8 38.9998 228.1 42.7998C227.4 44.2998 226.8 45.9998 225.9 47.1998C223.3 51.0998 221.1 55.3998 219.5 60.4998C218 65.0998 215.7 68.3998 212.8 70.7998C211.5 71.8998 210.5 73.0998 209.6 74.8998C208.7 76.7998 207.8 78.6998 206.6 80.0998C203.3 84.3998 200.1 88.8998 197.2 93.7998C196.7 94.5998 196.1 95.1998 195.6 95.8998C194.6 97.2998 193.4 97.9998 192 97.9998C190.4 97.9998 188.8 98.6998 187.2 98.8998C186.5 98.8998 185.8 98.8998 185.1 98.6998C184.4 98.5998 183.7 97.8998 183.1 98.0998C179.8 99.0998 176.4 98.8998 173.2 100.8C173.1 100.8 172.9 100.6 172.7 100.5C172.5 99.7998 173.3 99.0998 172.5 98.1998C172.2 98.2998 171.7 98.4998 171.2 98.6998C170.4 98.9998 169.7 99.4998 168.9 99.6998C166.6 100.2 164.2 99.6998 162 100.8C161.5 101 161 100.8 160.5 100.6C159.1 100.1 157.7 100.2 156.3 101.2C155.8 101.5 155.3 101.6 154.8 101.7C151.7 102.3 148.6 103.1 145.4 103.4C142.6 103.7 139.7 103.8 136.9 103.2C133 102.4 129.2 102.6 125.5 104.6C124.3 105.2 123.2 105.4 121.9 104.9C121 104.6 120.1 104.7 119.2 104.6C118.6 104.6 117.9 104.9 117.4 104.6C115.8 103.5 114.3 103.8 112.6 104.2C111.6 104.4 110.6 104.2 109.6 104C109.1 104 108.6 103.7 108.1 103.9C106.5 104.3 105.1 103.7 103.7 102.8C102.9 102.3 102 102 101.1 101.8C99.1 101.5 97.1 101.3 95 101.1C94.4 101.1 93.8 100.8 93.2 101.1C91.1 102 89 101.8 87 100.5C85.8 99.6998 84.8 100.1 84 101.6C83.7 102.2 83.5 102.9 83.4 103.7C83 106.1 82.3 108.2 81.3 110.3C79.5 114.1 78.1 118.1 77.7 122.8C77.4 126.5 76.5 129.9 75.5 133.3C75.1 134.7 74.6 136.1 74.4 137.6C73.5 143.2 71.5 148 69.4 152.6C68.4 154.9 67.6 157.1 67.6 159.8C67.6 161.3 67.3 162.4 66.9 163.7C65.8 167.4 64.4 171.1 63.9 175.2C63.5 178.1 63.3 180.9 63 183.8C62.7 187 62.4 190.1 60.9 192.7C60.6 193.2 60.5 194.1 60.3 194.8C59.9 197.3 58.9 199.2 57.5 200.6C57.1 201 56.7 201.6 56.3 202C55.5 202.9 55 204.1 55 205.5C55 207.5 54.6 209 54 210.7C53.7 211.8 53.4 213 53.3 214.2C53.2 217 52.4 219.3 51.2 221.2C49.6 224.1 48.7 227.4 48.2 231.1C47.8 234.6 46.9 237.9 45.4 240.7C44.8 241.7 44.5 243.1 44.2 244.4C43.6 246.7 43.3 249.1 42.7 251.4C41.3 256.7 40.2 262.1 38.2 266.9C37.1 269.5 36.2 272.2 35.5 275.1C34.9 277.4 34.5 279.7 33.6 281.8C32.8 283.7 32 285.7 31.3 287.7C30.8 289 30.4 290.5 30.2 291.9C29.7 295.9 28.7 299.5 26.6 302.4C27.1 305.7 26.3 308.4 25.3 311.2C24.8 312.7 24.3 314.2 24.1 315.9C23.6 319.5 23.4 323.2 22.2 326.4C22.1 326.8 22.1 327.3 22 327.8C21.7 334.2 20.8 340.5 19.6 346.7C19.3 348.5 18.8 350.2 18.7 352C18.2 357.7 16.7 362.9 15.4 368.2C15 369.7 14.8 371.1 14.8 372.6C14.9 376.9 14 380.9 12.7 384.4C11.2 388.3 10.3 392.5 9.2 396.6C8.7 398.3 8.3 400 8 401.8C7.1 408.7 5.6 415.4 5.4 422.5C5.4 422.9 5.3 423.4 5.2 423.8C4.4 427.6 3.6 431.4 2.8 435.2C1.9 439.7 1.6 444.5 0.400002 449C0.100002 450.2 0.400002 451.4 1.2 452.2C2.1 453 3 453.7 3.9 454.4C5.4 455.6 7 456.6 8.5 457.9C9.4 458.6 10.3 459.5 10.8 460.7C11.6 462.7 12.5 464.5 13.9 465.6C14.4 466 14.6 467.1 15 467.7C16.7 470.3 18.4 473 20.2 475.3C20.6 475.9 21.1 476.3 21.6 476.9H452.3C452.4 476.6 452.6 476.2 452.7 475.9" fill="#211D20"/>
</g>
<defs>
<clipPath id="clip0_574_3982">
<rect width="476.6" height="476.6" fill="white"/>
</clipPath>
</defs>
</svg>
