<svg width="477" height="477" viewBox="0 0 477 477" fill="none" xmlns="http://www.w3.org/2000/svg">
<g clip-path="url(#clip0_574_4006)">
<path d="M476.5 153.4C476.4 150.6 475.9 149.8 472.5 150.7C469.1 151.6 466.2 151.1 463.4 149.4C460.7 147.8 458.3 145.6 454.7 145.1C454.6 145.1 454.5 145 454.4 144.9C453.4 144 452 143.8 450.7 143.3C448.8 142.5 446.8 141.7 445.3 140.5C444.4 139.8 443.4 139.1 442.4 138.6C439.1 136.9 435.5 135.9 431.7 135.2C430.2 134.9 428.7 134.7 427.3 134.2C423.1 132.6 418.8 131.5 414.1 131.1C409.8 130.8 406.3 129.2 403.2 127C401.8 126 400.4 125.3 398.6 124.9C396.8 124.5 394.9 124 393.2 123.3C388.4 121.1 383.6 119 378.5 117.4C377.7 117.1 377 116.7 376.2 116.3C374.7 115.6 373.7 114.7 373.1 113.3C372.4 111.7 371.3 110.3 370.5 108.7C370.2 108 370 107.3 369.9 106.6C369.7 105.9 369.9 105 369.6 104.4C367.5 101.4 366.3 98.0004 363.5 95.3004C363.4 95.2004 363.5 94.9004 363.5 94.7004C364 94.3004 364.9 94.9004 365.3 93.9004C365.1 93.6004 364.7 93.2004 364.4 92.8004C363.8 92.1004 363.2 91.5004 362.7 90.7004C361.4 88.5004 360.9 86.1004 359.1 84.1004C358.8 83.7004 358.7 83.1004 358.7 82.6004C358.6 81.0004 357.9 79.7004 356.6 78.6004C356.2 78.2004 355.9 77.7004 355.6 77.3004C353.9 74.3004 352 71.4004 350.6 68.4004C349.3 65.7004 348 62.8004 347.4 59.9004C346.6 55.8004 344.9 52.1004 341.9 48.9004C340.9 47.9004 340.3 46.8004 340.2 45.4004C340.2 44.5004 339.7 43.5004 339.4 42.6004C339.2 42.0004 338.6 41.4004 338.7 40.8004C339 38.9004 338.1 37.5004 337.1 36.0004C336.5 35.1004 336.4 34.0004 336.1 33.0004C335.9 32.5004 335.9 31.9004 335.6 31.5004C334.7 30.0004 334.6 28.5004 334.8 26.8004C334.9 25.9004 334.8 24.9004 334.5 23.9004C334 21.8004 333.3 19.8004 332.7 17.7004C332.5 17.1004 332.4 16.4004 332 15.9004C330.4 14.0004 329.8 11.9004 330.1 9.60039C330.3 8.20039 329.5 7.30039 328 6.90039C327.4 6.70039 326.7 6.70039 326.1 6.80039C324 7.00039 322 6.80039 320 6.30039C316.3 5.50039 312.4 5.00039 308.5 5.80039C305.4 6.40039 302.3 6.40039 299.2 6.30039C297.9 6.30039 296.6 6.10039 295.3 6.30039C290.4 6.80039 285.8 6.00039 281.2 5.10039C279 4.60039 276.9 4.40039 274.8 5.10039C273.6 5.50039 272.6 5.40039 271.4 5.40039C267.9 5.20039 264.5 4.80039 261 5.30039C258.6 5.70039 256.1 6.10039 253.7 6.60039C251 7.10039 248.4 7.60039 245.7 6.80039C245.1 6.60039 244.4 6.80039 243.8 6.80039C241.6 7.00039 239.7 6.50039 238 5.50039C237.5 5.20039 236.9 5.00039 236.4 4.70039C235.4 4.10039 234.2 3.90039 233.1 4.30039C231.6 4.90039 230.1 4.80039 228.5 4.60039C227.5 4.60039 226.4 4.60039 225.4 4.80039C223.1 5.40039 220.9 5.10039 218.9 4.50039C215.9 3.60039 212.9 3.50039 209.8 4.00039C206.8 4.40039 203.9 4.40039 201 3.60039C199.9 3.30039 198.7 3.30039 197.6 3.30039C195.5 3.30039 193.4 3.60039 191.4 3.60039C186.6 3.60039 181.8 3.80039 177.1 3.00039C174.6 2.60039 172 2.30039 169.4 2.40039C167.3 2.40039 165.3 2.50039 163.3 2.20039C161.4 1.90039 159.5 1.60039 157.6 1.40039C156.3 1.30039 155 1.10039 153.7 1.40039C150.3 1.90039 147 1.80039 143.9 0.400391C141.5 1.70039 138.9 1.60039 136.3 1.30039C134.9 1.20039 133.5 1.10039 132.1 1.30039C129 1.70039 126 2.50039 122.9 2.00039C122.5 2.00039 122.1 2.00039 121.7 2.20039C116.4 3.50039 111 4.20039 105.5 4.50039C103.9 4.50039 102.4 4.60039 100.8 4.90039C96 5.80039 91.2 5.70039 86.5 5.70039C81.8 5.70039 83.8999 5.70039 82.7 6.20039C79.2999 7.40039 75.7 7.50039 72.4 7.10039C68.7 6.60039 64.8999 6.80039 61.2 6.60039C59.7 6.60039 58.0999 6.60039 56.5 6.70039C50.5999 7.50039 44.5999 7.70039 38.7999 9.20039C38.3999 9.20039 38 9.20039 37.5999 9.30039C34.1999 9.40039 30.9 9.50039 27.5 9.70039C23.5 9.90039 19.5 10.8004 15.5 10.8004C14.4 10.8004 13.5 11.4004 13.3 12.4004C13 13.5004 12.8 14.5004 12.5 15.6004C12.2 17.4004 11.9 19.3004 11.5 21.1004C11.2 22.1004 10.9 23.3004 10.1 24.1004C8.79995 25.4004 7.69995 26.7004 7.29995 28.4004C7.19995 29.0004 6.39995 29.5004 5.99995 30.0004C4.59995 32.3004 2.99995 34.6004 1.89995 37.1004C1.49995 38.0004 1.29995 39.0004 0.699951 39.8004C0.199951 40.4004 -4.88162e-05 41.2004 -0.300049 41.9004C0.399951 42.3004 0.999951 42.7004 1.59995 43.0004C1.39995 44.0004 1.39995 45.0004 1.09995 45.9004C0.299951 47.8004 0.699951 49.6004 1.19995 51.3004C1.89995 53.5004 2.89995 55.5004 3.69995 57.6004C4.39995 59.4004 5.49995 61.2004 5.69995 63.0004C5.99995 66.3004 7.09995 69.2004 8.29995 72.3004C8.89995 73.9004 9.19995 75.6004 9.69995 77.3004C10.6 80.1004 11.7 82.7004 12 85.7004C12.2 87.8004 14 89.7004 14.2 92.0004C15.2 92.7004 15.3 93.8004 15.6 94.8004C15.9 95.9004 16.6999 96.9004 17.2999 98.0004C17.9 99.1004 18.8 100.2 19.2 101.4C19.9 103.2 20.4 105.1 20.9 107C21.4 109.3 22 111.6 23 113.8C24.2 116.5 25.3 119.2 25.1 122.2C25 123.5 25.4 124.8 25.6 126C26.2 128.6 27 131.2 27.4 133.8C28.1999 138.6 28.9 143.3 30.5 147.9C32 152.3 34 156.5 36.4 160.5C37 161.5 37.2999 162.4 37.5999 163.5C38.1999 166.1 38.8999 168.7 39.7999 171.2C40.7999 173.7 42.2 176.1 43.2999 178.6C43.7999 179.6 44 180.6 44.2999 181.7C44.7999 183.7 45 185.7 45.5999 187.7C46.5 190.2 47.8 192.7 48.9 195.1C49.7 196.9 50.5999 198.6 51.2999 200.5C52 202.3 52.8999 204.1 54.0999 205.7C55.8999 208 56.6 210.6 55.9 213.4C55.6 214.8 55.8999 215.9 56.7999 217C58.2999 219.1 59.6999 221.2 60.0999 223.7C60.0999 223.9 60.2 224.1 60.2999 224.3C61.5999 226.4 62 228.7 62 231.1C62 232.7 62.5999 234 63.5 235.3C64.2 236.4 64.8 237.6 65.3 238.8C65.8 239.9 65.5 240.9 64.6 241.8C65.7999 244.4 66.9 246.9 67.5 249.7C68.3 253.2 69.7 256.7 71.2 260.1C72.2999 262.6 73.1 265.2 74.2 267.6C75 269.5 75.9 271.4 76.8 273.2C77.3 274.3 77.9 275.4 78.1 276.5C78.6 279 79.7 281.2 81.1 283.3C81.9 284.5 82.6 285.8 83 287.1C84.4 291.6 85.5 296.2 86.9 300.8C87.8 303.6 89.2999 306.1 91.6 308.3C92.7999 309.5 93.9 310.8 94.9 312.1C96.3 314 97.4 316 98.8 317.9C100.3 319.9 101.3 322 101.5 324.5C101.5 325.2 101.5 326.1 102 326.7C104.1 330 104.8 334 107.7 337C108.5 337.8 108.8 338.9 109.2 339.9C111.1 343.9 113 348 114.9 352C115.3 352.9 115.9 353.7 116.7 354.4C118.3 355.7 119.2 357.3 119.7 359.1C120 360.1 120.7 361.1 121.3 361.9C123.1 364.2 124.8 366.6 125.3 369.4C125.4 370.1 126 370.7 126.3 371.4C127.2 373.3 128.3 375.1 128.9 377C129.3 378.4 129.9 379.6 130.9 380.7C133.1 383.5 134.8 386.4 134.6 389.9C134.6 390.4 134.8 391 134.8 391.5C135 393.2 135.4 394.9 136.7 396.3C137.2 396.9 137.4 397.6 137.7 398.3C138.2 399.5 138.5 400.8 139 401.9C140.1 404.2 141.3 406.4 142.4 408.6C143 409.9 143.5 411.2 143.6 412.6C143.7 413.7 144.3 414.8 144.8 415.9C145.5 417.4 146.2 418.8 146.9 420.3C147.5 421.7 148 423.1 148.7 424.5C150 426.9 150.9 429.4 151.3 432.1C151.8 434.8 152.2 437.6 154.2 439.9C154.8 440.6 155.2 441.7 155.2 442.6C155.2 444.3 155.6 445.7 156.7 447.1C157.1 447.7 157.1 448.5 157.2 449.3C157.5 452.7 157.8 456.1 159.4 459.3C159.8 460.1 160.1 460.9 160.3 461.7C160.5 462.4 160.3 463.1 160.4 463.9C159.8 464.1 159.5 464.2 159.1 464.3C158.7 464.4 158 464.3 158 465.1C159.8 465.1 161.6 465.1 163.3 465.4C165.3 465.6 167.3 466.1 169.3 466.4C173.6 467.1 177.7 468.2 181.4 470C183.7 471.1 186.1 472 188.9 472.2C191 472.3 193 472.6 195 472.8C196.8 473 198.5 473.5 199.8 474.5C200.4 475 201.3 475.4 202.1 475.5C203.9 475.7 205.7 475.5 207.5 475.5C208.4 475.5 209.3 475.5 210.1 475.7C212.4 475.9 214.6 476.3 217 476.3C220 476.3 222.9 475.8 225.9 475.5C228.5 475.2 230.6 474.3 232.5 472.9C234.1 471.7 235.4 470.3 236.5 468.8C239.4 464.9 243.1 462 248.2 460.1C249.7 459.6 251 458.9 252 457.7C254.5 454.8 256.9 451.9 259.4 449.1C261 447.2 262.7 445.4 264.4 443.5C265.8 441.9 267.3 440.4 268.2 438.5C269.3 436.3 270.4 434 272.2 432C274.5 429.4 275.5 426.6 276.5 423.6C277.3 421.2 278.6 418.9 280.6 416.9C283.2 414.4 285.3 411.6 287 408.6C287.5 407.7 287.9 406.8 288.4 405.9C289.1 404.7 289.8 403.5 290.8 402.5C292.5 400.7 293.8 398.9 294.2 396.6C294.4 395.5 294.9 394.4 296 393.7C297.4 392.7 298.3 391.6 298.4 390.1C298.4 389.7 298.9 389.3 299.2 389C299.5 388.7 299.8 388.3 300.1 388C301.9 386.1 304 384.4 305.2 382.2C305.5 381.6 306.3 381 307.1 380.6C309.2 379.5 310.6 378 311.8 376.2C312.4 375.3 313.3 374.3 314.4 373.8C318.5 371.6 321.6 368.7 323.2 364.8C323.7 363.7 324.4 363.2 325.8 363.1C326.4 363.1 327 363 327 363C328.9 361.6 330.3 360.6 331.7 359.6C332.6 358.9 333.5 358.2 334.1 357.4C335 356.1 336.3 355.2 337.8 354.5C339 353.9 340.2 353.2 341.5 352.5C341.5 352.2 341.3 351.9 341.3 351.6C341.3 350.4 341.8 350 343.1 350.1C343.7 350.1 344.3 350.4 344.8 350.5C346.2 347.6 346.9 346.9 349.1 345.9C350.4 345.3 351.1 345.4 351.9 346.6C352.1 346.9 352.3 347.3 352.5 347.7C353.7 346.1 354.8 344.5 356 343C356.3 342.6 356.7 342.3 357.1 342C361.8 339.4 365.4 335.9 369.4 332.6C370.6 331.6 371.8 330.4 373.2 329.7C376.7 327.8 379.1 325 382.4 322.9C382.9 322.6 383.4 322.1 383.6 321.6C384.1 319.8 385.7 318.7 387.2 317.4C389.7 315.3 392.1 313.1 392.9 310C393.3 308.5 394.5 306.9 395.8 305.7C397.7 304 398.7 302.1 399.2 299.9C399.7 297.7 400.6 295.7 403 294.3C404 293.8 404.2 292.9 404.3 292C404.7 288.5 406.2 285.3 409.4 282.7C409.4 280.8 410.2 279.2 412.3 278.4C414.7 277.5 415.7 276.1 416.1 274.1C416.1 273.7 416.4 273.3 416.6 272.9C419.2 272.3 419.4 274.3 420.4 275.3C422.1 273.9 422.5 273.2 424 268.8C423.2 268.2 422.5 267.5 421.8 267C422.5 264.9 425.7 264.7 425.8 262.5C425.8 262.5 426.3 262.5 426.5 262.3C427 262 427.7 261.8 428 261.4C428.9 259.9 429.6 258.4 430.4 256.9C430.7 256.4 431 255.9 431.5 255.6C432.9 254.9 433.4 253.8 433.9 252.7C434.3 251.8 434.5 250.8 434.9 249.9C435.4 248.7 435.8 247.3 436.6 246.2C438.3 243.9 440 241.4 442.3 239.4C445 236.9 446.8 234 449.2 231.3C450.9 229.5 452.5 227.6 454.4 225.9C457.9 222.8 460.6 219.3 461.5 215C461.9 213 462.1 210.9 462.5 208.9C463.3 204.9 463.4 200.7 465.6 196.8C465.8 196.4 465.8 196 466 195.5C467.2 192.6 467.2 189.6 468.4 186.6C469.2 184.5 470.1 182.2 469.7 179.9C469.6 179.2 469.5 178.5 469.4 177.8C470.6 177.1 471.6 176.6 472.5 175.9C473.5 175.2 473.4 174.4 472.4 173.5C472.2 173.4 472.1 173.2 471.9 173C471.9 172.8 472 172.6 472.2 172.4C473.8 169.9 474.8 167.4 474.3 164.6C474.1 163.8 474.3 162.8 474.7 162.1C476.3 159.2 476.4 156.2 476.3 153.2M470.6 158.7C470.6 158.7 470.4 158.6 470.4 158.5C470.4 158.3 470.5 158.2 470.6 158C470.6 158 470.8 158.1 470.8 158.2C470.8 158.4 470.7 158.5 470.6 158.7Z" fill="#211D20"/>
</g>
<defs>
<clipPath id="clip0_574_4006">
<rect width="476.6" height="476.2" fill="white"/>
</clipPath>
</defs>
</svg>
