<svg width="477" height="476" viewBox="0 0 477 476" fill="none" xmlns="http://www.w3.org/2000/svg">
<g clip-path="url(#clip0_574_4000)">
<path d="M476.2 476C475.8 470 474.9 464 473.3 458.2C472.2 454.1 470.9 450.1 469.8 446.1C467.5 437.6 466.5 429.3 468.6 420.1C470.7 411.1 471.8 401.3 467.6 392.2C467 390.8 467.1 388.7 467.4 387.1C467.9 384 468.6 380.9 469.6 377.9C471.1 373.1 471.8 368.3 470.5 363.4C469.5 359.5 470 355.7 470.8 351.9C472.8 342.8 471.1 333.6 470.5 324.5C470.4 322.5 469.6 320.3 468.6 318.6C467.3 316.3 467.5 314.3 467.9 311.7C468.9 305.2 469.2 298.7 468.3 292C467.2 283.4 461.1 277 460.9 268.2C460.9 266.9 459.9 265.6 459.1 264.5C457.9 262.5 456.5 260.5 455.2 258.6C453.7 256.4 451.7 254.3 450.9 251.8C448.6 244.9 444.4 239.8 439.2 235.5C435.6 232.6 432.5 229.2 429.9 225.1C428.4 222.6 425.7 221 423.5 219.2C422.3 218.2 420.8 217.4 419.5 216.4C415.1 212.9 411 209.1 406.4 206C403.1 203.7 400 201.2 398.1 197.5C391.9 185.6 383.9 175.1 376.3 164.3C374.2 161.3 372.7 157.7 370.8 154.5C368.7 151 366.4 147.6 364 144.4C361.4 140.9 358.5 137.7 355.6 134.4C353.6 132.1 351.7 129.7 349.5 127.8C346.6 125.4 344.6 122.4 342.9 118.9C339.5 112.1 336.5 105.1 330.8 100.2C329.1 98.7997 327.8 96.3997 327.1 94.0997C325.7 89.4997 322.8 86.3997 319.6 83.3997C317.4 81.3997 315.2 79.2997 313.4 76.8997C310.3 72.9997 306.6 70.7997 302.2 69.4997C292.4 66.5997 283.5 60.9997 274.4 56.0997C265.9 51.4997 257.5 45.9997 248.5 43.0997C236.6 39.2997 225 34.8997 213.5 29.8997C209.7 28.1997 205.7 26.8997 201.7 25.8997C190.4 23.0997 160.2 17.1997 157.5 16.2997C150.6 13.8997 143.7 11.3997 136.7 9.1997C132.5 7.8997 128 7.5997 123.8 6.0997C117.5 3.7997 111.2 1.9997 104.5 2.3997C102.7 2.3997 100.8 1.8997 99 1.2997C92.4 -0.900296 85.6 0.0997036 79.4 1.7997C73.8 3.2997 68.3 4.5997 62.7 4.3997C58.4 4.1997 54.7 5.2997 50.9 7.5997C45.3 10.8997 38.6 0.199704 32.9 3.1997C29.9 4.7997 27 4.8997 23.7 4.3997C16.9 3.3997 9.9 3.1997 3.3 6.3997C2.3 6.8997 1.2 6.8997 0 6.8997V476.1H476.2V476Z" fill="#211D20"/>
</g>
<defs>
<clipPath id="clip0_574_4000">
<rect width="476.2" height="476" fill="white"/>
</clipPath>
</defs>
</svg>
