<svg width="475" height="473" viewBox="0 0 475 473" fill="none" xmlns="http://www.w3.org/2000/svg">
<g clip-path="url(#clip0_574_4010)">
<path d="M475 0.600251C473.2 0.900251 471.3 1.10025 469.4 0.100251C468.2 -0.499749 466.9 0.400251 466.1 1.50025C465.2 2.70025 465.2 4.50025 463.1 4.80025L463.4 5.00025C463.2 6.50025 463.6 8.10025 462 9.20025C461 9.90025 459.4 9.90025 458.9 11.6003C458.9 13.4003 458.9 15.6003 458.9 17.7003C458.8 20.1003 457.4 21.7003 454.9 22.5002C453.3 23.0002 451.8 23.6003 450.2 24.1003C448.7 24.6003 446.8 23.7003 445.6 25.1003C445.6 27.4336 444.4 30.1003 442 33.1003C443 36.0003 443.2 39.1003 445.6 41.5003C445.9 41.8003 445.8 42.8003 445.5 43.2003C443.9 45.2003 442 46.8003 439 46.0003C439 46.6003 439 47.2003 439 47.8003C439 49.3003 439.6 50.9002 438.1 52.1003C436.3 53.7002 434.3 54.6003 431.7 54.1003C431.1 54.0003 430.4 54.2003 429.7 54.3003C427.7 58.1003 425.7 62.0003 423.5 65.8003C422.7 67.1003 421.5 68.5003 420.1 69.1003C416.8 70.4003 414.9 72.9003 413.1 75.5003C412.2 76.8003 411.7 78.3003 410.3 79.3003C407.7 81.2003 404.5 82.6003 404.1 86.2002C404.1 86.5003 403.8 86.8003 403.5 86.9003C399.3 87.8003 397.8 90.6003 397 94.2002C396.8 94.9002 395.7 95.6003 394.9 96.1003C393.1 97.2002 392.2 98.8002 391.5 100.6C391 102 390.6 103.5 390.1 105.2C388.1 105.7 386.2 106.1 384.3 106.8C382.4 107.5 380.7 108.5 378.9 109.2C377.7 109.7 376.3 109.9 375 110.2C372.1 110.9 369.1 111.5 366.3 112.5C364.8 113 363.1 113.9 362.2 115.1C359.8 118.1 356.3 120 353.2 122.5C353.2 123.4 353.5 124.3 353.4 125.2C352.7 129.6 350.7 133.4 346.5 135.9C345.1 136.7 343.5 137.3 342.6 138.7C341.2 140.9 339.5 142.4 336.3 142.6C333.6 142.8 331.4 144.6 329.6 146.5C327.2 149 324.6 151.4 323.1 154.3C323.1 155.5 323.1 156.4 323.1 157.3C323.3 161.1 322.2 164.5 319.7 167.7C317.3 170.8 314.6 173.3 311.1 175.3C309.5 176.2 307.1 176.5 306.5 178.6C306.5 178.9 306.5 179.3 306.5 179.5C307.7 181.5 308.1 183.5 306.5 185.5C302.8 189.9 300 194.9 295.8 198.9C294.5 200.2 294 202.2 292.6 203.4C286.9 208.3 282.6 212.6 278.5 218.5C276.8 220.9 275 222.9 271.6 223.5C268.4 224 266.2 227.1 262.5 227C261.9 227 260.9 228.2 260.7 228.9C260.2 230.8 259.4 232.3 257.7 233.5C254.3 236 250.8 238.4 247 240.4C241.5 243.4 236.2 246.6 232.1 251.3C230.3 253.4 227.7 255 225.5 256.8C224.7 258.7 226.2 260.4 226.3 262.2C226.3 263.4 226.3 264.6 226.1 265.8C225.9 267 224.4 268.2 223.3 268.1C218.9 267.7 214.6 267.2 210.2 266.8C208.8 266.7 206.9 267.9 206.5 269.4C206.2 270.3 206 271.2 206.1 272.1C206.3 273.3 206.9 274.5 207.1 275.7C207.3 277 206.8 278.2 205.5 278.8C203.1 279.9 200.8 281.1 198.3 282.1C195.5 283.2 192.6 284.1 189.5 285.1C189.5 286.8 189.8 288.8 189.2 290.4C188.4 292.5 187.6 294.3 187.9 296.6C188 297.4 187.4 298.4 186.8 299C183.3 302.4 180.1 305.9 178.6 310.5C176.8 312 175.7 313.4 176.8 316C177.9 318.6 176.8 320.7 173.7 321.9C172.6 322.3 172.6 323.1 173.4 324.2C176.2 327.8 176.3 328 172.9 330.7C173.2 335.5 170.1 338.8 166.9 341.9C164.6 344.1 160.9 344.7 159.5 347.9C159.2 348.6 157.9 348.9 157 349.3C155.4 349.8 154 350.5 153 351.9C151.5 353.9 149.4 355.6 148.7 358.1C148.3 359.7 147 360.8 145.3 361.2C139.9 362.5 136.9 366 134.6 370.3C133.1 373 131.8 375.9 128.1 377C127.4 377.2 126.9 378.4 126.6 379.2C124.6 384.6 121.6 389.3 115.4 391.6C112.4 392.7 110.4 394.8 109.8 397.8C109 401.3 105.2 403 104 406.4C103.6 407.5 102.4 408.4 101.6 409.3C98.8001 412.4 95.4001 415 91.3001 416.5C89.2001 417.3 88.1001 418.6 87.2001 420.3C86.6001 421.4 86.2001 422.5 85.7001 423.5C82.5001 424.5 79.5001 425.2 76.7001 426.2C73.5001 427.4 70.2001 427.9 66.8001 428.1C65.8001 428.1 64.7001 428.4 64.0001 429C59.5001 432.9 54.0001 435.2 48.3001 437.2C47.7001 437.4 47.2001 438 46.7001 438.3C45.1001 439.2 44.8001 440.5 44.8001 442.2C44.8001 445 43.4001 446.1 40.5001 446.2C37.5001 446.3 34.5001 446.4 31.4001 446.7C30.4001 446.7 29.6001 447.5 29.3001 448.5C29.2001 449.1 29.2001 449.7 29.0001 450.3C28.6001 451.7 27.5001 452.7 26.3001 452.6C24.0001 452.4 21.6001 452.1 19.3001 452C18.3001 452 17.2001 452 16.3001 452.3C12.9001 453.6 9.10009 454.5 6.3001 456.5C2.6001 459.2 -0.199905 462.9 0.300095 467.7C0.500095 469.4 0.700095 471.1 0.500095 472.7H475.2V0.600251H475Z" fill="#211D20"/>
</g>
<defs>
<clipPath id="clip0_574_4010">
<rect width="475" height="472.9" fill="white"/>
</clipPath>
</defs>
</svg>
