<svg width="477" height="477" viewBox="0 0 477 477" fill="none" xmlns="http://www.w3.org/2000/svg">
<g clip-path="url(#clip0_574_4012)">
<path d="M474.7 448.8C474.6 448 474.2 447.1 474.6 446.4C475.6 444.5 474.5 442.8 474.1 441C473.7 439 472.7 437.1 472.1 435.1C471.8 434.3 472.3 433.4 473.2 433.1C475.5 432.4 475.9 430.9 475.6 429.2C475.4 427.8 475.1 426.3 475.8 425C476.6 423.4 476.5 421.9 476.2 420.2C475.7 418 475.4 415.8 475 413.6C474.7 412.2 474.6 410.7 473.9 409.4C473.2 408 473 406.7 473.3 405.2C473.5 404.2 473.6 403.2 473.7 402.2C474.1 400 474.2 397.8 472.8 395.7C471.8 394 472 392.2 472.8 390.3C473.5 388.6 474 386.8 474.6 385C475.3 383 475.4 381.1 473.8 379.2C473 378.3 472.5 377 472.2 375.8C471.8 374.2 471.5 372.6 471.6 370.9C471.7 368.2 471.3 365.6 470.5 363C470.3 362.4 470.2 361.8 470.1 361.2C469.8 356.3 469.6 351.5 469.3 346.6C470 345.4 469.3 344.4 468.7 343.2C467.4 340.4 466.1 337.4 466.6 334.3C467.4 329.1 466.6 324.2 464 319.4C463.7 318.9 463.5 318.2 463.5 317.7C463.2 311.6 462.9 305.5 462.8 299.4C462.8 297.3 462.5 295.3 461.2 293.5C459.7 291.5 459.3 289.3 459.4 287.1C459.4 285.5 459.7 283.8 459.9 282.2C460.2 280.6 459.9 279.1 459.1 277.5C457.8 275.1 457 272.6 458.2 269.8C458.9 268.3 458.3 266.6 457.4 265C457.1 264.5 456.8 263.9 456.4 263.4C454.4 260.1 453.1 256.7 452.2 253C451.3 249.4 449.6 246 448.3 242.5C448.1 241.9 448.1 241.3 448.1 240.7C448.1 238 447.3 235.5 445.8 233.1C445 231.9 445.4 230.7 446.3 229.7C446.9 229 447.5 228.4 448 227.7C448.8 226.6 448.7 225.4 448 224.2C447.8 223.8 447.4 223.5 447.1 223.2C445.5 221.6 445.8 219.8 446.6 218C446.9 217.4 447.3 216.9 447.8 216.4C449.2 215 449.3 213.5 448.7 211.8C446.9 206.4 446.9 201 449 195.6C449.3 194.8 449.4 194 449.7 193.2C450.3 191.6 450.3 190 449.7 188.4C449 186.4 448.5 184.5 448.8 182.4C449.1 180.6 448.4 178.8 447.7 177C447.1 175.7 446.4 174.3 446.3 172.9C446.3 170.1 445.1 167.8 442.8 165.8C441.3 164.5 441.1 162.9 441.5 161.2C442.1 158.8 442.7 156.4 443.2 154.2C442.7 153.5 442.3 152.9 441.9 152.4C440.8 151 440.1 149.5 440.7 147.8C441.7 144.9 441.1 142.1 440.1 139.4C439 136.4 438.5 133.4 438.3 130.4C438.1 127.8 438.2 125.1 436.8 122.6C436.4 121.9 436.3 121 436.4 120.2C436.5 116.7 435.2 113.3 434.2 110C433.5 107.4 432.4 105 432.8 102.2C432.8 101.4 432.4 100.6 432.1 99.9002C431.7 98.5002 431.3 97.1002 430.9 95.8002C430.6 94.8002 430.7 93.8002 431.6 93.0002C432.8 92.0002 432.9 90.8002 432.2 89.6002C431.3 88.1002 431 86.5002 430.5 84.9002C430.1 83.7002 429.9 82.4002 429.1 81.5002C427.3 79.4002 426.8 77.0002 426.7 74.6002C426.5 71.8002 425.6 69.0002 426.3 66.1002C426.6 64.9002 426.1 63.7002 425 62.7002C423.4 61.4002 422.2 59.9002 421.3 57.9002C422 55.4002 422.2 52.5002 421.8 49.7002C421.6 48.1002 421.8 46.4002 421.8 44.8002C421.6 39.9002 421.5 35.0002 421.3 30.1002C421.3 28.8002 420.7 27.7002 419.8 26.7002C419.2 26.0002 418.7 25.4002 418.1 24.7002C418.6 20.4002 419 16.2002 419.7 11.9002C420.1 9.50019 419.7 7.6002 417.3 5.9002C416.1 5.1002 415.6 3.5002 414.8 2.2002C414.4 1.5002 414 0.700195 413.6 0.000195324C413.6 -0.0998047 413.2 -0.299805 413 -0.299805C412.5 -0.299805 411.8 -0.199805 411.7 0.000195324C411.2 0.900195 410.9 1.9002 410.6 2.9002C410.2 4.0002 408.9 4.2002 407.9 3.5002L0 456.2C0.1 456.2 0.2 456.3 0.3 456.4C0.8 456.9 1.4 457.2 1.7 457.8C3.1 460.3 6.3 461.4 8.2 463.5C8.5 463.8 9.6 463.8 10.3 463.7C11.1 463.7 11.6 463.2 11.8 462.5C12 461.3 12.1 460.1 12.4 458.9C12.7 457.7 14.7 456.9 15.9 457.5C17.1 458.1 18.4 458.8 19.5 459.5C21.6 460.9 24 461.1 26.4 460.4C28.9 459.7 31.5 459 33.2 457C34 456.1 35.1 456.2 36.3 457.2C36.5 457.3 36.6 457.5 36.8 457.7C38.6 459.1 39.9 459.1 41.7 457.7C42.2 457.3 42.6 456.7 43.1 456.3C43.7 455.8 44.4 455.7 45.1 456C46 456.4 46.8 456.8 47.6 457.3C47.8 456.7 48.4 456.2 49.1 456.5C50.4 456.9 51.7 457.6 53 458.1C54 458.5 55 458.5 55.7 457.8C56.9 456.7 58.1 456.6 59.5 457.6C61.3 458.8 63.6 458.9 65.7 458.9C68.1 458.9 70.5 459.1 72.9 459.6C74.8 459.9 76.7 460.2 78.6 460.7C80.1 461.1 81.5 460.7 82.7 459.9C83.2 459.5 83.7 459 84.2 458.6C85.5 457.5 87 456.9 88.8 457.1C91.6 457.5 93.5 456.5 95.1 454.8C95.6 454.3 96.1 453.9 96.5 453.4C97.5 452.4 98.7 451.9 100.3 452.2C101.2 452.4 102.3 452.4 103.2 452.2C103.8 452.1 104.4 451.5 104.6 451C104.9 450.5 104.6 449.8 104.7 449.2C104.7 448.8 105 448.3 105.3 448.2C108.5 446.5 111.9 445.6 115.7 446.7C117.1 447.1 118.4 447.5 119.8 447.9C122.5 448.8 125.3 449.6 128.3 448.8C129.1 448.6 130.4 448.8 131.1 449.2C133.3 450.3 135.7 450.4 138 451C140.6 451.6 142.9 452.7 145.5 453.5C148.5 454.4 151.2 455.7 153.7 457.4C156 459 158.1 460.6 160 462.4C165.1 467.2 167 468 174.5 468.4C175.4 468.4 176.5 468.4 177.3 468C178.9 467.4 180 467.7 181.3 468.6C184.3 470.6 187.5 470.6 190.8 469C191.4 468.7 192.1 468.4 192.7 468C193.6 467.5 194.6 467.6 195.5 468C197 468.6 198.5 469.3 199.8 469.8C203 468.5 206 467.2 209.2 466.2C211.8 465.4 214.5 465.4 216.9 466.9C218.5 467.9 220.3 468.4 222.2 468.9C226.3 470.1 230.6 470.7 234.8 471.8C237.7 472.5 240.3 473.3 242.6 475C243.1 475.4 243.8 475.7 244.4 476.1C245.7 476.8 247 476.6 248.3 475.4C248.6 475.1 248.8 474.7 249.2 474.4C250.4 473.3 251.2 473.3 253 474.2C253.4 474.4 253.7 474.6 254 474.8C254.6 474 255.1 472.9 256 472.5C258.7 471.3 260.3 469.2 262.4 467.5C262.7 467.2 263.2 467.1 263.9 466.8C267.7 468.8 272.3 467.8 276.5 468.7C276.7 468.7 277.2 468.2 277.4 467.9C277.9 467.1 278.6 466.7 279.7 466.6C282.4 466.5 285 466.2 286.1 463.5C286.5 462.6 287.9 462.2 289.3 462.5C291.2 462.9 293.1 463.2 295 463.6V463.8C295.3 463.5 295.4 463 295.8 462.8C297.4 462.3 299 461.7 300.6 461.4C302 461.2 303.5 461.6 304.9 461.4C306.3 461.2 307.6 460.6 309.1 460.4C311.7 459.9 314.3 459.4 317 460.4C317.8 460.7 318.9 460.4 319.9 460.4C321.2 460.4 322.2 460.7 323.3 461.3C323.8 461.6 324.6 461.7 325.3 461.8C326.8 461.8 328.2 461.8 329.7 461.8C331.5 461.9 333.1 461.5 334.5 460.7C335.9 459.9 337.3 460.2 338.5 461C339.1 461.4 339.6 461.8 340.2 462.1C340.8 462.4 341.8 462.3 342.1 461.7C343.1 459.6 344.6 458.9 347.3 459.8C348.3 460.1 349.7 459.8 350.9 459.6C352.9 459.4 360 459.2 361.7 459.5C362.9 459.7 364.2 459.8 365.2 460.4C367.4 461.5 369.6 462 372.1 461.8C374.4 461.6 376.4 462.2 378.1 463.5C379.6 464.6 381.4 465.1 383.3 465.7C387.2 466.9 391 468.3 394.8 469.6C395.7 469.9 396.6 470.3 397.5 470.4C400.1 470.4 402.8 471.1 405.4 470C406.4 469.6 407 470 407.5 471.1C407.5 471.3 407.5 471.5 407.6 471.7C408 472.8 408.3 472.9 408.9 472.2C410.3 470.6 412.6 470.3 414.4 469.3C415.9 468.5 417.6 468.4 419.3 469.3C421.2 470.3 423.3 470.7 425.6 470.3C429.5 469.7 433.4 469.9 437.1 471.1C438.6 471.6 440 471.4 441.4 471.1C443.8 470.5 446 470.4 448.4 471.7C449.9 472.5 452.1 472.7 454 473C455.7 473.3 457.3 473.6 458.7 474.5C459.3 474.9 460 474.8 460.8 474.6C461.7 474.3 462.6 474 463.6 473.8C468.1 472.6 471 469.8 473.2 466.7C474.8 464.5 476.3 461.8 475.6 459.1C474.7 455.7 475.1 452.2 474.5 448.8" fill="#211D20"/>
</g>
<defs>
<clipPath id="clip0_574_4012">
<rect width="476.6" height="476.2" fill="white"/>
</clipPath>
</defs>
</svg>
