<svg width="477" height="477" viewBox="0 0 477 477" fill="none" xmlns="http://www.w3.org/2000/svg">
<g clip-path="url(#clip0_574_4004)">
<path d="M476.6 1.89996H472.4C472 1.99996 471.7 2.19996 471.3 2.29996C470.8 2.39996 468 3.59996 467.9 3.29996C467.7 3.29996 467.5 3.29996 467.3 3.29996C466.1 3.49996 464.9 3.29996 463.7 3.29996C463.4 3.29996 463.1 3.09996 462.9 2.99996C462.3 2.79996 461.5 2.69996 460.8 2.79996C459.4 2.79996 458 2.79996 456.7 2.29996C456.1 2.09996 455.3 1.99996 454.7 2.09996C453.4 2.29996 452.3 2.09996 451.2 1.49996C450.4 1.09996 449.6 0.799958 448.8 0.499958C447.6 -4.21107e-05 446.5 -0.200042 445.3 0.499958C444 1.19996 442.7 1.29996 441.3 1.29996C439.9 1.29996 438.4 1.29996 437.3 2.09996C435.7 3.09996 434.1 3.29996 432.4 3.39996C428.4 2.49996 424.3 2.19996 420.1 2.79996C417.8 3.09996 415.4 2.79996 413 2.99996C411.8 2.99996 410.6 2.99996 409.5 3.39996C408.9 3.59996 408.3 3.79996 407.6 3.89996H398.9C398.4 3.89996 397.9 3.69996 397.5 3.59996C394.9 2.99996 392.3 2.89996 389.7 2.89996C387.1 2.89996 384.5 2.89996 381.9 2.89996C379.3 2.89996 376.7 2.89996 374.1 3.09996C370.5 3.29996 366.9 3.59996 363.2 3.89996H349.1C348.4 3.59996 347.7 3.69996 347.1 3.89996C346.7 3.99996 346.4 4.19996 346.1 4.49996C345.5 4.89996 345 5.39996 344.4 5.89996C342.3 5.79996 340.2 5.59996 338.1 5.49996C335.7 5.49996 333.3 5.69996 331 5.49996C327.4 5.39996 323.8 5.89996 320.4 4.99996C318.6 4.49996 317.1 4.69996 315.6 5.49996C314.6 5.99996 313.5 6.39996 312.4 6.69996C311.2 6.99996 310 7.09996 308.7 6.79996C308.2 6.79996 307.7 6.69996 307.2 6.69996H307C305.5 6.69996 304 7.09996 302.5 7.69996C301.7 8.09996 300.6 8.19996 299.7 7.99996C295.7 7.19996 291.7 6.99996 287.7 6.69996C285.8 6.49996 284 5.99996 282.2 5.69996C279.4 5.19996 276.5 5.39996 273.7 5.09996C270.7 4.79996 267.6 4.89996 264.6 4.29996C263.7 4.09996 262.6 4.19996 261.8 4.39996C257.9 5.59996 253.7 4.79996 249.8 5.99996C249.3 6.19996 248.6 5.99996 248.1 5.79996C247.1 6.69996 246.2 7.69996 245.3 8.59996C244.6 9.29996 243.9 9.89996 243.1 10.5C240.9 12.4 238.7 14.2 236.9 16.6C235.8 18.1 234 19.2 232.3 20.1C230.4 21.1 228.7 22.1 228 24.3C227.4 26 225.8 26.8 224.3 27.5C222.9 28.2 221.6 29 220.8 30.3C218.4 34.1 214.5 36.5 211.5 39.7C211.2 40 210.8 40.3 210.5 40.3C206.5 41 205 44.2 203 46.9C201.8 48.4 200.9 50.1 199.8 51.7C198.6 53.4 197 54.8 195.1 55.7C193.3 56.5 192.2 57.9 191.5 59.6C190.6 62 189.1 64.1 188.8 66.8C188.7 68.4 187.9 69.9 187.1 71.4C186.6 72.3 185.8 73.2999 184.9 73.7C182.7 74.7 181.3 76.3 180.3 78.3C179.4 80.2 177.8 81.6 176.3 83C173.4 85.6 171.3 88.5 170.2 92.1C169.6 94.2 168.5 96.1 166.9 97.8C165.9 98.8 165.2 99.7999 164.6 101.2C164.1 102.4 163.2 103.6 162.2 104.5C160.3 106.2 158.9 108.2 158.2 110.6C157.2 113.9 155.3 116.7 152.8 119.3C151 121.2 149.5 123.3 148.9 126C148.8 126.6 148.4 127.2 148 127.8C146 131.1 144 134.4 142 137.7C140.8 139.6 139.7 141.4 138.4 143.2C136.5 146 134.9 149.1 132.6 151.7C131.8 152.7 131.2 154.1 131 155.4C130.4 158.9 128.7 161.6 125.7 163.3C123.8 164.4 122.9 165.9 122.4 167.8C121.9 170 120.8 171.8 119.1 173.4C117.5 174.8 116.5 176.6 116.3 178.8C116.1 180.4 115.8 182 114.9 183.5C114.4 184.3 114.4 185.3 114.4 186.3C114.4 188.5 113.6 190.3 111.6 191.5C110.5 192.2 109.7 193.1 109.3 194.3C108.5 197.3 106.4 199.6 104.8 202.1C101.7 206.7 98.3 211 96.5 216.3C94.4 218.7 94.4 221.9 93.5 224.7C92.9 226.8 93.2 229 94 231.1C94.9 233.4 94.8 235.6 93.6 237.8C93.1 238.8 92.7001 239.8 92.4 240.9C92.1 242.3 91.7001 243.5 90.4 244.4C89.2001 245.2 88.9 246.3 88.9 247.6C88.9 251.8 86.8 255.1 84.3 258.3C82 261.2 80.1 264.4 79.4 268.1C79.4 268.3 79.3 268.5 79.2 268.7C78.7 270.7 77.7 272.4 76.5 274C74.5 276.7 73.1 279.7 71.9 282.7C71.1 284.7 70.1 286.3 68.4 287.7C66.4 289.4 64.7001 291.4 63.7001 293.9C63.1001 295.4 62.2001 296.9 61 298C58.7001 300.2 57.1001 302.9 54.7001 305.1C54.4001 305.4 54 305.6 53.9001 306C52.2001 309.4 49.1001 311.6 46.4001 314.1C45.7001 314.8 45 315.5 44.3 316.1C42.8 317.4 41.9 319 41.6 321C41.4 322.3 41 323.7 40.6 325C40 327.1 39.3 329.2 37.1 330.4C36.5 330.7 36.2001 331.5 35.8 332C34 333.9 32 335.5 29.4 336.5C27.7 337.1 26.1 338.1 24.5 338.9C24.3 339 24 339.2 23.8 339.4C23.4 339.8 22.8001 340.2 22.7001 340.6C22.2001 343.2 18.9001 344 18.7001 346.7C18.6 348.7 17.3 349.9 15.7 350.9C15.5 351 15.2 351.2 15 351.3C11.7 352.7 11.2 355.4 11.3 358.4C11.3 359.6 11.3 360.8 11.3 362C11.5 364.8 10.7 367.4 9.70005 369.9C8.80005 372.3 8.30005 374.9 7.40005 377.3C6.50005 379.7 5.40005 382.1 4.30005 384.4C3.30005 386.6 2.70005 388.8 2.90005 391.1C3.10005 393.7 2.90005 396.3 1.00005 398.5C0.700049 398.8 0.500049 399.3 0.600049 399.6C1.30005 401.7 0.300049 403.6 0.300049 405.6C0.300049 406.3 0.400049 407 0.700049 407.6C2.10005 410.7 3.70005 413.7 5.00005 416.8C5.70005 418.5 5.80005 420.5 7.50005 421.8C7.00005 426.6 6.70005 431.2 7.50005 435.8C7.50005 436.3 7.50005 436.9 7.50005 437.4C6.90005 439.9 7.30005 442.3 7.50005 444.7C7.80005 446.7 7.50005 448.7 7.30005 450.8C6.50005 457.2 6.60005 463.6 8.30005 469.9C8.90005 472 10.4 473.8 10.4 476.1C10.4 476.1 10.4 476.3 10.4 476.4H476.9V1.89996H476.6Z" fill="#211D20"/>
</g>
<defs>
<clipPath id="clip0_574_4004">
<rect width="476.6" height="476.2" fill="white"/>
</clipPath>
</defs>
</svg>
