<svg width="477" height="476" viewBox="0 0 477 476" fill="none" xmlns="http://www.w3.org/2000/svg">
<g clip-path="url(#clip0_574_4014)">
<path d="M469.5 214.2C467.5 213.1 465.6 211.9 464.2 210.1C463.9 209.7 463.5 209.1 463 209C460.8 208.5 459.7 206.8 458.2 205.3C456.8 204 455.4 202.6 453.5 202C451.4 201.4 449.9 200.1 448.3 198.8C445.9 196.7 443.6 194.6 441.3 192.4C438.7 189.9 435.7 187.9 432.9 185.6C430.3 183.4 427.4 181.6 425.4 178.8C424.9 178.1 424.2 177.3 423.5 177C421.5 176 420.1 174.3 418.4 173.1C417.3 172.3 416.3 171.4 415.1 170.8C413.9 170.2 413 169.5 412.4 168.3C412.2 167.9 412 167.5 411.6 167.2C409 165.3 407.2 162.7 404.3 161.2C402.4 160.2 400.8 158.8 399 157.6C398.4 157.2 397.7 156.6 397 156.3C393.9 155.2 391.4 153.3 389.1 151.1C387.8 149.8 386.4 148.8 384.5 148.4C383 148.1 381.7 147.3 380.7 146.2C377.2 142.5 372.9 139.7 368.8 136.7C366.7 135.1 364.7 133.5 362.9 131.6C360.8 129.4 358.7 127.2 356.2 125.4C355.3 124.8 354.6 124.1 354.7 123C354.7 121.8 354.1 121 353.3 120.1C351.7 118.5 350.2 116.9 348.7 115.2C347.8 114.2 346.9 113.2 346.3 112C345.2 109.8 343.5 108 341.8 106.2C339.1 103.3 336.4 100.5 333.7 97.6002C332.9 96.7002 332.2 95.6002 331.4 94.7002C329.7 92.8002 328 90.9002 326.2 89.0002C326 88.8002 325.9 88.4002 325.7 88.1002C324.9 86.9002 324.1 85.7002 323.2 84.6002C321.3 82.4002 319.8 79.9002 319 77.1002C318.6 75.7002 318 74.4002 317.3 73.2002C316.5 71.8002 316 70.4002 315.6 68.9002C315.1 66.9002 314.6 64.8002 313.4 63.0002C312.7 62.1002 312.3 61.1002 312.1 60.0002C312 59.3002 311.5 58.5002 311 58.0002C306.6 53.9002 303.9 48.8002 302.6 43.1002C301.6 38.5002 299.6 34.3002 296.2 30.8002C294.2 28.8002 292.7 26.4002 290.4 24.7002C290 24.4002 289.7 23.8002 289.5 23.3002C288.5 20.9002 286.8 19.0002 284.7 17.3002C282.5 15.5002 281.1 13.1002 280.7 10.5002C280.1 7.20017 278.1 4.40017 278.2 1.00017C278.2 0.000170231 277.3 -0.39983 276.1 -0.0998298C274.3 0.30017 272.5 0.80017 270.7 1.20017C269 1.60017 267.3 1.80017 265.6 2.10017C264.1 2.30017 262.7 2.80017 261.6 3.90017C261.2 4.30017 260.8 4.70017 260.2 4.90017C257.4 5.60017 254.6 6.30017 251.8 6.80017C248.9 7.30017 245.9 7.50017 242.9 7.90017C241.8 8.00017 240.7 8.20017 239.6 8.80017C238.2 9.60017 236.8 9.50017 235.5 8.30017C235.3 8.10017 234.9 8.10017 234.2 8.00017C233.5 10.4002 231.3 10.4002 229.3 11.0002C228.7 11.2002 227.9 11.2002 227.3 11.3002C225.2 11.6002 223.3 12.1002 221.6 13.4002C220.2 14.5002 218.5 15.4002 216.8 16.0002C213.7 17.1002 210.5 17.9002 207.3 18.9002C206.8 19.1002 206.1 19.3002 205.9 19.7002C205.1 21.0002 203.9 21.5002 202.5 21.7002C199.3 22.2002 196.7 23.8002 194.2 25.5002C193.5 26.0002 192.8 26.7002 191.9 27.0002C189.5 27.8002 187.3 28.9002 184.7 29.1002C182.9 29.3002 181 29.8002 179.8 31.1002C178.8 32.3002 177.5 32.9002 176.1 33.4002C174.6 33.9002 173.1 34.7002 171.6 35.0002C169.2 35.6002 166.7 36.2002 164.2 36.4002C162.8 36.4002 161.5 36.4002 160.2 36.9002C159.2 37.3002 158.2 37.3002 157.2 37.6002C154.1 38.5002 150.9 39.3002 148.8 41.8002C147.2 43.7002 145.1 45.0002 143 46.3002C142.8 46.4002 142.6 46.5002 142.4 46.7002C140.7 48.2002 138.7 48.8002 136.6 49.5002C133.7 50.5002 130.8 51.8002 128.3 53.5002C126.5 54.7002 125.2 56.7002 122.7 57.1002C122.5 57.1002 122.3 57.3002 122.1 57.5002C120.6 58.9002 119.1 60.2002 117.6 61.6002C115.8 63.1002 114.5 65.2002 111.8 65.6002C111.3 65.6002 110.8 66.1002 110.5 66.5002C109.8 67.4002 108.7 67.9002 107.7 68.4002C105.9 69.4002 104.2 70.5002 102.5 71.6002C99 73.8002 95.9 76.4002 92.9 79.1002C92.3 79.7002 91.7 80.0002 90.8 80.1002C89.8 80.2002 88.8 80.6002 87.8 80.8002C85.8 81.2002 84 81.0002 82.2 80.0002C80.1 78.9002 77.8 78.2002 75.5 77.4002C74.3 77.0002 73.4 77.4002 73 78.5002C72.2 81.0002 70.9 83.4002 70.8 86.1002C70.8 88.1002 70.5 90.1002 70 92.0002C69.5 94.3002 69.5 96.6002 69.8 98.9002C70.1 101 70.3 103 69.8 105.1C69.5 106.3 69.5 107.5 68.9 108.6C68.6 109.1 68.8 109.9 68.9 110.5C69.4 113.6 69.4 116.7 68.6 119.7C67.9 121.9 67.6 124 68.3 126.2C68.7 127.3 68.5 128.4 68.1 129.4C67.6 130.6 67.2 131.9 66.6 133.1C66 134.3 65.4 135.5 65.3 136.8C64.8 140.8 63.6 144.7 63.6 148.9C63.6 151.9 62.8 155 62.4 158C62.4 158.3 62.1 158.6 62 158.9C60.9 160.8 60.7 162.9 60.7 165C60.7 165.8 60.7 166.6 60.5 167.3C60.1 168.5 60.1 169.7 60.5 170.9C60.9 171.9 60.7 172.8 59.6 173.5C58.6 174.2 58.2 175.2 58 176.3C57.6 177.9 57.2 179.5 56.6 181C56 182.5 55 183.9 54.3 185.5C53.7 187 53.4 188.7 51.7 189.6C51.4 189.8 51.4 190.6 51.4 191.1C51.2 194.7 49.7 197.7 46.8 200C46.2 200.5 45.7 201.1 45.2 201.7C42.5 204.7 39.9 207.7 36.4 210C34.7 211.1 32.9 212.4 31.9 214C30.6 216.2 28.6 218 27.6 220.3C26.7 222.2 25.3 223.2 23.2 223.6C22.6 223.6 21.9 223.7 21.6 224.1C20.1 225.6 18 226.5 16.8 228.4C15.5 230.4 13.5 231.6 11.1 231.7C9.09998 231.8 8.09998 232.6 7.49998 234.2C7.09998 235.2 6.29998 235.7 5.39998 236.3C3.89998 237.1 2.59998 238.2 1.29998 239.3C0.19998 240.3 -1.94311e-05 241.6 0.499981 243C0.599981 243.3 0.799981 243.6 0.999981 243.9C3.29998 247.1 3.79998 250.6 3.39998 254.3C3.39998 254.6 3.39998 255 3.39998 255.3C3.39998 256.5 3.39998 257.8 4.29998 258.8C4.99998 259.7 5.19998 260.6 4.99998 261.6C4.59998 263.3 4.99998 264.9 4.99998 266.5C4.99998 268.2 5.79998 269.7 6.09998 271.3C6.59998 273.8 7.29998 276.2 8.09998 278.6C8.99998 281.2 10.1 283.7 10.8 286.4C11.1 287.8 12.1 289 12.8 290.2C13.2 290.9 13.8 291.5 14 292.2C14.4 293.5 15.2 294.6 16.3 295.5C17.4 296.5 18.1 297.7 18.3 299.2C18.5 301.1 18.9 303.1 20.4 304.7C20.7 305.1 20.8 305.7 21 306.2C21.5 307.6 21.9 308.9 22.4 310.3C23.2 312.6 24.9 314.8 23.7 317.5C23.6 317.8 23.7 318.2 23.7 318.5C24.2 321.5 24.6 324.6 25.4 327.6C26 330.1 26.5 332.8 28.4 334.9C29.2 335.8 29.7 336.9 30 338.2C30.3 339.8 30.6 341.5 31.3 343C31.9 344.3 32.3 345.4 32.1 346.8C31.9 348.3 32.4 349.6 33.6 350.7C34.3 351.3 34.7 352.1 34.5 353.1C34.5 353.7 34.5 354.4 34.8 355C36 359.6 37.1 364.2 38.7 368.7C39.4 370.5 39.1 372.6 40.8 374.1C41.1 374.4 41.1 375.1 41.2 375.7C41.6 377.3 41.8 379 42.4 380.5C42.9 381.8 43.1 383 43.1 384.4C43.1 385.7 43.3 387.1 43.3 388.4C43.3 390.9 44.3 393.1 45.8 395.1C46.6 396.1 47.3 397 48 398C50.5 401.4 53.1 404.8 53.6 409.2C53.6 410.1 54.3 411.1 54.9 411.8C55.9 413.1 57.1 414.4 58.2 415.6C58.7 416.2 59.3 416.8 60 417.1C61 417.5 61.7 418.2 62.2 419.1C63 420.5 64.1 421.4 65.6 422.2C67.9 423.4 70.1 424.8 71.4 427.2C72.2 428.7 73.7 429.8 75.3 430.3C78.1 431.2 79.7 433 80.5 435.5C80.9 436.6 81.4 437.7 81.8 438.9C82.3 440.4 84 440.4 84.9 441.4C85.8 442.5 86.9 443.1 88.4 443.4C89.5 443.6 90.1 444.3 90.6 445.3C91.3 446.6 92.1 447.8 93 448.9C94.4 450.4 95.8 451.8 97.5 453C99.2 454.1 101.2 454.8 103 455.8C106 457.4 109 459.1 111.9 460.8C113.5 461.7 115.1 462.5 116.6 463.5C119 465.1 121.4 466.5 124.2 467C124.5 467 124.8 467.3 125.1 467.5C127.2 468.7 129.3 469.8 131.7 470.2C132.3 470.3 133 470.6 133.5 471C134.6 471.8 135.7 472 137 471.6C138.6 471.1 140.2 471.4 141.6 472.2C142.3 472.6 143 473 143.8 473.2C144.7 473.5 145.6 473.8 146.5 473.7C150.3 473.2 154.1 473.4 157.8 474.2C158.1 474.2 158.5 474.2 158.8 474.2C161.7 474.6 164.6 474.6 167.3 475.5C171.1 476.7 174.6 475.3 178.2 475.3C178.6 475.3 179.1 475 179.4 474.8C180.7 473.8 182.3 473.5 183.8 473.1C188.3 471.9 192.8 470.5 196.1 467C196.3 466.8 196.6 466.6 196.9 466.4C199.4 464.9 201.9 463.4 204.5 461.9C206.5 460.8 208.5 459.8 210.5 458.8C211.9 458.1 213.3 457.8 214.8 457.9C215.7 457.9 216.7 457.9 217.5 457.6C221.3 456.5 225.2 456.4 229 455.7C229.7 455.6 230.4 455.7 231.1 455.7C232.9 455.7 234.8 456 236.6 455.9C238.9 455.8 241.3 455.9 243.4 455.1C245.6 454.3 247.6 454.1 249.8 454.2C250.7 454.2 251.6 454 252.5 453.8C254.4 453.3 256.3 453.2 258.3 453.3C260.2 453.4 262.2 453.3 264.1 453.3C265.5 453.3 266.9 453.3 268.2 453.4C269.7 453.6 271.2 453.7 272.6 452.9C273.6 452.4 274.6 452.4 275.6 452.7C276.5 452.9 277.4 453.2 278.3 453.1C280 453 281.5 453.5 282.9 454.2C284.7 453.6 286.5 453.3 288.4 453.8C288.8 453.9 289.3 454 289.8 453.9C292.6 453.2 295.5 453.5 298.3 453.2C298.9 453.2 299.5 453 300 453.2C302.3 453.9 304.8 453 307.2 453.8C307.5 453.8 307.9 453.8 308.2 453.8C311.2 453.3 314.3 452.7 317.3 452.2C318.6 452 319.8 451.9 321.1 451.8C323.3 451.7 325.5 451.8 327.6 451.6C328.4 451.6 329.3 451.4 329.9 451C334.2 448.2 339.5 447.9 344.1 445.9C346.8 445.9 348.9 444.7 350.4 442.9C352.8 440.3 356.5 439.9 359 437.7C359.3 437.4 359.9 437.5 360.3 437.4C361 437.3 361.7 437.2 362.6 437.1C362.9 436.3 362.9 435.5 363.3 435C365 432.8 366.9 430.8 369.8 429.8C371.1 429.4 372.4 428.9 373.5 428.1C375.3 426.7 377.4 426.3 379.6 426C381 425.8 382.4 425.6 383.6 425C385.3 424.2 387 423.7 388.9 423.8C389.5 423.8 390.1 423.8 390.6 423.7C392.3 423.1 394 423.4 395.7 423.7C397.2 424 398.6 424.4 400.1 424.6C402 424.9 403.5 424.1 404.2 422.3C405.1 419.9 406.9 417.9 406.7 415.2C406.7 414.7 406.9 414.1 407.2 413.6C408.4 411 409.6 408.4 410.7 405.7C411 405 411.4 404.3 411.5 403.5C412 400.6 412.7 397.7 412.9 394.7C413 392.3 413.6 390.2 415 388.2C415.4 387.7 415.7 387 416 386.5C416.8 385.3 417.1 384.1 417 382.7C416.4 377 418.6 372.1 421.5 367.3C422.4 365.8 423.1 364.5 423.4 362.8C423.6 361.8 424.1 360.6 424.8 359.8C426.4 358 427.4 356 428.5 353.9C429.7 351.7 430.1 349 432 347.1C432.5 346.6 432.5 345.7 432.6 344.9C433.2 340.4 435 336.4 437.5 332.6C439.3 329.9 441 327.2 442.2 324.2C442.6 323.1 442.9 321.8 444.1 321.1C445.3 320.4 445.7 319.2 446.2 318.1C447.1 316.1 448 314 448.8 312C449.5 310 450.2 308 450.4 305.9C450.7 302.8 451.3 299.8 452 296.8C452.4 295.1 453 293.3 454 291.9C456.3 288.7 458.2 285.3 459.2 281.6C459.3 281.1 459.5 280.5 459.9 280.1C461.7 278.2 462.2 275.5 464.3 273.9C464.6 273.7 464.9 273.1 464.9 272.7C464.9 271.1 465.9 270 467 269C468.1 268 468.9 266.7 469 265.3C469.2 263.6 469.7 262.1 470.6 260.6C470.9 260.2 471.1 259.6 471.1 259C471.1 256.5 471.7 254.2 472.4 251.9C472.7 250.9 472.8 249.7 473 248.7C473.3 247.3 473.3 245.8 473.8 244.5C474.8 241.8 475.5 239 475.4 236.1C475.4 235.4 475.5 234.8 475.7 234.1C476.4 230.2 476.5 226.2 476.5 222.2C476.5 220.9 476 219.7 475.2 218.5C473.8 216.3 471.7 215 469.5 213.8" fill="#211D20"/>
</g>
<defs>
<clipPath id="clip0_574_4014">
<rect width="476.6" height="476" fill="white"/>
</clipPath>
</defs>
</svg>
