<svg width="477" height="477" viewBox="0 0 477 477" fill="none" xmlns="http://www.w3.org/2000/svg">
<g clip-path="url(#clip0_574_4008)">
<path d="M472.6 406.701C472.4 401.301 471.2 396.1 470.7 390.701C470.5 388.1 469.3 386.3 468 384.5C468.1 383.201 468.1 381.801 468.5 380.6C469.1 378.1 469.2 375.801 467.9 373.701C467.6 373.301 467.6 372.4 467.5 371.8C467.3 370 466.7 368.4 466 366.9C465.5 365.8 464.5 364.9 464.7 363.5C464.9 361.6 464.2 360 464.4 358.201C464.4 357.5 464.6 356.801 464.5 356.201C464.5 354 462.9 352.3 463.5 349.8C464 347.6 463.7 345.301 463.3 343.1C463.2 342.301 463.2 341.201 463.4 340.5C464 338.5 463.5 336.701 462.7 335.5C461.9 334.3 461.3 333.4 461.3 331.6C461.3 330.301 461 328.9 460.8 327.6C460.2 324.301 459.8 321 460.8 317.701C460.9 317.301 460.9 316.8 461 316.4C461.3 314.6 461.3 312.801 460.6 311.201C460 310 459.9 308.6 460.4 307.4C461.3 305.1 460.9 302.6 460.9 300.1C460.9 299.301 460.6 298.4 460.3 297.6C459.8 296.201 459.1 295 458.6 293.6C458.2 292.4 457.9 291 459 290.1C459.1 290 459.2 289.801 459.3 289.6C459.7 288.6 459.3 287 458.7 286.8C456.8 286.3 454.8 286 452.9 286.5C452.8 286.5 452.6 286.6 452.5 286.701C450.7 287.301 448.9 287.1 447.2 286C446.1 285.3 444.9 285 443.7 285.5C442.8 285.9 442 285.4 441.1 284.8C438.4 282.8 435.7 281 433 279C432 278.3 431.1 277.901 430 277.701C427.6 277.301 425.3 277.201 422.9 277.6C422 277.801 421.2 278.9 420.3 278.1C419.7 277.5 419.1 276.9 418.4 276.3C417.7 276.9 417.1 277.5 416.4 278C416 278.3 415.5 278.701 415.2 278.5C414.2 277.701 413.6 279.4 412.9 279.4C411.8 279.4 411.1 281 410 280.8C408.9 280.6 408.4 281.301 408.5 283.1C408.5 284.201 407.5 285.201 406.9 284.6C405 282.9 403.6 284.201 402 285.701C401 286.6 401.3 288.1 400.7 289.1C400.5 289.5 399.7 289.6 399.5 289.1C399.3 288.301 399.2 287.4 399.1 286.6C399.1 286.5 398.9 286.4 398.8 286.4C398.7 286.4 398.5 286.4 398.5 286.6C398.5 286.801 398.3 287 398.3 287.201C398.3 288 398 288.6 397.6 288.701C395.6 289.1 393.7 289.201 392 287.201C391.5 287.701 391.2 288.1 390.8 288.4C389.8 289.2 388.9 289.6 387.8 288.8C386.7 287.9 385.6 287.701 384.4 287.701C382.8 287.701 381.1 287.4 379.5 287.1C378 286.801 376.9 287.6 376.1 289.6C373.6 288.701 371.2 288.1 368.6 288.5C367.6 288.701 366.5 288.4 365.5 288C364.5 287.6 363.5 287.4 362.4 287.3C360.6 287.1 360.6 287.1 359.6 290.201C359.3 291 359 291.9 358.4 292.1C356.9 292.5 355.7 294.201 354.2 294.201C353.3 295.201 352.3 295.6 351.3 294.701C348.7 292.1 345.8 293.1 343 293.3C339.8 295 336.8 294.2 333.8 292.4C333.4 292.2 332.9 291.9 332.5 292.1C331.1 292.9 329.8 291.9 328.5 291.9C327.1 291.9 326.3 290.6 325.5 289.3C324.9 288.2 324.5 287 325 285.6C325.4 284.5 325.5 283.4 325.1 282.3C324.3 279.6 324.6 276.5 323.7 273.8C323.5 273.3 323.5 272.5 323.6 271.8C323.7 270 323.8 268.201 323.3 266.5C323.2 266.1 323.2 265.6 323.3 265.201C324.4 261.1 323.8 256.6 324.8 252.6C325 251.8 324.9 250.8 324.9 249.9C324.9 246.3 324.9 242.7 324.9 239C324.9 237.2 325.1 235.4 325.2 233.6C325.2 232.2 325.5 230.9 325.4 229.6C325 226.5 325.6 223.8 326.6 221.2C326.9 220.4 327.2 219.6 327.6 218.6C328.1 218.4 328.6 218.2 329.2 217.9C329.5 217.8 329.9 217.5 329.9 217.2C330.2 215.6 330.7 214.3 331.4 213C332 211.8 332.8 210.8 333.6 209.5C333.2 209.1 332.8 208.8 332.5 208.5C332 208.1 331.5 207.6 331.2 206.7C331.2 206.5 331.2 206.2 331.1 206.1C330.1 203.4 328.8 200.8 329.3 197.4C328.9 194.5 328.5 191.6 327.3 189.2C326.7 188 326.5 186.8 326.9 185.4C327.3 183.9 327.1 182.7 326.3 181.8C325.2 180.6 324.9 179 324.9 177.1C324.9 174.4 324.7 171.7 325.3 169C325.5 168 325.6 166.6 325.3 165.7C324.8 163.8 325.8 162.2 325.6 160.5C325.5 159 324.9 157.6 324.6 156.1C324.5 155.5 324.6 154.7 324.8 154.1C325.6 152.2 326.4 150.3 327.3 148.4C327.5 148.1 327.7 147.7 328 147.6C329.4 147.1 330.1 145.1 331.3 144.1C331.5 143.1 331.7 142 331.8 140.9C332 139.9 331.8 139.1 331.3 138.4C330.8 137.6 330.2 136.8 329.7 136.1C329.2 135.5 328.7 135.1 328.3 134.6C327.9 132.8 327.1 131.2 327.3 129.4C327.5 127.4 327 125.9 326.3 124.4C325.9 123.7 325.7 122.8 325.3 122.2C324.3 120.7 324 118.7 323.5 116.8C322.4 112.5 321.7 108.3 322 103.6C322.2 100.5 321.5 97.4005 321.4 94.2005C321.4 92.5005 320.7 90.8005 320.2 89.1005C320.2 88.7005 319.8 88.4005 319.6 88.2005C316.2 85.8005 314.8 81.0005 313.4 76.2005C313.3 73.1005 312.1 70.8005 310.8 68.6005C310.6 68.3005 310.4 67.9005 310.3 67.5005C310 66.7005 309.9 65.8005 310.3 65.0005C310.8 64.0005 310.8 62.9005 310.5 61.8005C309.5 57.1005 307.3 54.3005 304.3 52.7005C303.2 52.1005 302 51.7005 300.8 51.4005C299.7 51.1005 298.9 50.3005 298 49.4005C296.5 48.0005 294.9 46.8005 293.2 45.8005C292.2 45.1005 291.4 44.1005 291 42.6005C290.5 40.6005 289.6 39.1005 288.4 38.2005C288 37.9005 287.6 37.5005 287.3 37.1005C285.8 35.3005 285 32.3005 283.2 30.8005C281.5 29.3005 243.7 22.7005 242.6 20.2005C242 18.8005 241 18.2005 239.9 18.1005C237.6 18.0005 235.4 17.4005 233.2 16.7005C232.3 16.4005 231.5 16.0005 230.8 15.0005C229.9 13.6005 228.5 14.2005 227.5 13.2005C227.1 12.7005 226.4 12.8005 225.8 12.7005C222.7 12.5005 202 8.50048 198.9 8.30048C198.3 8.30048 197.7 8.00048 197.1 7.80048C195.4 7.00048 193.7 6.10048 191.9 6.10048C191.1 6.10048 190.2 5.30048 189.4 4.90048C188.3 4.30048 187.1 4.00048 185.9 4.40048C183.8 5.00048 170.7 4.80048 168.6 4.70048C166.7 4.70048 165.1 4.20048 163.6 2.20048C163 1.40048 162 1.00048 161.1 0.800475C159.5 0.400475 144.3 3.60048 142.8 2.40048C142.5 2.10048 141.9 2.40048 141.5 2.40048C139.2 3.40048 136.8 3.30048 134.5 4.60048C134.4 4.60048 134.2 4.60048 134.1 4.60048C133.1 4.60048 132.4 5.30048 131.8 6.40048C131.1 7.60048 130.3 8.60048 129.5 9.70048C129.1 10.2005 128.7 10.0005 128 9.20048C127.8 8.90048 127.5 8.70048 127.3 8.50048C123.5 9.30048 122.8 9.30048 118.8 8.70048C118.1 8.60048 117.4 8.50048 116.7 7.90048C116 7.30048 115.3 7.30048 114.6 7.90048C114.2 8.30048 113.8 8.20048 113.4 7.90048C112.7 7.40048 112 7.20048 111.2 7.60048C110.8 7.80048 110.3 8.10048 109.9 8.00048C106.5 6.90048 103.1 7.60048 99.6 7.40048C99.2 7.40048 98.7 7.20048 98.3 6.90048C96.9 5.80048 95.7 6.80048 94.4 7.40048C91.6 11.1005 87.8 11.3005 84.6 13.9005C84.3 14.1005 84 14.2005 83.7 14.2005C80.8 13.3005 78.2 16.3005 75.4 16.0005C73.3 17.2005 71.3 18.8005 70 21.7005C69.2 23.2005 68.3 24.2005 67.2 25.0005C66.7 25.4005 66 25.8005 65.5 25.6005C64.1 25.0005 63.2 26.0005 62.2 27.1005C61.1 28.3005 60 29.3005 58.8 30.4005C58.4 30.8005 58 31.2005 57.8 31.8005C57.3 33.9005 55.9 34.5005 55.2 36.4005C54.8 37.8005 53.7 38.7005 53.3 40.0005C52.8 41.5005 51.8 42.2005 51.2 43.4005C50.4 45.2005 49.7 47.2005 48.5 48.7005C47.5 50.0005 47 52.0005 46.3 53.7005C44.6 54.2005 43 54.6005 41.5 55.1005C40 60.0005 40 60.0005 37.7 63.6005C36.3 65.8005 34.9 68.1005 33.4 70.2005C32.8 71.0005 32.5 71.9005 32.3 73.0005C32.2 73.5005 31.8 74.3005 31.5 74.4005C29.9 74.7005 29.2 77.3005 27.6 77.6005C27.2 79.2005 26.3 79.8005 25.4 80.7005C25.2 80.9005 25.1 81.5005 25.2 81.9005C25.4 83.0005 25.7 84.0005 26 85.3005C25.3 86.7005 24.5 88.1005 23.8 89.5005C23.5 90.0005 23.1 90.4005 22.8 90.9005C22 92.3005 21.9 94.3005 20.8 95.3005C19.8 96.3005 18.8 97.2005 17.8 98.2005C17.1 99.0005 16.5 100 15.7 100.6C15.1 101.2 15 101.9 14.9 102.8C14.8 104.4 13.9 105.4 13.3 106.6C13.1 107 12.4 105.8 12.3 107C12.3 108.4 13.4 109 13.3 110.6C13.3 111.7 13.4 112.8 13.6 113.9C13.9 116.4 13.8 118.8 12.8 121.1C12 123 11.6 125.2 10.9 127.2C10.7 127.8 10.4 128.5 10.1 128.6C7.59998 129.7 6.49998 132.7 5.89998 135.9C4.49998 143.1 2.39998 149.8 0.399983 156.6C-0.500017 159.6 0.299983 163.2 2.19998 164.6C2.89998 165.1 3.59998 165.5 3.99998 166.4C4.79998 168 5.69998 169.6 6.49998 171.2C6.79998 171.7 6.89998 172.5 7.29998 172.8C9.19998 174.5 10.3 177.7 12.2 179.6C13.8 181.1 14.9 183.9 15.5 186.6C16 188.7 16.7 190.1 18 191.1C18.9 191.8 19.7 192.9 20.5 194C21.2 194.9 21.7 196 22 197.3C23.1 201.3 23.8 205.4 24.3 209.6C24.5 211.3 25 212.6 25.8 213.6C26.6 214.6 27.4 215.6 28.2 216.5C28 218 27.9 219.3 27.8 220.6C28.3 222.9 30 223.7 30.6 225.9C31.1 228 31.5 230.2 32 232.3C32.4 233.8 32.9 235.2 33.3 236.7C33.4 237.3 33.5 238.2 33.3 238.7C32.4 240.6 33.4 242.7 32.9 244.7C32.8 245.2 32.9 246.1 33.1 246.6C34.4 249.2 34.5 252.5 35.2 255.4C35.4 256 35.3 256.8 35.5 257.3C36.1 258.9 36.8 260.3 37.4 261.9C38 263.4 37.7 265.5 38.7 266.9C39.4 267.9 39.5 269.301 39.5 270.701C39.5 271.801 39.3 273 39.3 274.1C39.3 274.801 39.3 275.5 39.5 276.1C40.2 278.6 40.7 281.3 42.2 283C42.9 283.9 43.2 285.1 43.6 286.4C44 287.8 44.3 289.4 44.9 290.6C45.4 291.6 46.4 292 47.2 292.701C47.3 292.701 47.3 293.1 47.5 293.4C47.1 294.7 46.7 296.1 46.2 297.8C47.6 301.3 48.4 305.5 50.1 308.9C50.5 311.6 51.4 313.901 52.4 316.201C52.7 316.701 52.9 317.5 53.2 317.701C54.8 318.801 55.7 320.8 56.7 322.8C57.1 323.6 57.9 324.2 58.6 324.4C59.8 324.8 60.9 325.5 61.5 327.201C63.7 329.201 65.5 331.9 67.9 333.3C68.9 333.9 69.7 334.9 70.3 336.3C71.4 339 73.1 341 74.7 342.9C75.5 343.9 76.3 345 76.7 346.5C77.2 348.4 78.1 349.9 79.1 351.3C79.4 351.8 79.7 352.6 80 352.701C82.5 353.5 83.6 356.7 84.9 359.4C86.1 362.1 87.7 364 89.4 365.701C90.2 366.5 90.9 367 91.4 368.201C91.8 369.201 92.3 370 92.8 370.9C94.0667 373.1 95.7 374.701 97.7 375.701C98.3 377.301 98.9 379.1 99.5 380.8C99.8 381.6 100.1 382.5 100.6 382.9C102 384.1 102.6 386.1 103 388.3C103 388.5 103.2 388.5 103.4 388.701V388.9C103.667 388.3 104 388.3 104.4 388.9V388.701C105.1 390.1 105.8 391.5 106.5 392.9C107 394 107.3 395.401 107.9 396.201C108.5 397.1 109.5 397.4 110.3 398C111 398.5 111.6 399 112.3 399.6C113.9 401.1 116 401.1 117.4 403.4C118.7 405.5 120.6 406.6 121.9 408.9C122.7 410.3 123.8 411.1 125 411.6C127 412.6 129 413.5 130.9 414.9C132.6 414.9 133 416.4 133.6 418.5C134.3 421.201 135.7 423.2 137.7 424.3C140.1 425.6 142.3 427.701 144.8 428.1C145.2 428.1 145.5 428.801 145.9 429.1C146.6 429.6 147.2 430.2 147.9 430.4C149.8 431.1 151.7 431.5 153.6 432.1C154.2 432.301 154.7 431.701 154.9 430.701C155 429.801 155.1 428.9 155.3 428.1C155.5 427.201 156.2 426.6 156.7 427.1C158.3 428.701 160.3 427.5 161.8 429.1C163.4 428.6 164.7 429.801 166.1 430.201C167.1 430.6 168.2 430.701 169.2 431C171.1 431.5 173 432.2 174.5 434.3C176.3 436.9 178.7 437.7 180.8 439.4C181.2 439.7 181.7 439.9 182.1 439.6C183.2 438.9 184.1 439.201 185.1 439.701C186.3 440.301 187.3 440.1 188.4 438.8C189 438 190 437.8 190.9 438.5C191.7 439.201 192.6 439.4 193.5 438.6C193.7 438.4 194.1 438.3 194.3 438.4C196.6 439.6 199 439.4 201.2 441.1C201.8 441.6 202.4 441.5 202.9 441.201C204.5 440.301 205.5 441.401 206.4 443.201C206.8 444 207.4 444.8 207.8 444.4C209.2 443 210.7 445.301 212.1 444.1C212.8 443.5 213.6 444.4 214.2 444.9C215 445.6 215.8 446 216.7 446C218 446 219.4 446.801 220.7 446.6C222.6 446.301 224.2 446.901 226 447.701C226.9 448.1 227.7 448.3 228.6 448C229.1 447.8 229.8 448 230.3 448.4C231.9 449.3 233.5 449.6 235.1 448.5C235.7 448.1 236.3 448.4 236.8 448.8C238.8 450.2 240.8 450.6 242.9 449.5C243.5 449.201 244.1 449.3 244.6 449.5C245.7 450 246.9 450.5 248 451C248.6 451.3 249.1 451 249.7 450.701C250.1 450.5 250.6 450.7 251 450.8C252 451.3 253 451.701 253.9 452.5C254.8 453.4 255.6 452.4 256.4 452.5C257.8 453.8 259 454.9 260.2 456C260.6 455.701 261 455.7 261.2 455.4C261.7 454.8 262.1 454.201 262.8 454.5C263.4 454.701 264 454.801 264.5 455.1C265.4 455.5 266.3 455.401 267.1 454.701C268.8 453.201 270.6 453.301 272.2 454.701C274.6 456.801 277 456.8 279.5 455.5C280.6 454.9 281.6 454.9 282.4 456.1C283.2 457.201 284 458.201 285.2 457.5C286.8 457.9 288.4 457.8 290 459C290.7 459.5 291.3 459.9 291.8 460.8C292.8 462.8 294.1 463.5 295.7 463.4C297.6 463.4 299.6 463.7 301.5 463.8C302.1 463.8 302.6 464.201 303.1 464.701C304.3 465.701 305.6 466.3 307 465.9C307.8 465.7 308.5 466 309.1 466.701C309.7 467.401 310.2 468.1 310.8 468.8C312.8 468.5 314.5 470.4 316.5 470.4C318.3 470.4 320 470.7 322 470.9C322.5 470 323 469 323.7 467.8C324.5 467.8 325.4 468.1 326.2 467.8C328.7 466.7 330.9 467.5 333.2 468.9C333.5 469.1 333.8 469.201 334 469.5C334.8 470.3 335.3 469.7 335.9 468.9C336.6 467.8 337.3 467.8 337.9 468.5C338.1 468.8 338.4 469 338.6 469.4C339.4 470.9 340.4 471.701 341.6 472.201C343.2 472.801 344.8 473.201 346.1 475C346.2 475.201 346.6 475 346.9 474.9C348.3 474.6 350.9 474.8 351.7 475.3C352.1 475.6 352.5 476.5 352.8 476.4C354.4 475.9 355.7 477.4 357.2 477.3C357.8 477.3 358.4 477.1 359 476.9C359.2 476.9 359.5 476.3 359.5 476C359.6 475 360 474.4 360.6 474.1C362.6 473.1 364.5 471.8 366.6 471.8C367.1 471.8 367.9 471.5 368.2 470.9C369.4 468.8 371.2 468.9 372.7 468.3C373.1 468.1 373.6 468.3 374 468.5C374.7 468.8 375.4 469.1 376.1 469.5C376.8 468.1 377.4 466.8 378 465.5C378.7 465.3 379.5 465.3 380.2 464.8C381.7 463.8 383.3 463.5 385 463.201C386 463.1 387 462.7 387.8 461.3C388.5 460 389.7 460.4 390.7 460.3C390.8 460.5 390.9 460.6 391 460.8C391.1 461.2 391.2 461.7 391.4 461.9C391.6 462.1 391.8 461.701 391.7 461.1C391.6 459.4 391.7 457.901 393.1 457.701C393.5 457.701 393.9 457.201 394.4 457C395 456.6 395.6 456.8 396.1 457.3C396.8 457.9 397.5 458.1 398.2 457.4C398.6 457 399 457 399.5 457.201C401.4 458 403 457 404.5 455.4C404.9 455 405.2 454.5 405.4 453.9C405.9 452.2 406.2 450.5 406.6 448.9C409.3 446.3 412.3 445.9 415.2 445C415.6 444.9 416 445.4 416.5 445.5C416.9 445.6 417.5 445.901 417.8 445.701C419.5 444.201 421.3 444.6 423 444.6C423.6 444.6 424.2 444.6 424.8 444.6C425.7 444.6 426.1 444 426.3 442.6C426.3 442.201 426.3 441.6 426.3 441.3C426.5 440.7 426.8 439.8 427.1 439.8C428.4 439.9 429.5 438.1 430.9 438.8C432.5 439.5 434.1 440.1 435.7 439.1C435.9 438.9 436.3 439.1 436.6 439.1C438.4 439.9 440.1 439.1 441.9 439.1C442.7 439.1 443.4 438.6 443.8 437.6C444.3 436.4 444.9 435.6 445.7 434.9C446.3 434.4 446.5 433.1 447 432C447.7 431.701 448.6 431.1 449.4 431.201C450.5 431.401 451.4 430.201 452.4 430.701C453.3 431.201 453.7 430.3 454.1 429.3C454.4 428.4 455.1 428.201 455.7 428.201C456.6 428.301 457.5 428 458.3 427.201C459.9 425.401 461.9 425.201 463.7 424C464.1 423.8 464.5 423.9 465 424C465.6 424.1 466.1 424 466.7 423.6C468.5 422 470.5 420.9 472.6 420.5C473.8 420.3 474.9 419.5 475.9 418.5C476.2 418.201 476.3 417.1 475.9 416.8C473.5 415 472.6 411.7 472.4 407.9" fill="#211D20"/>
</g>
<defs>
<clipPath id="clip0_574_4008">
<rect width="476.3" height="476.2" fill="white"/>
</clipPath>
</defs>
</svg>
