<svg width="477" height="477" viewBox="0 0 477 477" fill="none" xmlns="http://www.w3.org/2000/svg">
<g clip-path="url(#clip0_574_3988)">
<path d="M0 0V314.6C0.2 315.3 0.3 316.1 0.3 316.9C0.3 317.7 1 318.4 1.5 319.1C2.3 320.3 3.3 321.5 4.2 322.6C5.2 324 6.6 325.2 7.2 326.7C8.8 330.8 7.4 333.5 11 336.1C13.4 337.8 13 341 14.8 343.4C15.9 344.9 17.7 345.8 19.2 346.9C20.1 347.5 21.1 347.9 21.9 348.5C24.9 350.6 23.9 356.6 27 358.5C29.3 359.9 31.4 361.4 32.7 363.6C37 370.7 42.4 377 47.7 383.4C49.2 385.2 50.2 387.3 51.5 389.2C53 391.3 54.5 393.3 56.2 395.2C58 397.3 60 399.2 62 401.2C63.4 402.6 64.7 404 66.2 405.1C68.2 406.5 69.6 408.3 70.7 410.4C73 414.4 79.8 417.5 83.7 420.4C84.8 421.3 85.8 422.7 86.3 424C87.3 426.8 89.2 428.6 91.4 430.4C92.9 431.6 94.4 432.9 95.7 434.3C97.8 436.6 100.4 437.9 103.4 438.7C110.2 440.4 109.7 443.8 115.9 446.7C121.8 449.4 127.5 452.7 133.7 454.4C141.9 456.7 149 459.6 156.9 462.6C159.5 463.6 162.2 464.4 165 465C172.7 466.7 188.9 470.1 190.8 470.7C195.5 472.1 208.5 471.7 213.2 473C216.1 473.8 219.2 473.9 222 474.8C226.3 476.2 240.4 475.5 245 475.3C246.3 475.3 247.5 476 248.8 476C281.4 474.3 295.5 474.4 308.7 468.2C309.4 467.9 310.4 467.6 311.2 467.2C312.6 466.5 313.9 465.7 315.2 464.9C316.7 464 318.1 462.8 319.8 462.3C324.5 460.9 330.2 458.4 333.1 455.3C335.1 453.2 337.3 451.3 340.1 449.8C341.7 448.9 342.8 447.3 344.1 446C344.8 445.3 353.3 441.1 354 440.4C356.3 437.8 360.1 437 362.3 434.3C363.9 432.4 365.5 430.5 368 429.4C376 425.7 379.2 425.2 386.4 420.7C388.4 419.4 390.8 418.6 393 417.4C395.3 416.1 397.6 414.8 399.8 413.4C402.1 411.8 404.3 410.1 406.5 408.4C408 407.2 409.7 406.1 410.9 404.8C412.5 403.1 414.5 401.9 416.9 400.9C421.5 398.9 422.7 394.9 426 391.5C427 390.5 428.8 386.5 430.3 386.1C433.4 385.3 431.1 382.7 433.1 380.9C434.5 379.6 435.9 378.3 437.5 377.2C440.1 375.4 441.6 373.2 442.5 370.6C444.5 364.8 448.2 359.6 451.5 354.2C454.6 349.2 458.3 344.2 460.2 338.9C462.8 331.9 465.7 325 469.1 318.3C470.2 316.1 471.1 313.7 471.8 311.4C473 307.1 475.1 298 476.6 291.7V0H0Z" fill="#211D20"/>
</g>
<defs>
<clipPath id="clip0_574_3988">
<rect width="476.6" height="476.2" fill="white"/>
</clipPath>
</defs>
</svg>
