<svg width="468" height="477" viewBox="0 0 468 477" fill="none" xmlns="http://www.w3.org/2000/svg">
<g clip-path="url(#clip0_574_4002)">
<path d="M467.2 476.2C467.2 476 467.2 475.9 467.2 475.7C467 473.1 467.1 470.6 467.6 468.1C468.2 465.6 468 463.4 466.8 461.2C465.2 458.3 464.1 455.2 463.8 452C463.4 448.8 462.1 445.6 462.3 442.5C462.5 439.8 464.2 437.2 465.2 434.5C465.6 433.4 465.6 432.1 465.7 430.9C465.9 429.6 464.9 428.3 463.5 428.2C462.1 428 460.8 427.8 459.4 427.8C457.7 427.8 456.4 427.6 455.5 427.3C455.3 427 455.2 426.8 455.1 426.4C456.6 421.5 453.8 416.2 455.9 411.4C455.9 411.4 456 411.2 456.1 411.1C456.9 410.2 457.5 409.3 458 408.3C458 408.3 458 408.3 458 408.2C458.4 407.8 458.6 407.1 458.6 406.4C458.6 405.9 458.6 405.5 458.6 405C457.9 401.2 458 397 456.1 393.7C452.3 387.4 452.6 381.4 454.1 374.7C454.8 371.6 454.2 368.2 455.3 365C457.4 358.5 457.2 352 455.3 345.4C452.5 335.7 451.6 325.9 453.3 315.9C454.2 310.5 453.5 304.9 453.8 299.4C453.9 296.7 455 288.7 445.6 288.5C443.2 288.5 441.4 288.2 440.1 286.9C436.3 283.3 432.4 279.8 428.3 276C427.8 276 426.8 275.5 425.8 275.5C422.4 275.5 420.2 274.7 418.8 273C418.3 272.4 418.1 271.8 417.6 271.2C416.2 269.6 414 268.5 410.8 268.3C407.4 268.1 404.4 267.5 401.4 266.7C397.4 265.6 393.8 264.2 390.9 262.2C389.3 261.1 387.7 260 386.1 259C384.1 257.7 382 256.4 379.8 255.2C375.9 253 372.6 250.4 370.5 247.5C369 245.5 366.9 243.9 362.9 243.3C360.7 243 359.2 242 357.8 241C355.4 239.4 352.9 237.8 349.4 237C345.3 236.1 342.8 234.4 341.2 232.3C339 229.4 335.8 226.9 332.9 224.2C329 220.7 325.5 217 321 213.7C319.7 212.7 319 211.5 318.1 210.3C317.5 209.5 317.2 208.7 316.7 207.9C314.7 204.8 311.5 202.4 305.8 201.3C302.9 200.8 300.8 199.7 298.9 198.4C295.5 196.2 292.7 193.8 291.4 190.8C290.6 188.8 288.6 187 286 185.4C281.8 182.8 278.1 179.8 276.1 176.4C274.3 173.3 270.3 171.1 267.3 168.6C266.3 167.8 264.8 167.1 263.2 166.6C259.2 165.4 256.2 163.5 253.8 161.4C251.4 159.3 248.6 157.4 244.8 156C243.1 155.3 241.5 154.3 240.6 153.2C238.9 151.3 236.8 149.7 233.6 148.5C230.7 147.5 229.1 146 227.7 144.1C226.3 142.2 223.9 140.5 221.5 139C218.2 136.9 215.3 134.9 214.7 132C214.4 130.5 212.6 129.3 210.6 128.4C207.6 127.1 205.3 125.5 204.5 123.3C203.6 120.9 200.2 119.4 198.6 117.4C196.9 115.3 196.7 112.9 194.6 111C193 109.6 191.3 108.3 188.2 107.7C185.6 107.2 183.9 106.1 182.8 104.8C180.5 101.9 176.4 99.8004 173 97.3004C171.2 96.0004 168.9 94.8004 166.4 94.1004C163.3 93.1004 161.4 91.8004 159.5 90.2004C156.8 87.9004 155.2 85.3004 152.5 83.1004C149.8 80.9004 146.4 78.9004 143.5 76.8004C141 75.0004 138.7 73.1004 136.5 71.2004C134.9 69.8004 133.8 68.2004 131.9 66.9004C130 65.7004 126.9 65.1004 125 63.9004C121.1 61.4004 116.1 59.6004 112.5 56.9004C110.9 55.7004 109.1 54.7004 108.3 53.3004C107.3 51.7004 105.7 50.4004 103.8 49.1004C100.3 46.7004 97 44.2004 95 41.2004C93.5 39.0004 90.9 37.2004 86.9 36.3004C84.4 35.7004 82.3 34.8004 81.5 33.3004C80.2 31.1004 77.5 29.8004 74.3 28.8004C71.3 27.9004 69.2 26.6004 67.4 24.9004C65 22.6004 62.1 20.4004 59.4 18.2004C59 17.8004 58.6 17.4004 58 17.2004C50.2 14.3004 46.2 9.30042 39.1 6.00042C33.1 3.50042 28.1 1.60042 20.7 0.800416C18.9 0.600416 17.2 0.200416 15.4 0.000416115C12.3 -0.299584 9.6 0.600416 8.5 2.30042C8 3.10042 7.6 3.90042 7.3 4.70042C7.1 5.40042 6.8 6.00042 6.5 6.70042C4.3 18.5004 0 29.6004 0 41.7004V476.2H467.2Z" fill="#211D20"/>
</g>
<defs>
<clipPath id="clip0_574_4002">
<rect width="467.9" height="476.2" fill="white"/>
</clipPath>
</defs>
</svg>
