<svg width="477" height="476" viewBox="0 0 477 476" fill="none" xmlns="http://www.w3.org/2000/svg">
<g clip-path="url(#clip0_574_3996)">
<path d="M476.5 210.7C476.1 209.4 475.7 208.1 476.1 206.7C476.1 206.4 476.1 206.1 476.1 205.8C475 203.3 475.8 200.6 475.2 198.1C474.8 196.3 474.2 194.6 473.2 193.2C473.2 192.6 473.3 192.1 473.4 191.7C473.8 189.967 473.7 188.2 473.1 186.4C473.2 186 473.3 185.6 473.5 185.2C474.3 183.7 474.5 182 474.5 180.3C474.5 178.7 474.4 177.2 472.5 176.8C472.1 176.8 471.7 176.4 471.4 176.1C470.4 175.1 469.3 174.7 468 174.3C467.2 174.1 466.4 173.6 465.7 173.3C465.3 172.4 464.9 171.6 464.6 170.7C464.2 169 463.5 167.5 462.3 166.4C461.4 165.5 461 164.4 460.9 163.2C460.7 161.9 459.9 161 458.9 160.4C458.1 159.9 457.1 159.4 456.2 159C455.5 158.7 455.1 158.1 454.8 157.4C454.8 157.1 454.6 156.8 454.4 156.6C452.8 155.4 451.3 154 449.7 152.7C449.1 152.2 448.2 151.9 447.4 151.5C446.8 151.3 446.5 150.8 446.3 150.3C445.8 149 445 148.4 443.7 148.4C442.9 148.4 442.3 147.9 442.1 147.1C441.8 145.7 441.1 144.6 440.1 143.7C439.5 143.1 439.3 142.1 438.8 141.4C438.5 140.9 438.2 140.3 437.8 140C437 139.3 436 138.9 435.5 138.1C434.9 137.3 435 136 434.4 135.2C434 134.7 434.2 134.1 434.4 133.5C434.8 131.9 434.6 131.5 433 130.7C432.3 130.4 431.8 130 431.8 129.1C431.8 128.8 431.8 128.5 431.8 128.2C431.8 127.2 431.6 126.4 430.7 126C429.9 125.6 429.3 125 429.2 124C429 122.6 428.1 121.6 427.6 120.4C427.1 119.4 426.5 118.6 425.7 118C425.1 117.6 424.5 117.2 423.8 116.9C423 116.5 422.2 116.2 421.3 116.3C418 116.9 414.8 115.9 411.5 115.8C410.5 115.8 409.5 115.3 408.7 114.7C407.6 113.8 406.6 112.6 405.4 111.8C404.3 111.1 403.1 110.6 402.3 109.4C402 109 401.4 108.8 400.8 108.6C400.3 108.4 399.7 108.4 399.1 108.3C397.7 108.1 396.4 107.6 395.1 106.8C393.9 106 392.6 105.4 391.1 105.2C389.8 105 388.6 104.4 387.7 103.4C385.6 100.8 382.7 99.4 380 97.7C378.8 96.9 377.5 96.2 376.5 95.1C375.9 94.4 375.1 94.1 374.2 93.9C372.4 93.5 370.7 92.6 369.2 91.5C368 90.7 366.6 90.3 365.4 89.6C364.2 88.8 363.2 87.7 362 86.8C361.2 86.2 360.3 85.7 359.4 85.2C357.9 84.4 356.6 83.2 355.4 81.8C354.3 80.4 353.1 79 351.7 78C349.8 76.6 349 74.6 348 72.5C347.7 71.9 347.8 71.3 348 70.8C348.2 70.4 348.4 70 348.5 69.6C348.6 69.3 348.5 69 348.6 68.7C348.6 68.1 348.3 67.3 347.8 67.3C345.2 67.5 343.3 65.6 341.1 64.6C340.6 64.4 340.2 63.8 340 63.3C339.3 62 338.4 61.2 337.2 60.6C335.9 59.9 334.6 59.3 333.5 58.3C331.8 56.7 329.8 55.9 327.7 55.5C323.2 54.6 319.1 52.2 314.9 50.6C314.4 50.4 313.9 50.1 313.4 49.8C311.8 48.8 310.2 47.9 308.4 47.4C306.5 46.9 305.6 44.8 303.9 43.9C302.2 43.1 300.6 42.1 299 41.1C297.9 40.5 297.2 39.6 297.5 38.1C297.6 37.5 297.5 36.9 297.1 36.4C296.1 34.7 294.7 33.4 293.3 32C291.2 30 291 30 292.2 27C292.7 25.7 293.2 24.5 293.3 23.1C293.3 22.6 293 21.8 292.6 21.5C289.7 19.9 286.9 18.2 283.6 17.4C283.1 17.3 282.5 17 282.1 16.9C280.4 13.3 280.4 13.3 277.3 11.2C276.3 10.6 275.3 10 274.3 9.5C272.5 8.5 270.8 7.4 269 6.5C268.3 6.1 267.8 5.7 267.4 5C267 4.3 266.4 3.9 265.6 3.9C262.2 3.7 258.9 2.7 255.4 2.8C254.4 2.8 253.5 2.4 252.5 2.2C250 1.5 247.5 0.9 244.9 1C242.4 1 239.8 1 237.2 1C235.5 1 233.8 1.1 232.1 0.6C231.1 0.3 230.1 0.3 229.1 0.6C228.3 0.8 227.4 0.8 226.6 1C223.2 1.8 219.8 1.6 216.4 1.8C215.6 1.8 214.7 1.8 213.9 1.6C211.8 1.3 209.7 0.8 207.6 0.7C204.8 0.7 201.9 0.6 199.1 1.4C196.6 2.1 194.1 2.2 191.6 3.2C190 3.9 188.2 3.8 186.5 3.4C184.8 3 183.1 3.1 181.4 3C179.8 3 178.3 3 176.9 3.9C176.2 4.3 175.5 4.5 174.7 4.6C174.5 4.6 174.4 4.6 174.2 4.4C173.6 4.2 172.9 4.1 172.2 4.2C172.2 4.2 172 4.2 171.9 4.2C170.9 3.9 169.9 3.9 168.9 4C168.7 4 168.5 3.9 168.3 3.8C167.7 3.6 167 3.5 166.3 3.7C165.1 3.9 164 3.7 162.9 3.1C162.1 2.7 161.4 2.4 160.6 2.1C159.5 1.6 158.4 1.4 157.3 2.1C156.1 2.8 154.8 2.9 153.4 2.9C152.1 2.9 150.6 2.9 149.5 3.6C147.6 4.9 145.4 4.9 143.3 4.9C142.1 4.9 141 4.9 139.8 4.7C138.9 4.6 138.2 4.7 137.4 5.1C136.2 5.7 134.9 6.1 133.6 6.2C132.3 6.3 131 6.8 129.7 6.7C128.6 6.7 127.5 6 126.4 5.7C125.9 5.6 125.4 5.6 124.9 5.5C124.4 5.5 123.8 5.9 123.7 6.3C123.7 6.8 123.5 7.3 123.5 7.8C123.5 8.5 123.4 9 123.2 9.4C123 9.4 122.8 9.4 122.6 9.4C120.7 9 118.6 9.9 116.7 9.2C116.3 8.9 115.9 8.7 115.6 8.5C115.4 8.4 115.1 8.3 114.8 8.3C114.6 8.3 114.4 8.3 114.2 8.3C112.6 8.5 110.9 8.5 109.5 9.2C106.9 10.6 104.4 10.5 101.6 9.9C100.3 9.6 98.9 9.9 97.6 9.5C94.9 8.7 92.2 8.8 89.5 9.5C85.5 10.5 81.4 10.8 77.3 10.2C75.1 9.9 72.8 10.2 70.5 10C69.4 10 68.2 10 67.2 9.6C63.4 8.3 59.5 8.5 55.7 9.4C53.2 10 50.8 10.1 48.3 10.1C45.8 10.1 43.3 10.1 40.8 10.1C38.3 10.1 35.8 10.1 33.3 9.9C28.8 9.6 24.2 9.2 19.7 8.8C17.9 8.7 16 8.7 14.3 8.3C12.6 7.9 11.2 8.2 9.69998 8.9C8.59997 9.5 7.49998 9.2 6.49998 8.4C5.99998 8 5.49998 7.5 4.89998 7C2.99998 7.1 0.999976 7.3 -0.900024 7.4V476.7H201.7C201.7 476.5 201.7 476.3 201.9 476.1C202.1 475.6 202.3 475.2 202.5 474.7C202.9 473.9 203.1 473.1 202.8 472.3C202.3 470.7 202.3 469 202.4 467.3C202.4 466.8 202.5 466.2 202.4 465.8C201.4 463.1 202 460.5 202.8 457.9C203 457.3 203.1 456.6 203 455.9C203 454.6 203 453.3 203.5 452C203.7 451.4 203.8 450.7 203.7 450C203.5 448.8 203.7 447.7 204.3 446.6C204.6 445.8 205 445.1 205.3 444.3C205.8 443.2 206 442.1 205.3 440.9C204.6 439.7 204.5 438.4 204.5 437C204.5 435.6 204.5 434.2 203.8 433.1C202.5 431.1 202.5 429 202.5 426.8C202.5 426.4 202.5 425.9 202.5 425.5C203.2 425.5 203.9 425.5 204.5 425.5C205.7 425.5 206.9 425.5 208 425.8C209.9 426.3 211.9 426.3 213.8 426.1C215.4 425.9 216.9 425.9 218.5 426.2C221.2 426.8 223.9 426.9 226.7 426.8C227.7 426.8 228.8 426.8 229.8 426.8C231.4 426.8 232.9 426.8 234.4 426.3C235.7 425.9 237.1 425.9 238.5 426.3C238.8 426.5 239.2 426.6 239.5 426.8C239.7 426.9 240.1 426.8 240.3 426.6C241.3 426.7 242.4 426.8 243.4 426.8C244 426.8 244.7 426.8 245.3 427C248.3 427.7 251.3 427.7 254.2 427.1C254.9 427 255.5 427.1 256.1 427.4C257 428 257.9 428.1 259 428C260.8 428 262.7 428 264.5 428.1C264.9 428.1 265.3 428.1 265.7 428.1C266.6 428.2 267.5 428.6 268.3 428.6C269.2 428.6 270.1 428.2 271 428.1C273.5 427.7 275.9 427.6 278.3 428.5C278.8 428.7 279.7 428.7 280.2 428.5C282.5 427.7 285 427.6 287.3 427.1C287.6 427.1 287.9 427 288.2 426.9C288.8 426.7 289.5 426.8 290.1 426.7C290.7 426.7 291.4 426.7 292 426.7C292.9 426.7 293.8 426.7 294.7 426.6C295.8 426.6 296.9 426.6 297.9 426.4C298.4 426.4 298.9 426.2 299.4 426.1C299.8 426.1 300.2 425.9 300.5 426C302.7 426.5 305 426.2 307.1 426.8C307.6 426.9 308.2 426.9 308.7 426.8C310.4 426.5 312.1 426.5 313.7 426.4C315.3 426.3 316.8 426.4 318.4 426.1C319.4 426 320.5 425.7 321.5 425.6C323.7 425.5 325.9 425.4 328.1 425C328.6 425 329.2 425 329.6 425.1C330.7 425.5 331.8 425.7 333 425.5C334.3 425.3 335.6 425.6 336.8 426.1C337.6 426.4 338.5 426.5 339.5 426.3C341.4 425.9 343.4 426.1 345.4 426.1C346.7 426.1 348 426.1 349.3 426.1C350.5 426.1 351.7 426 352.8 425.9C353.1 426.1 353.4 426.4 353.8 426.6C354.4 426.9 355 427.1 355.6 426.8C356.4 426.4 357.3 426.3 358.2 426.5C359.2 426.7 362.5 427.4 361.8 420.7C361.7 419.3 361.8 417.8 362 416.4C362.1 415.3 362 414.4 361.6 413.4C361 411.9 360.6 410.3 360.5 408.7C360.4 407.1 359.9 405.4 360 403.8C360 402.4 360.7 401.1 361 399.7C361.1 399.1 361.1 398.5 361.2 397.9C361.2 397.4 360.8 396.6 360.4 396.5C359.9 396.5 359.4 396.3 358.9 396.3C358.2 396.3 357.7 396.2 357.3 396C357.3 395.7 357.3 395.5 357.3 395.2C357.7 392.8 356.8 390.2 357.5 387.9C357.5 387.9 357.5 387.9 357.5 387.8C357.8 387.4 358 386.9 358.2 386.4C358.3 386.2 358.4 385.8 358.4 385.5C358.4 385.3 358.4 385 358.4 384.8C358.2 382.8 358.2 380.7 357.5 379C356.2 375.8 356.3 372.7 356.8 369.3C357 367.7 356.8 366 357.2 364.3C357.9 361 357.9 357.6 357.2 354.3C356.2 349.3 355.9 344.3 356.5 339.2C356.8 336.4 356.5 333.6 356.7 330.8C356.7 329.4 357.1 325.3 353.8 325.2C353 325.2 352.3 325 351.8 324.4C350.4 322.6 349.1 320.8 347.6 318.8C347.4 318.8 347.1 318.6 346.7 318.6C345.5 318.6 344.7 318.2 344.2 317.3C344 317 343.9 316.7 343.8 316.4C343.3 315.6 342.5 315 341.4 314.9C340.2 314.9 339.1 314.5 338 314.1C336.6 313.5 335.3 312.8 334.3 311.8C333.7 311.2 333.2 310.7 332.6 310.2C331.9 309.5 331.1 308.9 330.4 308.3C329 307.2 327.8 305.9 327.1 304.4C326.6 303.4 325.8 302.5 324.4 302.3C323.6 302.1 323.1 301.6 322.6 301.1C321.7 300.3 320.8 299.4 319.6 299C318.1 298.5 317.3 297.7 316.7 296.6C315.9 295.1 314.8 293.8 313.7 292.5C312.3 290.7 311 288.8 309.4 287.1C308.9 286.6 308.7 286 308.4 285.4C308.2 285 308.1 284.6 307.9 284.2C307.2 282.6 306 281.4 304 280.8C303 280.5 302.2 280 301.5 279.3C300.3 278.1 299.3 276.9 298.8 275.4C298.8 275.4 298.8 275.4 298.8 275.3C298.9 275.3 299 275.3 299.1 275.3C299.9 275.3 300.8 275.3 301.6 275.3C306.3 275.3 311 274.8 315.6 275.8C316.6 276 317.6 276.2 318.6 275.8C321.7 274.8 324.8 275.2 327.9 275.6C328.3 275.6 328.8 275.9 329.2 275.7C331.4 274.8 333.4 275.7 335.5 276.2C339.1 277 342.8 277.3 346.3 278.5C347 278.7 347.7 278.8 348.4 278.7C351.4 278.4 354.4 278.8 357.4 278.8C358.4 278.8 359.4 278.9 360.3 279.2C361.3 279.5 362.3 279.4 363.3 279.2C366.8 278.7 370.4 278.4 373.9 279.2C374.9 279.4 375.8 279.3 376.8 279.2C379.9 278.6 382.9 277.9 386.1 277.9C387.1 277.9 388.1 277.5 389 277.4C391.7 277 394.3 276.5 397 276.8C399.7 277.1 402.4 277.1 405.1 276.4C406.5 276.1 407.9 276 409.4 276.1C412.7 276.1 415.9 276.3 419.2 276.5C420.9 276.6 422.6 276.2 424.2 275.8C426.3 275.2 428.4 275 430.5 275.4C432.6 275.7 434.8 275.4 436.9 275.4C437.9 275.4 438.9 275.1 439.8 274.7C442.2 273.8 444.7 273.2 447.2 272.7C448.9 272.4 450.5 271.8 452.2 271.3C453 271.1 453.7 270.5 454.3 269.8C454.7 269.2 455.1 268.4 455.7 268.1C457.4 267.3 458 265.9 457.6 264C457.6 263.6 457.6 263 457.7 262.7C458.3 261.5 458.4 260 458.9 258.8C460.2 256 460.2 252.9 460.9 249.9C461.2 248.6 460.5 247.2 461.1 245.8C461.6 244.7 461.9 243.5 462.2 242.3C462.8 240.2 463.3 238.2 464.2 236.3C464.9 234.8 465.5 233.2 465.4 231.5C465.1 228 466.5 225.2 468.6 222.8C470.7 220.3 472.4 217.5 474.2 214.7C474.4 214.3 474.7 213.9 474.8 213.5C474.9 212.9 475.2 212.2 475 211.7" fill="#211D20"/>
</g>
<defs>
<clipPath id="clip0_574_3996">
<rect width="476.6" height="475.8" fill="white"/>
</clipPath>
</defs>
</svg>
