<svg width="477" height="477" viewBox="0 0 477 477" fill="none" xmlns="http://www.w3.org/2000/svg">
<g clip-path="url(#clip0_574_3994)">
<path d="M474.2 3.50035C473.7 3.00035 473.1 3.10035 472.4 3.40035C472.1 3.30035 471.9 3.10035 471.6 3.00035C470.5 2.40035 469.4 2.30035 468.3 2.90035C467.9 3.10035 467.4 3.40035 467 3.60035C465.8 4.20035 464.5 4.40035 463.2 3.80035C462.8 3.60035 462.3 3.40035 461.9 3.20035C461.1 2.80035 460.3 2.60035 459.5 2.90035C457.9 3.40035 456.3 3.40035 454.6 3.30035C454.1 3.30035 453.6 3.20035 453.1 3.30035C450.5 4.30035 447.9 3.70035 445.4 2.90035C444.8 2.70035 444.1 2.60035 443.5 2.70035C442.2 2.70035 440.9 2.70035 439.6 2.20035C439 2.00035 438.3 1.90035 437.7 2.00035C436.5 2.20035 435.4 2.00035 434.4 1.40035C433.7 1.10035 432.9 0.700348 432.2 0.400349C431.1 -0.0996515 430 -0.299651 428.9 0.400349C427.7 1.10035 426.4 1.20035 425.1 1.10035C423.8 1.10035 422.4 1.10035 421.3 1.80035C419.4 3.10035 417.3 3.10035 415.2 3.00035C414.1 3.00035 412.9 3.00035 411.8 2.80035C410.9 2.70035 410.2 2.80035 409.4 3.10035C408.2 3.70035 407 4.00035 405.6 4.20035C404.3 4.30035 403 4.80035 401.7 4.70035C400.6 4.70035 399.5 4.00035 398.5 3.70035C398 3.60035 397.5 3.60035 397 3.50035C396.6 3.50035 395.9 3.90035 395.9 4.30035C395.9 4.80035 395.7 5.30035 395.7 5.80035C395.7 6.50035 395.6 7.00035 395.5 7.40035C395.3 7.40035 395.1 7.40035 394.9 7.40035C393 7.00035 390.9 7.90035 389.1 7.20035C388.7 6.90035 388.4 6.70035 388 6.50035C387.8 6.40035 387.6 6.30035 387.3 6.30035C387.1 6.30035 386.9 6.30035 386.7 6.30035C385.2 6.50035 383.4 6.50035 382.1 7.20035C379.5 8.50035 377.1 8.40035 374.4 7.90035C373.1 7.70035 371.8 7.90035 370.4 7.50035C367.7 6.80035 365.1 6.80035 362.4 7.50035C358.5 8.50035 354.5 8.80035 350.4 8.20035C348.2 7.90035 345.9 8.20035 343.7 8.00035C342.6 8.00035 341.4 8.00035 340.4 7.60035C336.6 6.30035 332.8 6.60035 329.1 7.40035C326.6 7.90035 324.2 8.10035 321.8 8.10035C319.3 8.10035 316.9 8.10035 314.4 8.10035C311.9 8.10035 309.5 8.10035 307 7.90035C302.5 7.60035 298.1 7.20035 293.6 6.90035C291.8 6.80035 290 6.90035 288.3 6.40035C286.7 6.10035 285.2 6.30035 283.8 7.00035C282.7 7.60035 281.6 7.30035 280.7 6.60035C280.2 6.20035 279.7 5.70035 279.1 5.20035C277.1 5.30035 275.1 5.50035 273.1 5.60035C270.9 5.60035 268.6 5.40035 266.4 5.60035C263 5.70035 259.6 5.20035 256.3 6.10035C254.6 6.50035 253.2 6.40035 251.8 5.60035C249.7 4.50035 247.6 3.90035 245.3 4.30035C243.2 4.70035 241.3 4.30035 239.4 3.40035C238.6 3.00035 237.6 2.90035 236.8 3.10035C233.1 3.90035 229.3 4.10035 225.5 4.40035C223.7 4.50035 222 5.10035 220.2 5.40035C217.5 5.80035 214.8 5.70035 212.2 6.00035C209.3 6.30035 206.4 6.20035 203.6 6.80035C202.7 7.00035 201.7 6.90035 200.9 6.70035C197.2 5.50035 193.3 6.30035 189.6 5.10035C189.1 4.90035 188.3 5.20035 187.7 5.40035C186.8 5.60035 186 6.00035 185.1 6.10035C180.6 6.40035 176.2 6.60035 171.7 6.90035C170.6 6.90035 169.4 6.90035 168.4 7.30035C164 8.90035 159.1 8.90035 154.7 10.7003C153.8 11.1003 152.4 11.1003 151.4 10.7003C147.3 8.90035 143.1 9.10035 138.9 9.80035C137.4 10.1003 135.9 10.9003 134.4 10.9003C132.9 10.9003 131.4 10.2003 129.9 9.90035C129.2 9.80035 128.6 9.80035 127.9 9.80035C124.8 9.80035 121.6 9.50035 118.5 9.60035C116.6 9.60035 115 9.50035 113.5 8.30035C112.6 7.60035 111.4 7.50035 110.3 7.70035C105.2 8.90035 100.1 9.00035 95 7.50035C93.9 7.20035 92.8 7.20035 91.7 7.10035C89 6.90035 86.4 6.90035 83.7 6.00035C81.3 5.30035 78.7 5.10035 76.4 6.00035C73.8 7.10035 71.2 7.00035 68.5 7.10035C66.7 7.10035 64.9 7.00035 63.1 7.10035C58.4 7.30035 53.7 7.10035 49.1 5.80035C46.5 5.10035 43.8 5.10035 41.1 5.50035C37.8 6.00035 34.5 6.00035 31.1 4.90035C29.2 4.30035 27.1 4.30035 25.1 4.30035C22.4 4.30035 19.7 4.60035 17 4.30035C14.3 4.10035 11.7 3.50035 9.00003 3.20035C7.20003 3.00035 4.80003 1.50035 3.60003 2.80035C3.40003 3.10035 3.30003 3.30035 3.30003 3.60035C3.00003 3.60035 2.80003 3.70035 2.50003 3.90035C1.20003 5.10035 2.70003 7.50035 2.90003 9.30035C3.20003 12.0003 3.80003 14.6003 4.00003 17.3003C4.20003 20.0003 3.80003 22.7003 4.00003 25.4003C4.00003 27.4003 4.00003 29.5003 4.60003 31.4003C5.70003 34.7003 5.70003 38.0003 5.20003 41.4003C4.80003 44.1003 4.80003 46.7003 5.50003 49.4003C6.80003 54.0003 7.00003 58.7003 6.80003 63.4003C6.80003 65.2003 6.80003 67.0004 6.80003 68.8004C6.80003 71.5004 6.80003 74.1003 5.70003 76.7003C4.80003 79.0004 4.90003 81.6003 5.70003 84.0004C6.50003 86.6003 6.50003 89.3004 6.80003 92.0004C6.80003 93.1003 6.80003 94.3004 7.20003 95.3004C8.70003 100.4 8.60003 105.5 7.40003 110.6C7.10003 111.7 7.20003 112.9 8.00003 113.8C9.20003 115.3 9.40003 116.9 9.30003 118.8C9.20003 121.9 9.40003 125.1 9.50003 128.2C9.50003 128.9 9.50003 129.6 9.60003 130.2C9.90003 131.7 10.6 133.2 10.6 134.7C10.6 136.2 9.80003 137.7 9.50003 139.2C8.70003 143.4 8.50003 147.6 10.4 151.7C10.8 152.6 10.8 154 10.4 155C8.60003 159.4 8.60003 164.2 7.00003 168.7C6.60003 169.7 6.70003 170.9 6.70003 172C6.40003 176.5 6.20003 180.9 5.90003 185.4C5.90003 186.3 5.40003 187.1 5.20003 187.9C5.10003 188.5 4.70003 189.3 4.90003 189.8C6.10003 193.5 5.30003 197.4 6.50003 201.1C6.80003 201.9 6.80003 202.9 6.60003 203.8C6.00003 206.7 6.10003 209.5 5.80003 212.4C5.60003 215.1 5.70003 217.8 5.20003 220.4C4.90003 222.2 4.30003 223.9 4.20003 225.7C3.90003 229.5 3.70003 233.3 2.90003 237C2.70003 237.8 2.90003 238.8 3.20003 239.6C4.10003 241.5 4.40003 243.4 4.10003 245.5C3.70003 247.8 4.30003 249.9 5.40003 252C6.10003 253.4 6.30003 254.9 5.90003 256.5C5.00003 259.8 5.50003 263.2 5.40003 266.5C5.40003 268.7 5.50003 271 5.40003 273.2C5.40003 275.2 5.20003 277.2 5.00003 279.2C5.50003 279.8 6.00003 280.3 6.40003 280.8C7.10003 281.8 7.40003 282.8 6.90003 283.9C6.10003 285.4 5.90003 286.8 6.30003 288.4C6.70003 290.1 6.60003 292 6.80003 293.7C7.20003 298.2 7.50003 302.6 7.80003 307.1C8.00003 309.6 8.00003 312 8.00003 314.5C8.00003 317 8.00003 319.4 8.00003 321.9C8.00003 324.4 7.80003 326.8 7.30003 329.2C6.50003 332.9 6.20003 336.7 7.50003 340.5C7.90003 341.5 7.90003 342.7 7.90003 343.8C7.90003 346 7.70003 348.3 8.10003 350.5C8.70003 354.6 8.40003 358.6 7.40003 362.5C6.70003 365.2 6.70003 367.8 7.40003 370.5C7.80003 371.8 7.60003 373.2 7.80003 374.5C8.30003 377.2 8.40003 379.7 7.10003 382.2C6.40003 383.5 6.50003 385.2 6.20003 386.8C6.20003 387 6.20003 387.2 6.20003 387.4C6.20003 387.7 6.20003 388 6.40003 388.1C6.60003 388.5 6.80003 388.9 7.10003 389.2C7.80003 391.1 6.90003 393.1 7.30003 395C7.30003 395.2 7.30003 395.4 7.30003 395.6C6.90003 395.7 6.40003 395.8 5.70003 395.8C5.20003 395.8 4.70003 395.8 4.20003 396C3.80003 396 3.40003 396.7 3.40003 397.1C3.40003 397.6 3.40003 398.1 3.60003 398.5C3.90003 399.6 4.50003 400.7 4.60003 401.7C4.60003 403 4.20003 404.3 4.10003 405.6C4.00003 406.9 3.60003 408.2 3.00003 409.4C2.60003 410.2 2.50003 410.9 2.60003 411.8C2.70003 412.9 2.80003 414.1 2.80003 415.2C2.80003 417.3 2.80003 419.4 1.60003 421.3C0.900028 422.4 0.800028 423.8 0.900028 425.1C0.900028 426.4 0.900028 427.7 0.200028 428.9C-0.399972 430 -0.199972 431.1 0.200028 432.2C0.500028 432.9 0.900028 433.7 1.20003 434.4C1.70003 435.4 2.00003 436.5 1.80003 437.7C1.70003 438.3 1.80003 439.1 1.90003 439.6C2.40003 440.9 2.40003 442.1 2.40003 443.5C2.40003 444.1 2.40003 444.8 2.60003 445.4C3.50003 447.9 4.00003 450.4 3.00003 453.1C2.80003 453.5 3.00003 454.1 3.00003 454.6C3.00003 456.2 3.00003 457.9 2.60003 459.5C2.30003 460.3 2.60003 461.1 2.90003 461.9C3.10003 462.3 3.30003 462.8 3.50003 463.2C4.10003 464.5 4.00003 465.7 3.30003 467C3.10003 467.4 2.80003 467.9 2.60003 468.3C2.00003 469.4 2.10003 470.5 2.70003 471.6C2.80003 471.8 3.00003 472.1 3.10003 472.4C2.80003 473 1.90003 476.1 2.60003 476.5H476.2V4.80035C476.2 3.10035 474.2 3.80035 473.8 3.50035" fill="#211D20"/>
</g>
<defs>
<clipPath id="clip0_574_3994">
<rect width="476.6" height="476.3" fill="white"/>
</clipPath>
</defs>
</svg>
