<svg width="477" height="477" viewBox="0 0 477 477" fill="none" xmlns="http://www.w3.org/2000/svg">
<g clip-path="url(#clip0_574_3990)">
<path d="M475.9 285.1C475.6 283.4 475.6 281.6 475.7 279.9C476.3 272.9 475.9 266 474.1 259.2C473.5 257 472.7 254.8 472.1 252.5C470.8 247.8 470.2 243.3 471.4 238.2C472.6 233.2 473.2 227.9 470.8 222.8C470.4 222 470.5 220.9 470.7 220C471 218.3 471.4 216.6 472 214.9C472.9 212.3 473.3 209.6 472.5 206.9C471.9 204.7 472.2 202.6 472.7 200.6C473.8 195.6 472.9 190.6 472.5 185.6C472.5 184.5 472 183.3 471.4 182.4C470.6 181.1 470.8 180 471 178.6C471.5 175 471.8 171.5 471.2 167.8C470.5 163.1 467.1 159.6 466.9 154.7C466.9 154 466.3 153.3 465.9 152.7C465.2 151.6 464.4 150.5 463.7 149.4C462.9 148.2 461.7 147 461.2 145.7C459.9 141.9 457.5 139.1 454.5 136.8C452.4 135.2 450.6 133.3 449.1 131.1C448.2 129.7 446.7 128.9 445.4 127.8C444.7 127.2 443.8 126.8 443.1 126.3C440.6 124.4 438.2 122.3 435.6 120.6C433.7 119.3 431.9 118 430.8 115.9C427.2 109.3 422.7 103.6 418.3 97.7001C417.1 96.1001 416.2 94.1001 415.1 92.3001C413.9 90.4001 412.6 88.5001 411.2 86.7001C409.7 84.8001 408 83.0001 406.4 81.2001C405.3 79.9001 404.2 78.6001 402.9 77.6001C401.3 76.3001 400.1 74.6001 399.1 72.7001C397.2 69.0001 395.4 65.1001 392.1 62.4001C391.1 61.6001 390.3 60.3001 389.9 59.1001C389.1 56.6001 387.4 54.9001 385.6 53.2001C384.3 52.1001 383.1 50.9001 382 49.6001C380.2 47.5001 378.1 46.2001 375.5 45.5001C369.8 43.9001 364.8 40.9001 359.5 38.2001C354.6 35.7001 349.8 32.7001 344.6 31.1001C337.8 29.0001 331.1 26.6001 324.5 23.8001C322.3 22.9001 320 22.1001 317.7 21.6001C311.2 20.1001 305.4 17.1001 300.2 12.8001C299.1 11.9001 297.7 11.2001 296.4 10.7001C294.9 10.0001 293.3 9.60007 291.8 9.00006C287.8 7.70006 283.9 6.30007 279.9 5.10006C277.5 4.40006 274.9 4.30007 272.5 3.40007C268.9 2.10007 265.3 1.20007 261.4 1.40007C260.4 1.40007 259.3 1.10006 258.2 0.800065C254.4 -0.399935 250.5 0.100065 246.9 1.10007C243.7 1.90007 240.6 2.60006 237.3 2.50007C234.8 2.40007 232.7 3.00006 230.5 4.20006C227.3 6.00006 223.9 7.50006 220.7 9.20006C219 10.1001 217.3 10.1001 215.4 9.90006C211.5 9.40006 207.5 9.20006 203.7 11.0001C202.8 11.4001 201.6 11.3001 200.5 11.2001C199.1 11.2001 197.6 10.9001 196.2 10.8001L195.8 11.0001C194 12.0001 192.1 12.8001 190.5 14.0001C185 18.2001 178.7 20.0001 172.2 21.0001C166.4 21.9001 160.9 23.3001 155.5 25.7001C151.7 27.4001 148 29.8001 143.7 29.7001C141.1 29.7001 138.7 30.1001 136.3 31.5001C135.5 32.0001 134.6 32.3001 133.7 32.3001C129.6 32.6001 125.7 34.9001 121.4 34.2001C120.4 34.0001 119.3 34.7001 118.2 34.9001C115.7 35.4001 113.2 35.8001 110.7 36.4001C106.5 37.4001 102.3 38.9001 98.6 41.3001C93 44.9001 89.2 50.3001 85.6 56.0001C84.5 57.8001 83.4 59.6001 81.9 61.0001C77.7 65.0001 73.2 68.7001 68.9 72.6001C67.5 73.8001 66.1 75.1001 64.9 76.5001C62.1 79.8001 59.6 83.4001 56.7 86.6001C52.9 90.8001 49.3 95.1001 46.5 100.1C44.6 103.5 42.7 106.7 39.5 108C38.9 110.4 38.7 112.4 37.9 114C36.2 117.4 34.2 120.7 32.2 123.9C31.2 125.4 30.7 126.9 31.1 128.8C31.6 131.3 31.5 133.9 30.5 136.2C29.6 138.2 29.3 140.2 29.2 142.4C29.1 145.2 23.5 157.7 21.6 159.7C18 163.3 16 168.2 12.9 172.2C12 173.4 11.5 174.9 11 176.4C9.79997 180.5 8.69997 184.6 7.49997 188.6C6.29997 192.6 4.99997 196.7 3.69997 200.7C2.29997 204.9 2.29997 209.4 0.699968 213.6C-0.100032 215.7 -0.100032 218.2 -0.400032 220.5C-0.600032 222.1 -0.400032 223.5 0.399968 225C2.89997 230.1 5.39997 235.3 7.69997 240.6C8.59997 242.5 9.09997 244.6 9.79997 246.7C8.79997 247.8 7.99997 248.7 6.79997 249.9C7.69997 252.6 8.29997 255.5 9.69997 257.9C11.1 260.4 11.5 262.9 11.2 265.7C10.7 270.3 10.2 275 10.1 279.6C10.1 281.6 11.2 283.7 11.3 285.8C11.3 288.1 10.7 290.4 10.6 292.6C10.6 295.1 11.1 297.6 11.1 300.1C11.1 302.8 11.7 305.1 13.2 307.2C15.5 310.4 17.6 313.8 20 317C23.5 321.5 27 325.9 30.7 330.2C32.5 332.3 33.8 334.4 34.3 337.2C35 341.1 36.5 344.6 39.4 347.3C42.3 349.9 43.2 353.3 43.2 357.2C43.2 359.1 43 361.1 43.2 363C43.6 368.2 44.9 372.7 49.7 375.6C55.8 379.4 61.5 383.9 67.6 387.9C71.5 390.5 74.7 393.9 77.7 397.6C83.1 404.2 89.4 409.8 97.3 412.9C103.1 415.2 106.5 419.5 108.4 425.6C108.8 426.9 109.5 428 110.1 429.1C110.9 430.6 111.9 432 112.8 433.5C113.4 434.4 113.9 435.6 114.7 436.2C116.9 437.9 119.2 439.5 121.4 441.1C123.4 442.5 125.3 443.9 127.3 445.3C130 447.3 132.6 449.2 135.3 451.3C135.5 452 135.7 452.9 135.9 453.5C137.9 454 139.6 454.1 141 454.8C143.5 456 145.6 458 148.2 458.8C150.7 459.6 153.6 459.1 156.2 459.8C160.2 460.9 164.5 460.9 168.2 463.5C168.6 463.8 169.2 463.8 169.8 463.9C175.9 464.4 182.1 464.8 188.3 465.3C190.5 465.5 192.7 465.3 194.8 465.7C199.1 466.3 203.5 466.6 207.8 466.1C210.4 465.8 212.8 466.4 215.1 467.7C219 469.9 223.3 470.7 227.5 471.7C231.2 472.6 234.9 473.3 238.7 474.2C243.3 475.2 247.9 476.7 252.6 474.7C253.4 474.4 254.4 474.5 255.3 474.6C264 475.4 272.7 475.3 281.4 474.8C282.4 474.8 283.6 474.8 284.6 475.2C290.4 477.9 296 477 301.3 473.9C304.8 471.8 308.6 470.5 312.5 469.3C315.6 468.4 318.9 467.9 322 467C329 465.2 336.3 464.5 342.9 460.9C344.8 459.9 347 459.6 348.6 457.8C349.2 457.2 350.2 457 351.1 456.7C358 454.9 364.2 451 370.9 448.5C371.7 448.2 372.5 447.6 373.3 447.1C377 444.7 380.6 442.2 384.4 440C387.8 438 390.9 435.7 393.2 432.4C394 431.3 394.8 429.9 395.9 429.6C398.8 428.7 400.9 426.5 403.4 425.1C408.4 422.4 411.5 418 413.1 412.4C414.8 406.5 418 401.6 421.6 396.9C423.9 393.9 426.9 391.6 428.4 387.9C428.8 386.9 429.8 386.1 430.7 385.4C432.8 383.8 434.3 381.6 435.6 379.3C437.8 375.5 439.4 371.4 442.7 368.4C443.8 367.4 444.2 365.4 444.8 363.8C445.6 361.9 446.2 359.8 447.1 358C448.3 355.8 449.3 353.5 449.6 350.9C450.1 346.4 452.2 343 455.2 339.9C457.8 337.2 460.3 334.3 462.1 331C464.1 327.4 466.4 324.3 469.4 321.7C470.1 321.1 470.6 320.3 471 319.5C471.9 317.2 472.5 314.7 473.5 312.5C474.6 310.1 475 307.8 474.6 305.2C474.1 302.7 474.4 300.2 475.1 297.8C476.3 293.9 476.3 289.8 475.4 285.8" fill="#211D20"/>
</g>
<defs>
<clipPath id="clip0_574_3990">
<rect width="476.6" height="476.2" fill="white"/>
</clipPath>
</defs>
</svg>
