<svg width="477" height="477" viewBox="0 0 477 477" fill="none" xmlns="http://www.w3.org/2000/svg">
<g clip-path="url(#clip0_574_3992)">
<path d="M472.7 261.8C473.2 260.9 474.6 260 474 258.5C472.6 255 471.3 251.5 469.9 248C469.6 247.2 469 246.4 468.9 245.6C468.6 242.6 466.6 240.3 464.8 237.9C463.3 235.9 462.5 233.9 462.1 231.6C461.5 228.4 460.6 225.2 459.7 222C459.5 221.3 458.9 220.7 458.5 220.1C456 216.2 453.7 212.3 452.8 207.9C451.9 203.5 450.6 199.3 448.4 195.2C448 194.4 447.9 193.4 447.2 192.9C444.6 190.7 443.4 188 443.1 184.9C443.1 184.8 443 184.6 442.9 184.5C441.6 180.4 440.3 176.3 439.1 172.1C438.5 170 438.4 167.8 436.1 166.4C435.6 166.1 435.4 165.4 435.3 164.9C434.4 161.5 432.4 158.5 430.2 155.7C429.3 154.4 428.6 153.2 428.6 151.7C428.6 149.9 427.7 148.5 426.6 147C423.8 143.2 421.5 139.2 422.9 134.5C423.2 133.4 423.1 132.4 422 131.8C419.2 130.2 417.6 128.1 416.7 125.4C416.4 124.5 415.4 123.7 414.8 122.9C414.3 122.3 413.6 121.8 413.3 121.2C411.1 116.9 408.4 112.8 407.5 108.1C407.4 107.4 407.2 106.7 406.8 106C404.6 102.4 403.6 98.6004 403.1 94.5004C402.8 92.3004 402.7 90.3004 403.5 88.2004C404.4 85.7004 403.4 84.5004 400.3 84.2004C399.6 84.2004 399 84.2004 398.3 84.2004C391.5 84.2004 384.6 84.2004 378 82.5004C377.1 82.3004 376 82.5004 375 82.3004C370.1 81.6004 365.2 80.9004 359.3 80.1004C358.4 80.4004 356.5 81.4004 354.5 80.6004C351.8 79.5004 349 79.7004 346.2 80.3004C344.8 80.6004 343.2 80.5004 341.7 80.7004C340 80.9004 338.4 80.7004 336.8 80.0004C333.3 78.7004 329.4 78.5004 326 76.9004C325.5 76.7004 324.7 76.7004 324 76.8004C322.3 77.0004 321.2 76.2004 319.9 75.6004C316.4 73.9004 314 70.5004 309.2 70.8004C308.8 70.8004 308.4 70.3004 308 70.1004C306.4 69.4004 304.8 68.5004 303.1 68.1004C299.5 67.3004 297.1 65.2004 295 62.7004C293.7 61.2004 292 60.2004 290.1 59.0004C288.9 59.5004 287.7 60.1004 286.5 60.6004C282 58.7004 278.4 56.1004 277.6 51.4004C274.5 51.4004 271.7 51.1004 269.4 49.5004C265.7 46.8004 262 44.2004 258.3 41.5004C256.1 39.9004 254.1 38.1004 251.7 36.9004C247.1 34.6004 241.9 33.5004 236.9 32.0004C236.6 32.0004 236.2 31.8004 235.9 32.0004C233 32.8004 230.7 31.5004 228.4 30.3004C225.3 28.6004 222.5 26.7004 218.8 26.0004C218.2 25.9004 217.6 25.5004 217.1 25.2004C214.4 23.6004 211.5 22.7004 208.3 22.4004C206.3 22.2004 204.7 21.4004 204 19.8004C202.8 17.3004 200.5 15.7004 198 14.2004C195.7 12.8004 193.5 11.2004 192.9 8.60038C192.8 8.10038 192.4 7.40038 191.9 7.20038C189.3 5.90038 187.7 4.10038 186.8 1.60038C186.4 0.50038 185 0.000379801 183.5 0.20038C182.8 0.20038 182.2 0.60038 181.6 0.70038C177.2 1.60038 172.9 2.70038 168.3 2.70038C166.4 2.70038 164.3 3.20038 162.5 3.90038C159.7 5.00038 156.7 5.20038 153.7 5.40038C150.1 5.60038 146.4 5.10038 142.7 6.00038C142.2 6.10038 141.7 6.00038 141.2 6.00038C137.7 5.80038 134.3 5.50038 130.8 5.30038C130.3 6.20038 129.9 6.80038 129.6 7.40038C128.5 9.90038 127.3 12.5004 126.3 15.0004C125.7 16.5004 124.8 17.5004 123 17.9004C120 18.5004 118.4 20.2004 118 22.6004C117.7 24.5004 116.4 25.7004 114.9 26.9004C113.6 28.0004 112.2 29.0004 110.8 30.0004C109.4 31.0004 109 32.3004 109.2 33.8004C109.4 34.9004 109.6 36.1004 109.2 37.1004C108.2 39.5004 107 41.8004 105.7 44.1004C105.1 45.3004 104.6 46.4004 105.3 47.8004C105.7 48.7004 105.7 49.7004 105.9 50.7004C106.4 53.4004 106.5 56.0004 104.2 58.4004C103.3 59.3004 103.1 60.8004 102.6 62.0004C102.2 62.9004 101.9 63.9004 101.3 64.8004C98.5 68.4004 96.9 72.4004 96.3 76.6004C92.9 79.1004 90.8 82.0004 89.3 85.5004C88.3 87.9004 86.8 90.2004 85.4 92.4004C83.8 94.9004 81.8 97.2004 80.5 99.8004C79.5 101.9 78 103.7 75.8 104.6C71.8 106.2 69.8 108.9 68.1 112C67.6 112.9 66.9 113.7 66.4 114.6C65.5 116.4 64.1 117.7 62 118.5C58.8 119.7 56.4 121.6 54.5 124C53.1 125.9 51.4 126.6 48.7 126.5C46.4 126.5 44 126.6 41.8 127.2C39.6 127.8 37.5 129 35.1 128.6C32.6 128.2 30.3 129.5 27.7 128.9C25.4 128.4 24.4 129.1 23.5 131C23.2 131.7 22.8 132.4 22.8 133C22.3 137.1 22 141.2 21.5 145.3C21.3 147 21.1 148.7 20.4 150.3C19.5 152.4 19.2 154.4 19.9 156.6C20.2 157.5 20.1 158.6 19.8 159.5C18.2 163.1 17.3 166.9 14.7 170.2C13.3 171.9 12.8 173.8 12.7 175.9C12.6 178.9 12.9 181.9 12.7 184.9C12.1 191.5 13.7 198 15.1 204.4C15.9 208.2 16.2 212 15.1 215.9C14.7 217.1 14.6 218.4 14.5 219.7C14.4 220.5 14.7 221.5 14.3 222.2C12.9 224.7 13.4 227.2 13.8 229.8C14.2 232.9 14.8 236 13.1 239.1C12.7 239.8 12.5 240.8 12.7 241.6C13.4 244.3 13 247 13 249.7C13.1 256.3 11.9 262.7 9.50001 268.9C8.90001 270.6 8.40001 272.2 8.60001 273.9C8.80001 276.2 8.60001 278.4 7.40001 280.6C6.90001 281.5 6.70001 282.5 6.50001 283.5C5.40001 288 3.60001 292.3 1.10001 296.3C0.600012 297.2 0.300012 298.1 -0.299988 299.3C0.600012 300.2 1.30001 301.2 2.40001 301.8C4.90001 303.2 7.50001 304.4 10.1 305.8C11 306.2 12.1 306.6 12.6 307.2C14.2 309.7 17.8 310.3 19.4 312.8C19.7 313.2 20.4 313.5 21 313.7C23.5 314.6 25.5 316.1 27.2 317.9C28 318.7 28.7 319.5 29.7 320C32 321.2 34.4 322.1 34.8 324.8C34.8 325.1 35.4 325.5 35.8 325.7C37.8 327.1 39.3 328.7 40.1 330.8C40.6 332 41.9 332.3 43.5 331.9C44 331.8 44.4 331.6 44.8 331.3C46.1 330.5 47.5 330.7 48.4 331.6C50.4 333.4 52.8 334.5 55.6 335.2C56.4 335.4 57.1 335.8 57.8 336.3C59.3 337.3 61 337.8 62.9 337.7C65.7 337.7 68.1 338.4 70.1 340.2C70.9 340.9 71.9 341.4 72.8 342C74.8 343.4 76.7 345.3 79 346.1C81.4 346.9 82.3 348.3 83 350.1C83.4 351.2 83.9 352.2 84.5 353.5C87.1 353.7 88.7 355.3 90.3 357C92.3 358.9 94.5 360.6 97.5 361.5C98.9 361.9 100.2 362.7 101.2 363.6C103.8 365.8 106.4 368 108.7 370.4C112.5 374.4 117.7 376.6 123.1 378.7C126.9 378.7 128.6 380.9 130.5 383.2C131.6 384.6 132.8 386 134.1 387.3C135.1 388.2 136.3 389.1 137.6 389.7C144.2 392.4 150.2 396 156.2 399.5C159 401.1 161 403.4 163.1 405.6C166.1 408.9 169.2 412 172.2 415.2C173 416.1 173.9 416.8 175.2 417.3C180.2 419.3 184.4 422.3 187.9 426C190.2 428.5 193.3 430.3 196.6 431.6C197.5 431.9 198.6 432.1 199.3 432.7C202.2 435 205 437.5 208.4 439.2C208.8 439.4 209 439.9 209.4 440.2C210.3 440.8 211.2 441.5 212.1 442.1C213.9 443.3 215.9 444.4 217.6 445.7C221.8 449.1 225.9 452.7 230.1 456.2C232 457.8 233.8 459.5 236 460.8C240.5 463.5 243.2 467.5 246.8 470.8C247.3 471.3 247.4 472.1 247.5 472.8C248.4 476 251 477.3 254.5 476.1C256 475.6 257.5 474.8 258.7 473.9C260.2 472.6 262 472.2 264 471.8C265.8 471.5 267.6 471.6 269.3 470.7C276.5 466.8 284.3 464 292.2 461.3C293.9 460.7 295.8 460.7 297.5 460.3C298.9 460 300.4 459.7 301.7 459.1C303.3 458.4 304.7 457.3 306.2 456.5C307.5 455.8 308.8 455.1 310.2 454.8C315.1 453.5 320.3 452.9 324.7 450.4C325.6 449.9 326.9 449.8 328 449.4C329.1 449.1 330.3 448.9 331.3 448.4C334.2 446.8 337.4 446.1 340.8 446C342.9 446 344.8 445.7 346.2 444.2C346.6 443.8 347.4 443.4 347.9 443.5C350.9 444.2 352.9 442.4 355 441.4C355.9 441.7 356.5 441.9 356.9 442C359 441.2 361 440.4 363 439.6C364.8 438.9 366.5 438.1 367.7 436.6C368.8 435.2 370.7 434.2 372.7 434C376.5 433.6 379.5 431.9 382.6 430.2C386.1 428.3 389.2 425.9 393.4 425C395.9 424.5 397 422.8 397.1 420.5C397.3 415.9 398.8 411.6 400.9 407.4C402 405.2 404 402.9 402.4 400.2C402.2 399.9 402.4 399.4 402.7 399C405.1 394.9 407.5 390.7 411.8 387.9C415 385.8 416.9 383.1 418.8 380.2C419.6 379 420.5 377.8 421.4 376.6C421.8 376 422.8 375.6 423 375C423.6 373 425.3 372 427 370.8C428.4 369.8 429.7 368.6 430.7 367.4C432.4 365.3 434.1 363.2 437 362.1C437.7 361.8 438.1 361.1 438.6 360.5C439.3 359.7 439.8 358.7 440.6 358.1C442.4 356.7 443.3 354.9 443.9 352.9C444.7 350.4 445.8 347.8 448.4 346.4C451.9 344.5 454.2 341.7 457.1 339.4C458.5 338.2 459.7 336.8 460.6 335.3C462.6 332.3 464.5 329.3 467.9 327.3C469.1 326.6 469.4 325.6 469.6 324.4C470 321.7 470.6 319 471 316.4C471.6 312.9 472.3 309.4 472.5 305.8C472.7 302.5 473 299.3 473.9 296C474.2 295 474.2 294 474.4 293C474.9 290.8 475.7 288.6 475.8 286.3C476 284 475.5 281.7 475.5 279.5C475.5 278.5 475.8 277.5 476 276.5C476.4 274.5 476.3 272.5 475.5 270.6C474.4 267.9 473.4 265.2 472.3 262.3" fill="#211D20"/>
</g>
<defs>
<clipPath id="clip0_574_3992">
<rect width="476.6" height="476.2" fill="white"/>
</clipPath>
</defs>
</svg>
