<svg width="477" height="475" viewBox="0 0 477 475" fill="none" xmlns="http://www.w3.org/2000/svg">
<g clip-path="url(#clip0_574_3984)">
<path d="M476.6 3.40019C475.5 2.70019 474.4 1.80019 473.4 3.00019C471.867 2.06686 470.5 1.83352 469.3 2.30019C468.9 2.50019 468.5 2.70019 468.1 2.80019C466.1 3.40019 464 4.30019 461.9 3.70019C460.6 3.30019 459.4 3.60019 458.3 4.30019C457 5.20019 455.6 5.30019 454.1 5.10019C451.7 4.70019 449.3 4.50019 446.9 4.30019C446.3 4.30019 445.6 4.20019 445.1 3.90019C442.6 2.80019 440 2.60019 437.3 3.00019C436.3 3.10019 435.4 3.00019 434.5 2.70019C433.5 2.40019 432.5 1.80019 431.5 1.90019C430.2 2.10019 429.8 1.60019 428.2 1.90019C425.4 2.30019 427.6 2.60019 424.6 2.10019C422.8 1.80019 421.4 1.30019 419.7 1.90019C417.4 2.60019 415 3.30019 412.6 2.20019C412.2 2.00019 409.9 1.40019 409.4 1.60019C407.6 2.20019 405.6 2.10019 403.8 2.10019C401.8 2.10019 399.8 2.10019 397.9 2.80019C397.2 3.00019 396.4 3.00019 395.7 2.80019C393.5 2.40019 391.4 1.90019 389.2 1.30019C387.9 0.90019 386.2 3.10019 385 2.50019C383.9 1.90019 382.8 1.20019 381.6 0.70019C380.1 0.10019 379.5 3.30019 378.4 1.90019C378 1.40019 376.6 2.30019 376 2.00019C375.3 1.70019 374.6 1.50019 373.9 1.20019C371.9 0.10019 369.9 -0.09981 367.8 0.80019C366 1.60019 364 1.70019 362.2 1.30019C357.6 0.30019 353.2 1.30019 348.9 2.80019C347.4 3.30019 346.1 3.40019 344.6 3.10019C343.5 2.90019 342.2 2.50019 341.2 2.80019C337.8 4.00019 334.2 2.80019 330.9 3.90019C328.4 3.40019 326.1 4.10019 323.8 5.10019C324.9 7.60019 325.5 10.2002 325.1 13.0002C326.1 16.6002 325.1 20.5002 326.1 24.2002C326.4 25.3002 327.1 37.9002 326.8 39.1002C326.5 40.7002 326.6 42.2002 327.1 43.8002C328.4 48.5002 329.4 53.3002 328.5 58.3002C328.1 60.3002 328.2 62.4002 328.9 64.4002C329.7 66.7002 330.2 68.1002 329.2 70.2002C328.9 70.9002 329.8 73.7002 329.5 74.4002C329.2 75.0002 329.5 76.5002 329.1 76.9002C327.8 78.0002 330.2 78.1002 329.6 79.7002C329.1 81.0002 330.2 83.7002 329.6 85.0002C329 86.4002 330 88.4002 329.6 89.8002C329 92.1002 328.6 94.5002 328.2 96.8002C328.1 97.6002 328.1 98.4002 328.2 99.2002C328.9 101.3 328.2 101.8 328.2 104C328.2 106.1 327.7 107.5 328.2 109.5C328.4 110 328.4 110.7 328.2 111.2C327.1 113.8 327.8 116.4 328.5 118.9C329 120.8 329.2 122.7 329 124.6C328.5 127.9 329.2 128.2 329.7 131.1C329.9 132.3 330 133.4 330.1 134.8C330.2 135.8 329.6 137 329.3 138.1C329 139.1 328.9 140 329 141.1C329.3 144 329.1 146.8 328.1 149.5C327.9 150.1 327.8 150.8 327.7 151.5C327.4 154.1 329.6 156.3 329.2 158.9C328.9 160.6 328.3 161.9 329.2 163.3C329.9 164.5 330.1 165.7 329.8 167.2C329.2 169.5 328.2 170.7 328.8 172.9C328.9 173.3 329.1 173.7 329.3 174.2C329.6 175.2 329.9 175.8 329.9 176.6C329 176.6 328.1 176.7 327.1 176.8C326.6 176.8 326.1 176.6 325.7 176.3C324.7 175.5 323.7 175.7 322.8 176.5C321 178.1 318.8 175.3 317.2 177C315.4 178.9 313.1 174.2 311.3 176.3C309 174.9 309 174.9 307.2 175.6C306.8 175.8 306.4 176 306 176.1C304 176.7 301.9 177.6 299.8 177C298.4 176.6 297.3 176.9 296.2 177.6C294.9 178.5 293.5 178.6 292 178.4C289.6 178 287.2 177.8 284.8 177.6C284.2 177.6 283.5 177.5 282.9 177.2C280.4 176.1 277.8 175.9 275.1 176.3C274.1 176.4 273.2 176.3 272.3 176C271.3 175.7 270.2 175.1 269.3 175.2C268 175.4 267.6 174.9 266 175.2C263.2 175.6 265.4 175.9 262.4 175.4C260.6 175.1 259.3 174.6 257.5 175.2C255.2 175.9 252.8 176.6 250.4 175.5C250 175.3 247.7 174.7 247.2 174.9C245.3 175.5 243.4 175.4 241.6 175.4C239.6 175.4 237.6 175.4 235.7 176.1C235 176.3 234.2 176.3 233.5 176.2C231.3 175.8 229.2 175.3 227 174.7C225.7 174.3 224 176.5 222.8 175.9C221.7 175.3 220.6 174.6 219.4 174.1C217.9 173.5 217.3 176.7 216.2 175.3C215.8 174.8 214.4 175.7 213.8 175.4C213.1 175.1 212.4 174.9 211.7 174.5C209.7 173.4 207.7 173.2 205.6 174.1C203.8 174.8 201.8 175 200 174.6C195.4 173.6 191 174.6 186.7 176.1C185.2 176.6 183.9 176.7 182.4 176.4C181.3 176.2 180 175.8 179 176.1C175.6 177.3 172 176.1 168.7 177.2C166.2 176.7 163.9 177.4 161.6 178.4C162.7 180.9 163.3 183.5 162.9 186.3C163.9 190 162.8 193.8 163.9 197.5C164.2 198.6 164.9 211.2 164.6 212.4C164.3 214 164.4 215.5 164.9 217.1C166.2 221.8 167.2 226.6 166.2 231.6C165.8 233.6 165.9 235.7 166.6 237.7C167.4 240 167.9 241.4 166.9 243.5C166.6 244.2 167.5 246.9 167.2 247.7C167 248.3 167.2 249.8 166.8 250.2C165.5 251.4 167.9 251.4 167.3 253C166.8 254.3 167.9 257 167.3 258.3C166.7 259.6 167.7 261.6 167.3 263.1C166.7 265.4 166.3 267.8 165.9 270.1C165.8 270.9 165.8 271.7 166 272.5C166.7 274.6 166 275.1 166 277.3C166 279.3 165.5 280.8 166 282.8C166.1 283.3 166.2 284 166 284.5C164.9 287.1 165.6 289.7 166.3 292.2C166.8 294.1 167 296 166.8 297.9C166.3 301.2 167 301.5 167.5 304.4C167.7 305.6 167.7 306.7 167.9 308.1C168 309.1 167.4 310.3 167.1 311.4C166.8 312.4 166.7 313.3 166.8 314.4C167.2 317.3 166.9 320.1 165.9 322.8C165.7 323.4 165.6 324.1 165.5 324.8C165.2 327.4 167.4 329.6 167 332.2C166.7 333.9 166.2 335.2 167 336.6C167.7 337.8 167.9 339 167.6 340.5C167 342.8 166 344 166.6 346.2C166.7 346.6 166.9 347 167.1 347.5C167.6 348.9 168 349.8 167.6 351.2C166.7 351.2 165.9 351.3 165 351.4C164.5 351.4 164 351.2 163.6 350.9C162.6 350.1 161.6 350.3 160.7 351.1C158.9 352.7 156.7 349.9 155 351.6C153.2 353.5 150.9 348.8 149.1 350.9C146.8 349.5 146.8 349.5 145 350.2C144.6 350.4 144.2 350.6 143.8 350.7C141.8 351.3 139.7 352.2 137.6 351.6C136.2 351.2 135.1 351.5 134 352.2C132.7 353.1 131.3 353.2 129.8 352.9C127.4 352.5 125 352.4 122.6 352.1C122 352.1 121.3 352 120.7 351.7C118.2 350.6 115.6 350.4 112.9 350.8C111.9 350.9 111 350.8 110.1 350.5C109.1 350.2 108.1 349.6 107.1 349.7C105.8 349.9 105.4 349.4 103.8 349.7C101 350.1 103.2 350.4 100.2 349.9C98.4 349.6 97 349.1 95.3 349.7C93 350.4 90.6 351.1 88.2 350C87.8 349.8 85.5 349.2 85 349.4C83.2 350 81.2 349.9 79.4 349.9C77.4 349.9 75.4 349.9 73.5 350.6C72.8 350.8 72 350.8 71.3 350.6C69.1 350.2 66.9 349.7 64.8 349.1C63.5 348.7 61.8 350.9 60.6 350.3C59.5 349.7 58.4 349 57.2 348.5C55.7 347.9 55.1 351.1 54 349.7C53.6 349.2 52.2 350.1 51.6 349.8C50.9 349.5 50.2 349.3 49.5 348.9C47.5 347.8 45.5 347.6 43.4 348.5C41.6 349.3 39.6 349.4 37.8 349C33.2 348 28.8 349 24.5 350.5C23 351 21.7 351.1 20.2 350.8C19.1 350.6 17.8 350.2 16.8 350.5C13.4 351.7 9.90002 350.5 6.50002 351.6C4.00002 351.1 1.70002 351.8 -0.599976 352.8C0.500024 355.3 1.10002 357.9 0.700024 360.7C1.70002 364.3 0.700025 368.2 1.70002 371.9C2.00002 373 2.70002 385.6 2.40002 386.8C2.10002 388.4 2.20002 389.9 2.70002 391.5C4.00002 396.2 5.00002 401 4.00002 406C3.60002 408 3.70002 410.1 4.40002 412.1C5.20002 414.4 5.70002 415.8 4.70002 417.9C4.40002 418.6 5.30002 421.3 5.00002 422.1C4.70002 422.7 5.00002 424.2 4.60002 424.6C3.30002 425.8 5.70002 425.8 5.10002 427.4C4.60002 428.7 5.70002 431.4 5.10002 432.7C4.50002 434 5.50002 436.1 5.10002 437.5C4.50002 439.8 4.10002 442.2 3.70002 444.5C3.60002 445.3 3.60002 446.1 3.70002 446.9C4.40002 449 3.70002 449.5 3.70002 451.6C3.70002 453.7 3.20002 455.1 3.70002 457.1C3.90002 457.6 3.90002 458.3 3.70002 458.8C2.60002 461.4 3.30002 464 4.00002 466.5C4.50002 468.4 4.70002 470.3 4.50002 472.2C4.30002 474 4.30002 474.9 4.50002 475.8H475.6V3.40019H476.6Z" fill="#211D20"/>
</g>
<defs>
<clipPath id="clip0_574_3984">
<rect width="476.6" height="474.7" fill="white"/>
</clipPath>
</defs>
</svg>
