<svg width="477" height="477" viewBox="0 0 477 477" fill="none" xmlns="http://www.w3.org/2000/svg">
<g clip-path="url(#clip0_574_4016)">
<path d="M476.2 428.7C475.6 427.5 475.4 426.2 475.5 424.9C475.5 423.6 475.5 422.2 474.8 421.1C473.5 419.2 473.5 417.1 473.6 415C473.6 413.9 473.6 412.7 473.8 411.6C473.9 410.8 473.8 410 473.4 409.2C472.8 408 472.5 406.8 472.3 405.4C472.2 404.1 471.7 402.8 471.8 401.5C471.8 400.4 472.5 399.3 472.8 398.3C472.9 397.8 472.9 397.3 473 396.8C473 396.4 472.6 395.7 472.2 395.7C471.7 395.7 471.2 395.6 470.7 395.5C470 395.5 469.5 395.4 469.1 395.2C469.1 395 469.1 394.8 469.1 394.6C469.5 392.7 468.6 390.6 469.3 388.8C469.6 388.4 469.8 388.1 470 387.7C470.1 387.5 470.2 387.3 470.2 387C470.2 386.8 470.2 386.6 470.2 386.5C470 384.9 470 383.2 469.3 381.9C468 379.3 468.1 376.9 468.6 374.2C468.8 372.9 468.6 371.6 469 370.3C469.7 367.6 469.7 365 469 362.3C468 358.4 467.7 354.4 468.3 350.3C468.6 348.1 468.3 345.8 468.5 343.6C468.5 342.5 468.5 341.3 468.9 340.3C470.2 336.5 469.9 332.7 469.1 329C468.6 326.6 468.4 324.2 468.4 321.7C468.4 319.2 468.4 316.8 468.4 314.3C468.4 311.8 468.4 309.4 468.6 306.9C468.9 302.4 469.3 298 469.6 293.5C469.7 291.7 469.6 289.9 470.1 288.2C470.5 286.5 470.2 285.1 469.5 283.7C468.9 282.6 469.2 281.5 470 280.6C470.4 280.1 470.9 279.6 471.4 279C471.3 277.1 471.1 275.1 471 273C471 270.8 471.2 268.5 471 266.3C470.9 263 471.4 259.5 470.5 256.3C470 254.6 470.2 253.2 471 251.8C472.1 249.7 472.7 247.6 472.3 245.3C471.9 243.2 472.3 241.3 473.2 239.4C473.6 238.6 473.7 237.6 473.5 236.8C472.7 233.1 472.5 229.3 472.2 225.5C472.1 223.7 471.5 222 471.2 220.2C470.8 217.5 470.9 214.8 470.6 212.2C470.3 209.3 470.4 206.4 469.8 203.6C469.6 202.8 469.7 201.8 469.9 200.9C471.1 197.2 470.3 193.3 471.5 189.6C471.7 189 471.4 188.3 471.2 187.7C471 186.9 470.6 186 470.5 185.2C470.2 180.7 470 176.3 469.7 171.8C469.7 170.7 469.7 169.5 469.4 168.5C467.8 164.1 467.8 159.2 466 154.8C465.6 153.9 465.6 152.5 466 151.5C467.8 147.4 467.6 143.2 466.9 139C466.6 137.5 465.9 136 465.8 134.5C465.8 133 466.5 131.5 466.8 130C466.9 129.3 466.9 128.7 466.9 128C467 124.9 467.3 121.7 467.1 118.6C467.1 116.7 467.2 115.1 468.4 113.6C469.1 112.7 469.2 111.5 469 110.4C467.8 105.3 467.7 100.2 469.2 95.0998C469.5 93.9998 469.5 92.8998 469.6 91.7998C469.8 89.0998 469.8 86.4998 470.7 83.7998C471.4 81.3998 471.6 78.7998 470.7 76.4998C469.6 73.8998 469.7 71.2998 469.6 68.5998C469.6 66.7998 469.7 64.9998 469.6 63.1998C469.4 58.4998 469.6 53.7998 470.9 49.1998C471.6 46.5998 471.6 43.8998 471.2 41.1998C470.7 37.8998 470.7 34.5998 471.8 31.1998C472.4 29.2998 472.4 27.1998 472.4 25.1998C472.4 22.4998 472.1 19.7998 472.4 17.0998C472.6 14.3998 473.2 11.7998 473.5 9.19976C473.7 7.39976 475.2 4.99976 473.9 3.79976C473.4 3.29976 472.8 3.39976 472.1 3.69976C471.8 3.59976 471.6 3.39976 471.3 3.29976C470.2 2.69976 469.1 2.59976 468 3.19976C467.6 3.39976 467.1 3.69976 466.7 3.89976C465.5 4.49976 464.2 4.69976 462.9 4.09976C462.5 3.89976 462 3.69976 461.6 3.49976C460.8 3.09976 460 2.89976 459.2 3.19976C457.6 3.69976 456 3.69976 454.3 3.59976C453.8 3.59976 453.3 3.49976 452.8 3.59976C450.2 4.59976 447.6 3.99976 445.1 3.19976C444.5 2.99976 443.8 2.89976 443.2 2.99976C441.9 2.99976 440.6 2.99976 439.3 2.49976C438.7 2.29976 438 2.19976 437.4 2.39976C436.2 2.59976 435.1 2.39976 434.1 1.79976C433.4 1.39976 432.6 1.09976 431.9 0.799763C430.8 0.299763 429.7 0.0997626 428.6 0.799763C427.4 1.39976 426.1 1.59976 424.8 1.49976C423.5 1.49976 422.1 1.49976 421 2.19976C419.1 3.49976 417 3.49976 414.9 3.49976C413.8 3.49976 412.6 3.49976 411.5 3.29976C410.7 3.19976 409.9 3.29976 409.1 3.69976C407.9 4.29976 406.7 4.59976 405.3 4.79976C404 4.89976 402.7 5.39976 401.4 5.29976C400.3 5.29976 399.2 4.59976 398.1 4.29976C397.6 4.19976 397.1 4.19976 396.6 4.09976C396.2 4.09976 395.5 4.49976 395.5 4.89976C395.5 5.39976 395.4 5.89976 395.3 6.39976C395.3 7.09976 395.2 7.59976 395.1 7.99976C394.9 7.99976 394.7 7.99976 394.5 7.99976C392.6 7.59976 390.5 8.49976 388.7 7.79976C388.3 7.49976 388 7.29976 387.6 7.09976C387.4 6.99976 387.2 6.89976 386.9 6.89976C386.7 6.89976 386.5 6.89976 386.3 6.89976C384.7 7.09976 383 7.09976 381.7 7.79976C379.1 9.09976 376.7 8.99976 374 8.49976C372.7 8.29976 371.4 8.49976 370 8.09976C367.3 7.39976 364.7 7.39976 362 8.09976C358.1 9.09976 354.1 9.39976 350 8.79976C347.8 8.49976 345.5 8.79976 343.3 8.59976C342.2 8.59976 341 8.59976 340 8.19976C336.2 6.89976 332.4 7.19976 328.7 7.99976C326.2 8.49976 323.8 8.69976 321.4 8.69976C318.9 8.69976 316.5 8.69976 314 8.69976C311.5 8.69976 309.1 8.69976 306.6 8.49976C302.1 8.19976 297.7 7.79976 293.2 7.49976C291.4 7.39976 289.6 7.49976 287.9 6.99976C286.2 6.59976 284.8 6.89976 283.4 7.59976C282.3 8.19976 281.2 7.89976 280.3 7.09976C279.8 6.69976 279.3 6.29976 278.7 5.69976C276.8 5.79976 274.7 5.99976 272.7 6.09976C270.5 6.09976 268.2 5.89976 266 6.09976C262.6 6.19976 259.2 5.69976 256 6.59976C254.3 6.99976 252.9 6.89976 251.5 6.09976C250 5.29976 248.4 4.89976 246.7 4.79976V409.3H3.30002C3.30002 409.6 3.30002 409.8 3.30002 409.9C2.90002 410.7 2.80002 411.4 2.90002 412.3C3.00002 413.4 3.10002 414.6 3.10002 415.7C3.10002 417.8 3.10002 419.9 1.90002 421.8C1.20002 422.9 1.10002 424.3 1.20002 425.6C1.20002 426.9 1.20002 428.2 0.500016 429.4C-0.0999839 430.5 0.100016 431.6 0.500016 432.7C0.800016 433.4 1.10002 434.2 1.50002 434.9C2.00002 435.9 2.30002 437 2.10002 438.2C2.00002 438.8 2.10002 439.5 2.20002 440.1C2.70002 441.4 2.70002 442.6 2.70002 444C2.70002 444.6 2.70002 445.3 2.90002 445.9C3.70002 448.4 4.30002 450.9 3.30002 453.6C3.10002 454 3.30002 454.6 3.30002 455.1C3.30002 456.7 3.30002 458.4 2.90002 460C2.60002 460.8 2.90002 461.6 3.20002 462.4C3.40002 462.9 3.60002 463.3 3.80002 463.8C4.40002 465.1 4.30002 466.3 3.60002 467.6C3.40002 468 3.10002 468.5 2.90002 468.9C2.30002 470 2.40002 471.1 3.00002 472.2C3.10002 472.5 3.30002 472.7 3.40002 473C3.10002 473.6 3.00002 474.2 3.50002 474.8C4.70002 476.1 7.10002 474.6 8.90002 474.4C11.6 474.1 14.2 473.5 16.9 473.3C19.6 473.1 22.3 473.5 25 473.3C27 473.3 29.1 473.3 31 472.7C34.3 471.6 37.6 471.6 41 472.1C43.7 472.5 46.3 472.5 49 471.8C53.6 470.5 58.3 470.3 63 470.5C64.8 470.5 66.6 470.5 68.4 470.5C71.1 470.5 73.7 470.5 76.3 471.6C78.5 472.5 81.2 472.4 83.6 471.6C86.2 470.8 88.9 470.8 91.6 470.5C92.7 470.5 93.9 470.5 94.9 470.1C100 468.6 105.1 468.7 110.2 469.9C111.3 470.2 112.5 470.1 113.4 469.3C114.9 468.1 116.5 467.9 118.4 468C121.5 468.1 124.7 467.9 127.8 467.8C128.5 467.8 129.2 467.8 129.8 467.7C131.3 467.4 132.8 466.7 134.3 466.7C135.8 466.7 137.3 467.5 138.8 467.8C143 468.6 147.2 468.8 151.3 466.9C152.2 466.5 153.6 466.5 154.6 466.9C159 468.7 163.8 468.7 168.3 470.3C169.3 470.7 170.5 470.6 171.6 470.6C176.1 470.9 180.5 471.1 185 471.4C185.9 471.4 186.7 471.9 187.6 472.1C188.2 472.2 189 472.6 189.5 472.4C193.2 471.2 197.1 472 200.8 470.8C201.6 470.5 202.6 470.5 203.5 470.7C206.4 471.2 209.2 471.2 212.1 471.5C214.8 471.7 217.5 471.6 220.1 472.1C221.9 472.4 223.6 473 225.4 473.1C229.2 473.4 233 473.6 236.7 474.4C237.5 474.6 238.6 474.4 239.3 474.1C241.2 473.2 243.1 472.9 245.2 473.2C247.5 473.6 249.6 473 251.7 471.9C253.1 471.2 254.6 471 256.2 471.4C259.5 472.3 262.9 471.8 266.2 471.9C268.4 471.9 270.7 471.8 272.9 471.9C274.9 471.9 276.9 472.1 278.9 472.3C279.5 471.8 280 471.3 280.5 470.9C281.5 470.2 282.5 469.9 283.6 470.5C285.1 471.3 286.5 471.5 288.1 471.1C289.8 470.7 291.7 470.8 293.4 470.6C297.9 470.2 302.3 469.9 306.8 469.6C309.3 469.4 311.7 469.4 314.2 469.4C316.7 469.4 319.1 469.4 321.6 469.4C324.1 469.4 326.5 469.6 328.9 470.1C332.6 470.9 336.4 471.2 340.2 469.9C341.2 469.5 342.4 469.5 343.5 469.5C345.7 469.5 348 469.7 350.2 469.3C354.3 468.7 358.3 469 362.2 470C364.9 470.7 367.5 470.7 370.2 470C371.5 469.6 372.9 469.8 374.2 469.6C376.9 469.1 379.4 469 381.9 470.3C383.2 471 384.9 471 386.5 471.2C386.7 471.2 386.9 471.2 387.1 471.2C387.4 471.2 387.7 471.2 387.8 471C388.2 470.8 388.6 470.6 388.9 470.3C390.8 469.6 392.8 470.5 394.7 470.1C394.9 470.1 395.1 470.1 395.3 470.1C395.4 470.5 395.5 471 395.5 471.7C395.5 472.2 395.5 472.7 395.7 473.2C395.7 473.6 396.4 474 396.8 474C397.3 474 397.8 474 398.3 473.8C399.4 473.5 400.5 472.8 401.6 472.8C402.9 472.8 404.2 473.2 405.5 473.3C406.8 473.4 408.1 473.8 409.3 474.4C410.1 474.8 410.8 474.9 411.7 474.7C412.8 474.6 414 474.5 415.1 474.5C417.2 474.5 419.3 474.5 421.2 475.7C422.3 476.4 423.7 476.5 425 476.4C426.4 476.4 427.6 476.4 428.8 477.1C429.9 477.7 431 477.5 432.1 477.1C432.8 476.8 433.6 476.5 434.3 476.1C435.4 475.6 436.4 475.3 437.6 475.5C438.2 475.6 438.9 475.5 439.5 475.4C440.8 474.9 442 474.9 443.4 474.9C444 474.9 444.7 474.9 445.3 474.7C447.8 473.9 450.4 473.3 453 474.3C453.4 474.5 454 474.3 454.5 474.3C456.1 474.3 457.8 474.3 459.4 474.7C460.2 475 461 474.7 461.8 474.4C462.2 474.2 462.7 474 463.1 473.8C464.4 473.2 465.6 473.3 466.9 474C467.3 474.2 467.8 474.5 468.2 474.7C469.3 475.3 470.4 475.2 471.5 474.6C471.7 474.6 471.8 474.4 472 474.4C472.3 474.4 472.5 474.2 472.7 473.9C472.9 473.7 473.1 473.4 473.2 473.2C473.2 473 473.4 472.9 473.4 472.7C474 471.6 474.1 470.5 473.5 469.4C473.3 469 473 468.5 472.8 468.1C472.2 466.9 472 465.6 472.6 464.3C472.8 463.9 473 463.4 473.2 462.9C473.6 462.1 473.8 461.3 473.5 460.5C473 458.9 473 457.3 473.1 455.6C473.1 455.1 473.2 454.6 473.1 454.1C472.1 451.5 472.7 448.9 473.5 446.4C473.7 445.8 473.8 445.1 473.7 444.5C473.7 443.2 473.7 441.9 474.2 440.6C474.4 440 474.5 439.3 474.4 438.7C474.2 437.5 474.4 436.4 475 435.4C475.4 434.7 475.7 433.9 476 433.2C476.5 432.1 476.7 431 476 429.9" fill="#211D20"/>
</g>
<defs>
<clipPath id="clip0_574_4016">
<rect width="476.6" height="476.2" fill="white"/>
</clipPath>
</defs>
</svg>
